<?xml version="1.0" standalone="no"?>
<!DOCTYPE svg PUBLIC "-//W3C//DTD SVG 20010904//EN"
 "http://www.w3.org/TR/2001/REC-SVG-20010904/DTD/svg10.dtd">
<svg version="1.0" xmlns="http://www.w3.org/2000/svg"
 width="1024.000000pt" height="1024.000000pt" viewBox="0 0 1024.000000 1024.000000"
 preserveAspectRatio="xMidYMid meet">

<g transform="translate(0.000000,1024.000000) scale(0.100000,-0.100000)"
fill="#000000" stroke="none">
<path d="M4165 9763 c-36 -4 -145 -37 -235 -70 -128 -48 -248 -144 -369 -296
-67 -84 -91 -88 -117 -22 -19 50 -20 94 -9 233 7 88 7 94 -15 117 -29 31 -40
31 -106 0 -56 -27 -128 -100 -171 -176 -41 -73 -94 -248 -100 -329 -10 -146
39 -284 141 -397 31 -33 56 -66 56 -72 0 -19 -53 -12 -121 15 -60 24 -75 26
-254 27 -157 2 -197 -1 -230 -15 -22 -9 -78 -26 -125 -38 -106 -26 -143 -46
-250 -131 -107 -85 -235 -224 -330 -359 -98 -140 -112 -157 -184 -214 -61 -49
-131 -131 -147 -173 -5 -15 -3 -38 9 -68 20 -54 13 -70 -44 -102 -64 -37 -252
-93 -310 -93 -29 0 -90 9 -136 20 -115 27 -138 26 -173 -10 -27 -28 -28 -35
-38 -174 -12 -173 3 -318 43 -411 63 -145 91 -192 144 -238 60 -52 70 -82 41
-121 -20 -27 -19 -99 5 -230 18 -96 24 -113 55 -147 19 -22 35 -46 35 -55 0
-27 -62 -134 -92 -160 -55 -46 -107 -44 -157 5 -28 27 -33 28 -73 20 -49 -11
-91 -53 -109 -110 -10 -32 -8 -45 15 -102 14 -36 26 -72 26 -81 0 -19 44 -125
106 -255 58 -120 132 -201 224 -245 63 -30 69 -31 200 -31 116 1 149 5 233 28
141 40 137 44 137 -146 0 -140 2 -157 26 -212 51 -120 50 -155 -3 -176 -106
-41 -137 -67 -149 -126 -5 -24 0 -37 24 -64 16 -19 39 -52 50 -74 11 -22 53
-69 92 -105 40 -36 99 -90 132 -121 l60 -56 -7 -84 c-4 -46 -16 -118 -28 -159
-25 -94 -27 -240 -3 -320 33 -110 126 -236 246 -335 76 -63 174 -164 247 -255
85 -108 102 -120 185 -136 40 -8 112 -14 160 -14 105 0 110 -5 134 -126 17
-87 52 -204 65 -218 5 -6 9 -17 9 -25 0 -20 74 -117 138 -178 29 -29 97 -82
150 -118 53 -37 131 -91 172 -120 41 -30 81 -54 88 -55 7 0 32 -13 55 -28 23
-16 105 -59 182 -97 188 -91 387 -229 393 -274 7 -45 -12 -53 -123 -46 -88 5
-116 2 -196 -18 -78 -20 -111 -23 -196 -19 -82 3 -111 1 -145 -13 -24 -9 -63
-21 -88 -25 -78 -15 -153 -45 -161 -66 -13 -36 -29 -114 -29 -141 0 -29 -9
-59 -52 -175 -15 -43 -28 -91 -28 -108 0 -38 -24 -86 -49 -99 -10 -6 -39 -15
-63 -20 -25 -6 -74 -28 -109 -50 -111 -70 -168 -101 -183 -101 -7 0 -19 -6
-25 -14 -7 -8 -27 -18 -44 -21 -18 -4 -50 -15 -72 -25 -116 -53 -134 -60 -149
-60 -9 0 -33 -9 -53 -20 -21 -11 -46 -20 -55 -20 -10 0 -35 -9 -55 -20 -21
-11 -42 -20 -48 -20 -6 0 -28 -9 -50 -20 -22 -11 -44 -20 -50 -20 -6 0 -28 -9
-50 -20 -22 -11 -46 -20 -55 -20 -9 0 -20 -4 -25 -9 -6 -5 -48 -23 -95 -41
-47 -18 -92 -36 -100 -41 -8 -5 -26 -14 -40 -20 -14 -7 -61 -29 -106 -50 -44
-22 -85 -39 -91 -39 -15 0 -62 -57 -75 -89 -11 -27 -23 -81 -36 -161 -4 -25
-11 -51 -15 -58 -6 -8 0 -12 21 -12 24 0 31 5 35 27 13 64 48 170 65 192 24
33 281 147 972 431 118 48 281 115 362 149 81 33 164 69 185 79 80 40 73 44
153 -80 178 -275 423 -560 568 -660 23 -16 42 -26 42 -22 0 4 -42 50 -92 103
-163 169 -352 443 -473 684 -68 134 -79 184 -51 223 16 21 13 25 41 -55 22
-62 122 -207 356 -514 28 -37 53 -66 55 -65 1 2 -18 44 -43 95 -49 97 -50 123
-7 123 48 0 207 -60 343 -130 74 -38 136 -68 138 -66 2 2 -33 36 -79 75 -96
83 -301 224 -438 301 -153 86 -199 120 -219 159 -19 37 -58 211 -70 313 l-7
57 40 -37 c71 -65 282 -199 716 -454 403 -237 1069 -541 1185 -541 92 0 512
215 814 415 249 166 447 314 543 406 53 52 58 54 94 47 21 -3 55 -15 76 -26
63 -32 64 -85 4 -214 -78 -169 -161 -267 -461 -544 l-90 -83 70 38 c108 57
249 144 498 307 231 150 317 201 325 193 2 -3 -25 -42 -61 -88 -101 -130 -261
-379 -317 -495 -29 -58 -50 -107 -47 -109 2 -2 19 15 37 39 19 23 115 137 215
252 99 116 196 230 216 255 l35 43 150 -57 c168 -66 310 -118 666 -246 271
-98 696 -262 728 -282 11 -7 20 -18 20 -25 0 -17 56 -57 120 -85 55 -25 120
-86 120 -113 0 -11 11 -15 36 -15 34 0 36 1 29 27 -10 41 -71 119 -113 145
-20 12 -64 45 -97 73 -60 52 -172 115 -201 115 -9 0 -33 8 -53 19 -83 43 -156
72 -244 97 -26 7 -57 20 -69 28 -12 9 -32 16 -44 16 -12 0 -57 13 -100 29 -44
16 -95 35 -114 42 -48 17 -126 56 -183 91 -30 20 -68 33 -105 37 -62 8 -144
33 -207 62 -22 11 -46 19 -53 19 -7 0 -30 11 -50 25 -20 14 -41 25 -46 25 -5
0 -24 11 -42 25 -23 18 -37 40 -48 78 -10 35 -27 63 -53 88 -42 39 -162 104
-234 125 -35 11 -53 24 -74 54 -16 23 -50 59 -77 82 -29 24 -61 63 -78 97 -15
31 -39 66 -52 79 -35 32 -119 62 -217 78 -46 7 -111 26 -146 43 -60 27 -66 28
-102 16 -50 -18 -58 -18 -77 1 -37 37 -4 94 55 94 39 0 50 20 43 74 -7 47 -7
47 48 99 30 29 76 63 104 77 59 30 135 75 189 113 22 15 114 76 205 136 269
177 374 305 461 561 16 47 29 97 29 113 0 15 8 44 19 65 10 20 25 57 32 81 15
50 28 58 75 43 40 -12 100 -1 161 29 48 25 457 418 519 500 118 155 169 330
145 498 -21 150 -22 170 -12 208 15 56 60 93 206 168 150 78 196 107 277 178
66 57 98 103 98 139 0 13 13 45 30 71 16 26 38 64 49 84 10 21 28 57 40 81 37
73 37 95 1 125 -17 15 -40 27 -51 27 -34 0 -144 56 -167 85 -27 34 -28 75 -2
123 40 77 130 288 150 353 14 46 31 61 116 106 38 19 95 53 126 74 31 21 67
41 81 44 16 4 33 25 55 70 22 46 43 72 71 91 50 32 87 80 124 158 28 59 28 60
10 85 -11 15 -59 46 -109 71 -174 87 -242 141 -314 247 -28 40 -50 76 -50 80
0 4 -17 23 -39 43 -21 20 -52 58 -68 84 -27 43 -107 119 -135 128 -6 2 -8 10
-4 16 10 16 76 5 148 -24 81 -34 122 -31 204 12 38 20 87 45 109 55 97 46 111
56 138 100 l28 46 -21 59 c-46 128 -52 178 -39 318 6 72 9 172 6 225 -6 79
-10 98 -29 118 -32 34 -75 24 -153 -37 -82 -64 -122 -74 -233 -60 -113 14
-209 35 -231 52 -10 7 -47 33 -82 57 -35 25 -96 70 -134 100 -39 31 -77 61
-86 66 -9 6 -49 32 -90 60 -41 27 -94 59 -119 71 -70 33 -84 55 -91 142 -4 43
-14 115 -23 162 -10 53 -16 142 -16 235 0 160 -15 241 -70 395 -7 19 -22 60
-32 90 -11 30 -37 91 -58 135 -21 44 -50 106 -64 137 -31 68 -81 128 -105 128
-34 0 -47 -24 -92 -170 -45 -145 -123 -228 -289 -308 -166 -79 -264 -87 -321
-26 -13 14 -55 48 -94 75 -38 27 -88 61 -111 77 -22 16 -76 49 -120 72 -43 24
-90 50 -104 59 -34 23 -151 72 -275 116 -51 18 -83 24 -260 45 -160 19 -427
-4 -499 -42 -12 -6 -37 -15 -56 -19 -19 -4 -66 -20 -105 -34 -38 -15 -86 -33
-107 -41 -20 -7 -84 -36 -143 -64 -59 -27 -111 -50 -116 -50 -4 0 -13 17 -19
39 -15 58 -52 70 -139 48 -36 -10 -88 -26 -116 -36 -66 -25 -209 -49 -320 -54
-49 -2 -112 -11 -140 -20 -194 -62 -230 -68 -253 -45 -17 17 -15 104 4 144 9
18 37 50 62 71 26 21 55 48 65 61 11 12 38 32 60 43 51 26 87 58 87 77 0 7
-13 27 -29 43 -29 29 -42 31 -116 22z m35 -48 c0 -2 -32 -26 -72 -52 -93 -62
-231 -199 -295 -295 -52 -79 -105 -202 -117 -273 -7 -39 -6 -39 32 26 44 74
85 131 150 204 47 54 53 47 18 -23 -55 -110 -86 -261 -86 -415 l0 -68 -72 6
c-40 4 -99 2 -130 -3 l-58 -9 -10 36 c-21 73 -24 232 -5 317 54 250 216 405
542 519 110 39 103 37 103 30z m-861 -150 c-26 -244 20 -545 111 -725 17 -33
30 -62 30 -65 0 -12 -63 -3 -115 16 -63 24 -154 101 -190 163 -61 104 -83 230
-61 352 20 117 56 184 149 281 44 46 81 82 83 80 2 -1 -2 -48 -7 -102z m4381
5 c0 -6 31 -79 69 -163 104 -230 122 -299 128 -489 6 -187 -8 -267 -68 -387
-42 -84 -149 -210 -202 -237 -40 -21 -123 -12 -292 31 -170 44 -282 84 -435
156 -124 58 -125 58 -85 23 126 -112 361 -234 619 -319 260 -86 367 -149 477
-278 86 -101 86 -101 39 -10 -48 93 -133 192 -214 248 -31 21 -56 41 -56 45 0
14 116 30 216 30 188 0 281 -44 516 -243 196 -165 388 -239 567 -216 79 9 134
34 200 87 l44 36 -7 -110 c-14 -217 -56 -324 -176 -445 -99 -100 -206 -148
-397 -179 -59 -10 -65 -9 -140 24 -43 19 -108 45 -145 58 -75 25 -86 38 -34
38 89 0 332 95 406 159 l35 30 -70 -28 c-157 -63 -431 -109 -570 -96 -98 9
-213 44 -231 69 -122 177 -221 290 -334 381 -58 46 -144 105 -153 105 -2 0 51
-55 118 -122 238 -239 378 -512 425 -830 15 -101 15 -317 1 -396 -48 -259
-195 -493 -425 -679 -43 -35 -81 -62 -83 -59 -3 3 2 26 10 53 30 94 39 160 44
329 6 194 -3 294 -48 516 -33 162 -70 287 -119 398 -108 247 -238 377 -517
518 -215 109 -344 160 -838 332 -170 59 -390 138 -488 175 -99 36 -181 65
-183 62 -6 -6 225 -108 401 -177 465 -183 626 -250 792 -331 196 -96 387 -216
484 -306 81 -76 181 -202 222 -282 63 -121 72 -161 72 -321 0 -207 -36 -349
-131 -521 -46 -84 -132 -204 -140 -196 -3 2 2 33 11 68 34 147 9 337 -65 478
-38 72 -120 179 -105 136 49 -137 57 -182 57 -310 -1 -98 -6 -149 -21 -209
-27 -102 -86 -235 -140 -315 -41 -61 -180 -215 -187 -208 -2 2 1 30 6 63 18
104 13 290 -9 377 -33 126 -114 258 -239 385 -77 78 -108 100 -242 170 -114
61 -380 184 -380 177 0 -2 28 -25 63 -51 265 -202 407 -325 407 -353 0 -10
-13 -3 -37 20 -21 19 -51 46 -67 59 l-30 25 22 -30 c87 -117 138 -205 120
-205 -21 1 -100 39 -134 65 -18 13 -65 66 -106 117 -72 89 -256 276 -404 409
-109 99 -487 424 -504 434 -8 4 77 -86 190 -201 424 -432 550 -572 660 -736
133 -200 193 -383 194 -595 1 -111 -1 -123 -19 -138 -12 -9 -14 -14 -6 -13 8
2 17 -6 19 -17 4 -18 1 -17 -24 6 -77 71 -208 106 -531 144 -505 58 -807 193
-1085 483 -285 297 -452 671 -451 1007 1 200 78 425 191 557 58 69 132 132
182 158 21 11 41 24 45 30 12 19 -91 -32 -173 -87 -274 -182 -382 -543 -321
-1073 23 -204 53 -362 90 -477 42 -129 87 -239 94 -231 3 3 -7 43 -21 89 -14
46 -28 114 -31 150 -6 71 2 139 17 139 5 0 43 -51 86 -112 43 -62 96 -138 120
-168 23 -31 69 -113 102 -183 75 -158 146 -274 220 -362 60 -71 104 -133 85
-122 -6 4 -13 3 -15 -2 -6 -16 -83 28 -169 98 -46 38 -86 68 -88 66 -5 -6 84
-117 133 -164 25 -24 42 -49 39 -54 -3 -6 -1 -7 4 -4 6 4 16 0 23 -8 10 -12 7
-13 -17 -9 -26 5 -27 4 -9 -9 10 -7 28 -12 40 -10 13 3 29 -4 40 -16 17 -19
17 -21 3 -21 -10 0 -17 5 -17 11 0 6 -7 9 -15 5 -8 -3 -15 0 -15 6 0 7 -5 6
-15 -2 -13 -11 -18 -8 -17 10 0 3 -11 11 -26 18 -19 9 -23 9 -14 0 7 -7 12
-16 12 -20 0 -13 -67 -9 -135 8 -58 15 -69 23 -67 45 1 4 -8 9 -19 12 -20 5
-20 5 -3 -14 16 -17 16 -19 1 -19 -10 0 -17 4 -17 8 0 4 -12 9 -27 10 -16 1
-86 31 -158 66 -315 157 -475 364 -546 708 -18 90 -20 126 -16 278 6 191 18
264 72 427 31 93 126 323 144 348 10 14 31 65 27 65 -8 0 -158 -223 -204 -304
-75 -130 -173 -359 -231 -539 -109 -339 -137 -617 -82 -830 28 -109 94 -254
152 -337 l50 -70 -53 20 c-204 77 -540 345 -709 565 -264 344 -310 684 -150
1102 25 65 27 74 10 54 -53 -64 -159 -294 -159 -345 0 -8 -4 -17 -9 -20 -17
-11 -23 161 -12 309 22 285 89 495 223 700 l39 60 -73 -76 c-150 -156 -265
-422 -288 -672 -12 -127 9 -98 -179 -249 -88 -71 -187 -135 -196 -126 -2 2 22
23 53 48 53 42 140 140 164 185 6 11 -13 -2 -43 -29 -82 -75 -207 -152 -295
-183 -71 -25 -92 -28 -209 -27 -118 0 -136 2 -199 27 -185 73 -318 215 -375
399 -23 77 -41 231 -41 355 0 77 2 84 17 78 96 -37 252 -46 370 -21 237 51
531 200 748 381 128 106 453 436 395 400 -8 -5 -55 -43 -105 -85 -241 -202
-464 -314 -665 -334 l-65 -7 30 22 c78 57 206 203 295 334 244 360 443 478
825 491 83 3 168 2 190 -3 l40 -9 -55 -19 c-68 -22 -160 -68 -220 -108 -50
-34 -180 -156 -180 -169 0 -4 28 13 63 38 125 93 330 177 461 191 l61 6 -52
-47 c-106 -96 -201 -249 -227 -369 -20 -88 -27 -186 -17 -227 l9 -35 1 36 c2
67 41 191 88 283 139 265 460 446 793 446 207 0 417 -96 502 -229 15 -25 28
-48 28 -52 0 -3 -26 -9 -58 -11 -32 -3 -107 -22 -167 -42 -238 -80 -445 -237
-581 -441 -71 -107 -106 -179 -142 -290 -43 -129 -50 -192 -9 -75 56 158 129
284 228 394 198 219 529 368 783 353 135 -8 153 -17 188 -96 17 -36 54 -101
84 -143 30 -43 54 -80 54 -83 0 -3 -8 -5 -17 -5 -62 0 -195 -122 -253 -231
-68 -128 -114 -336 -108 -485 3 -66 3 -67 10 -24 3 25 11 84 17 131 20 159 78
292 170 392 67 72 125 112 197 138 l57 19 61 -58 c106 -98 274 -201 451 -275
62 -26 205 -69 205 -61 0 2 -46 27 -102 55 -209 105 -435 271 -573 422 -96
104 -120 148 -120 222 0 139 101 237 325 311 79 26 97 28 245 28 142 0 173 -3
269 -27 59 -15 153 -45 209 -67 56 -22 103 -38 105 -35 2 2 -47 28 -109 58
-124 60 -285 109 -418 128 -230 32 -468 -38 -615 -182 -38 -38 -72 -66 -75
-64 -10 10 19 130 43 179 118 241 494 404 843 366 57 -6 111 -13 121 -16 9 -2
-3 5 -28 16 -108 51 -332 74 -490 51 -134 -20 -314 -95 -400 -168 -46 -38 -38
-8 21 83 165 253 443 458 767 564 154 50 277 70 432 70 210 0 384 -42 588
-141 96 -46 329 -196 397 -255 l30 -26 -105 5 c-57 3 -98 2 -90 -3 43 -24 155
-51 230 -57 200 -14 399 54 538 182 80 74 135 163 159 257 9 37 21 68 25 68 4
0 8 -5 8 -10z m-2880 -216 c-121 -124 -301 -239 -414 -264 -27 -6 -84 -12
-127 -13 -91 -2 -82 -12 26 -28 129 -20 270 8 414 81 l64 32 -39 -54 c-174
-239 -253 -423 -254 -590 0 -57 0 -58 -29 -58 -24 0 -34 8 -55 44 -75 127
-264 240 -468 277 l-68 12 0 36 c0 52 26 163 49 216 25 56 107 137 171 170 76
38 185 64 315 75 240 20 359 47 428 95 37 26 33 17 -13 -31z m-1392 -76 c14
-14 16 -58 3 -58 -7 0 -31 51 -31 66 0 8 17 3 28 -8z m4527 -801 c4 -70 7
-130 6 -134 0 -6 -141 -23 -141 -17 0 1 15 30 33 65 19 35 44 106 58 156 28
112 34 103 44 -70z m296 -1288 c181 -82 321 -153 377 -191 77 -52 202 -186
281 -301 105 -153 183 -227 300 -284 61 -30 89 -49 80 -53 -25 -14 -156 -30
-241 -30 -96 0 -294 31 -387 60 -35 11 -66 19 -68 17 -2 -3 29 -20 69 -40 150
-74 377 -121 552 -115 l107 3 -33 -27 c-51 -41 -184 -104 -283 -133 -111 -33
-249 -43 -348 -25 -122 22 -277 89 -292 128 -4 9 -25 68 -46 130 -41 117 -107
257 -187 396 -39 68 -47 92 -59 175 -19 140 -48 244 -99 350 -24 51 -44 95
-44 97 0 1 42 -20 93 -47 51 -27 154 -76 228 -110z m966 135 c-3 -20 1 -27 19
-34 28 -11 28 -13 10 -48 -23 -45 -112 -121 -174 -150 -68 -31 -158 -40 -186
-19 -19 14 -14 17 66 56 91 43 174 111 223 180 32 47 50 53 42 15z m-6906
-671 c11 -51 31 -121 45 -155 30 -78 30 -122 0 -301 -32 -188 -40 -329 -27
-451 28 -246 96 -397 236 -524 26 -24 44 -46 40 -50 -3 -4 -12 1 -19 11 -7 9
-18 17 -23 17 -5 0 -18 9 -27 19 -10 11 -25 17 -37 14 -10 -3 -19 -1 -19 5 0
5 -7 13 -16 16 -8 3 -12 2 -9 -4 3 -6 0 -10 -9 -10 -8 0 -13 -8 -12 -17 2 -10
7 -16 12 -14 5 1 8 7 6 12 -1 5 2 9 8 9 10 0 9 -35 -2 -45 -3 -3 -27 18 -52
46 -56 63 -129 207 -154 307 -23 89 -36 105 -26 32 20 -161 92 -350 162 -422
14 -15 23 -31 19 -34 -3 -3 -47 6 -98 20 -180 52 -382 179 -454 287 -55 80
-78 169 -83 310 -4 139 11 244 53 369 14 40 23 75 21 78 -8 8 -76 -137 -106
-225 -35 -105 -48 -92 -30 29 27 186 91 343 207 505 74 105 209 247 298 317
l60 46 8 -52 c4 -29 17 -95 28 -145z m5824 -23 c42 -83 115 -278 140 -377 62
-244 70 -505 19 -703 -28 -113 -91 -251 -136 -303 -18 -20 -24 -23 -16 -9 11
19 11 24 -2 32 -13 8 -13 10 2 10 11 0 15 5 12 15 -5 12 -10 13 -20 4 -9 -7
-14 -8 -14 -1 0 15 -113 2 -123 -14 -8 -14 -37 -8 -49 10 -5 7 -8 7 -8 -1 0
-15 -36 -17 -45 -3 -3 6 -13 10 -21 10 -8 0 -12 -4 -9 -10 3 -5 2 -10 -4 -10
-5 0 -13 5 -16 10 -10 16 -25 12 -26 -7 -1 -17 -2 -17 -6 0 -9 35 -30 16 -49
-45 -10 -35 -18 -69 -18 -75 1 -7 -3 -13 -8 -13 -6 0 -8 10 -5 23 37 150 43
402 14 532 -10 44 -23 97 -29 118 -11 37 -11 37 51 101 181 182 287 425 308
700 7 99 10 99 58 6z m-6880 -20 c40 -44 -10 -99 -79 -86 -31 6 -36 11 -36 34
0 33 8 44 40 59 37 17 55 15 75 -7z m337 -159 c18 -20 28 -42 28 -62 0 -38
-16 -69 -36 -69 -9 0 -12 5 -8 12 5 7 2 9 -9 5 -10 -4 -14 -2 -11 6 3 8 -12
13 -48 14 -29 1 -90 3 -135 5 -44 2 -79 0 -76 -4 7 -12 -14 -9 -53 7 -20 8
-34 20 -32 26 4 11 63 36 188 80 36 12 74 18 109 16 46 -3 59 -9 83 -36z
m1832 -53 c19 -174 19 -190 1 -274 -16 -77 -35 -119 -35 -79 0 9 -4 14 -8 11
-5 -3 -16 6 -26 19 -10 14 -22 22 -27 20 -12 -8 -22 16 -11 27 6 6 8 25 5 42
-7 43 67 296 87 296 4 0 10 -28 14 -62z m-1884 -98 c0 -5 -5 -10 -11 -10 -5 0
-7 5 -4 10 3 6 8 10 11 10 2 0 4 -4 4 -10z m-50 -89 c74 -2 96 -66 115 -326
13 -186 27 -250 80 -377 8 -19 -33 -43 -125 -73 -81 -27 -227 -25 -300 3 -112
44 -224 152 -288 277 -24 49 -95 245 -90 251 2 1 32 -20 68 -47 36 -27 103
-68 150 -92 81 -40 89 -42 175 -42 76 0 98 4 138 24 48 25 95 65 52 45 -11 -5
-58 -9 -105 -9 -64 0 -99 6 -145 23 -72 27 -118 61 -95 69 41 15 127 124 170
214 l44 94 65 -17 c36 -9 77 -17 91 -17z m4663 2 c75 -47 128 -96 173 -159 24
-34 44 -65 44 -70 0 -5 -54 -9 -120 -10 -66 -1 -120 0 -120 2 0 12 -33 152
-49 207 l-20 69 25 -6 c14 -4 44 -19 67 -33z m1222 -33 c-4 -17 -9 -30 -11
-27 -2 2 -1 18 2 36 4 17 9 30 11 27 3 -2 2 -19 -2 -36z m-161 -147 c-9 -58
-17 -68 -43 -54 -17 9 -29 7 -63 -10 -48 -24 -43 -17 46 60 33 28 61 49 63 47
2 -2 1 -21 -3 -43z m1296 -28 c153 -65 170 -74 190 -107 32 -54 36 -131 12
-228 -30 -116 -40 -122 -44 -27 0 17 -4 24 -8 17 -5 -9 -9 -9 -14 -1 -4 6 -13
11 -19 11 -7 0 -6 -4 3 -10 13 -8 12 -10 -2 -10 -10 0 -18 5 -18 11 0 5 -4 8
-9 5 -5 -4 -11 0 -14 6 -3 9 -10 7 -21 -7 -8 -11 -16 -15 -16 -9 0 6 -6 11
-12 12 -32 2 -50 9 -57 21 -10 15 -21 -18 -21 -61 0 -20 -4 -26 -15 -22 -12 5
-15 28 -15 123 0 64 -7 157 -15 206 -18 110 -18 118 -2 112 6 -3 50 -22 97
-42z m593 30 c-10 -29 -219 -155 -255 -155 -8 0 -22 18 -31 40 -15 39 -15 40
6 44 102 21 242 63 284 85 1 0 0 -6 -4 -14z m-5540 -47 c8 -18 27 -52 42 -75
l25 -42 -52 -16 c-29 -9 -59 -19 -65 -21 -9 -4 -13 3 -13 21 0 37 30 165 39
165 4 0 15 -15 24 -32z m1049 -81 c-16 -18 -17 -18 -23 5 -4 12 -7 19 -8 15
-1 -5 -6 -5 -11 -2 -8 5 -7 11 1 21 9 11 15 11 34 -4 22 -16 22 -18 7 -35z
m2649 10 c-10 -9 -11 -8 -5 6 3 10 9 15 12 12 3 -3 0 -11 -7 -18z m-8 -37 c3
-11 1 -18 -3 -15 -5 3 -10 -1 -13 -7 -2 -7 -4 1 -3 19 1 34 10 35 19 3z m-324
-55 c32 -37 55 -98 49 -132 -3 -21 -9 -18 -91 35 l-87 56 37 38 c20 21 42 38
49 38 7 0 26 -16 43 -35z m-2118 -12 c14 -17 16 -22 5 -13 -11 8 -22 14 -25
14 -3 -1 -15 5 -26 12 -19 14 -19 14 1 14 11 0 31 -12 45 -27z m1349 -67 c-7
-7 -10 6 -9 40 l1 49 9 -39 c6 -26 6 -43 -1 -50z m-1460 55 c0 -5 8 -11 18
-13 11 -2 13 -6 6 -10 -6 -4 -19 1 -29 12 -10 12 -13 20 -7 20 7 0 12 -4 12
-9z m425 -41 c105 -29 346 -71 485 -85 107 -11 104 -6 55 -93 -24 -42 -42 -78
-40 -80 2 -2 27 16 57 40 29 24 81 56 115 71 l62 28 43 -22 c55 -27 104 -74
131 -124 18 -33 22 -56 21 -133 0 -102 4 -101 42 9 24 69 54 232 54 295 0 31
1 31 61 38 34 3 95 6 136 6 l75 0 -7 -52 c-10 -81 -34 -169 -55 -205 -11 -18
-15 -33 -10 -33 5 0 42 26 82 58 40 32 116 90 168 129 l96 71 64 -13 c70 -15
130 -35 185 -61 31 -14 34 -19 28 -47 -3 -18 -12 -47 -19 -65 -13 -32 -13 -32
9 -21 12 7 39 23 59 36 21 12 43 23 49 23 17 0 98 -63 99 -76 0 -7 9 -14 19
-17 12 -3 18 0 15 7 -2 6 18 33 45 60 l50 49 15 -54 c75 -257 106 -609 82
-921 l-9 -118 -56 0 c-31 0 -65 -3 -77 -6 -17 -5 -32 11 -90 92 -137 193 -253
284 -446 350 -104 35 -204 47 -336 41 -190 -9 -347 -62 -515 -175 -103 -70
-105 -80 -5 -27 86 45 253 108 272 102 5 -2 -16 -18 -48 -36 -74 -43 -188
-134 -248 -199 -48 -51 -128 -167 -128 -184 0 -6 21 6 48 25 90 66 139 96 254
156 133 70 205 97 302 112 190 30 453 -71 673 -258 81 -69 85 -78 69 -162 -8
-39 -11 -71 -8 -71 9 0 74 52 125 99 43 40 80 58 200 98 15 5 17 -3 18 -78 0
-71 2 -80 12 -59 6 14 26 58 44 98 18 41 36 71 41 68 10 -6 5 -43 -49 -375
-103 -623 -253 -1278 -329 -1437 -41 -86 -115 -166 -247 -267 -257 -197 -1138
-610 -1513 -709 -302 -79 -929 79 -1535 387 -301 153 -474 265 -608 394 -130
124 -147 160 -242 491 -44 153 -153 601 -194 795 -16 77 -61 397 -61 435 0 4
29 1 65 -5 49 -10 85 -26 151 -69 48 -31 90 -56 94 -56 4 0 -2 32 -13 70 -17
59 -18 74 -7 94 39 74 205 222 330 295 111 66 200 93 321 99 95 4 118 1 199
-22 124 -36 275 -99 361 -152 40 -25 73 -43 75 -41 7 7 -59 92 -113 144 -71
70 -170 139 -272 190 -58 29 -77 43 -61 43 35 0 197 -45 271 -75 81 -32 85
-31 24 7 -229 144 -538 179 -798 89 -115 -40 -199 -92 -284 -177 l-81 -81 -7
36 c-12 71 -57 190 -93 250 -39 65 -138 171 -184 199 -16 9 -28 19 -28 22 0 3
32 16 72 30 90 31 171 82 226 145 39 44 51 73 20 47 -47 -38 -150 -34 -200 8
l-23 20 64 61 c40 37 95 75 146 100 l80 40 69 -45 c199 -131 444 -207 655
-205 l86 1 -45 12 c-98 27 -197 95 -240 163 -32 50 -76 171 -66 181 12 11 150
32 262 38 l110 7 88 -53 c146 -88 382 -174 550 -202 108 -18 336 -14 430 6 82
18 204 60 220 76 5 5 -10 13 -35 20 -108 29 -291 143 -379 236 l-35 37 64 -43
c128 -85 327 -164 490 -195 94 -17 311 -21 311 -5 0 6 -13 10 -28 10 -43 0
-176 36 -245 67 -115 50 -288 165 -301 199 -7 18 -9 19 119 -16z m2519 -2 c11
-44 5 -65 -9 -28 -17 43 -17 50 -6 50 5 0 11 -10 15 -22z m-4755 -305 c-41
-43 -88 -99 -104 -125 -17 -27 -34 -46 -40 -45 -59 20 -73 268 -25 439 l11 37
116 -114 116 -114 -74 -78z m4352 132 l-50 -107 -45 39 c-45 38 -45 38 -23 53
12 8 53 43 92 77 38 34 71 58 73 53 2 -5 -19 -56 -47 -115z m241 85 c-12 -11
-25 -20 -29 -20 -9 1 36 40 45 40 3 0 -4 -9 -16 -20z m-5649 -412 c7 -18 31
-70 54 -116 36 -70 46 -112 26 -112 -8 0 -63 62 -63 71 0 4 -7 6 -15 3 -8 -4
-15 -12 -15 -20 0 -17 17 -18 23 -1 3 6 6 2 6 -10 1 -25 -6 -28 -29 -13 -19
12 -29 230 -10 230 6 0 17 -15 23 -32z m667 -88 c0 -5 -5 -10 -11 -10 -5 0 -7
5 -4 10 3 6 8 10 11 10 2 0 4 -4 4 -10z m157 -26 c-3 -3 -12 -4 -19 -1 -8 3
-5 6 6 6 11 1 17 -2 13 -5z m-707 -115 c0 -5 -4 -9 -10 -9 -5 0 -10 7 -10 16
0 8 5 12 10 9 6 -3 10 -10 10 -16z m-60 -9 c0 -5 -5 -10 -11 -10 -5 0 -7 5 -4
10 3 6 8 10 11 10 2 0 4 -4 4 -10z m175 -148 c-3 -4 -15 -1 -25 6 -27 16 -28
16 -22 -13 5 -28 -18 -69 -48 -85 -47 -25 -90 42 -63 99 14 28 37 38 76 32 11
-2 9 27 -4 52 -6 12 12 -2 41 -32 28 -29 48 -56 45 -59z m44 -25 c6 -8 8 -17
4 -20 -7 -8 -33 11 -33 24 0 13 16 11 29 -4z m5856 -47 c-3 -5 -12 -10 -18
-10 -7 0 -6 4 3 10 19 12 23 12 15 0z m-6130 -109 c-3 -5 -1 -12 5 -16 12 -7
4 -25 -11 -25 -5 0 -9 8 -7 18 2 12 -3 16 -17 14 -16 -2 -17 -1 -5 7 19 13 43
14 35 2z m-55 -46 c19 -22 8 -25 -12 -3 -10 10 -14 18 -9 18 5 0 14 -7 21 -15z
m20 -54 c0 -11 -4 -22 -9 -25 -5 -3 -8 6 -8 19 0 14 3 25 8 25 5 0 9 -9 9 -19z
m1060 -109 c63 -45 63 -45 14 -132 -24 -43 -44 -83 -44 -90 0 -6 -4 -9 -9 -6
-4 3 -11 54 -15 113 -4 59 -9 118 -13 131 -4 18 -2 21 13 16 11 -4 35 -18 54
-32z m-95 -127 c19 -38 37 -82 41 -96 5 -26 4 -27 -46 -34 -28 -4 -53 -5 -55
-3 -5 5 -35 213 -35 242 0 35 57 -30 95 -109z m5348 -104 c18 -64 22 -101 22
-231 0 -153 0 -156 -31 -220 -39 -82 -121 -192 -261 -351 -241 -273 -353 -341
-425 -260 -15 17 -32 31 -38 31 -14 0 -13 13 14 205 14 94 32 235 41 315 17
153 18 155 100 264 17 23 18 23 33 -29 6 -22 26 -62 44 -90 l33 -50 5 100 c5
76 12 112 29 148 27 56 88 103 120 92 43 -13 74 -115 87 -278 4 -48 9 -85 12
-82 12 11 31 157 31 236 1 92 -18 176 -50 221 l-19 26 92 65 93 65 23 -50 c13
-28 33 -85 45 -127z m-5765 8 c169 -144 238 -230 323 -405 61 -122 61 -123 79
-276 10 -84 33 -231 51 -325 18 -95 30 -175 26 -179 -3 -3 -41 -13 -84 -21
-129 -24 -169 -4 -352 178 -207 206 -331 349 -365 419 -27 58 -31 77 -34 175
-5 144 21 265 82 390 41 83 102 165 124 165 5 0 72 -54 150 -121z m287 -100
c10 -31 0 -33 -19 -4 -14 21 -14 25 -2 25 8 0 18 -9 21 -21z m1656 -2520 c75
-57 386 -207 554 -267 272 -98 364 -111 477 -68 102 38 462 224 665 343 l45
26 -6 -49 c-12 -102 -46 -406 -65 -589 -17 -155 -24 -192 -38 -203 -40 -30
-281 -162 -462 -254 -222 -112 -227 -113 -367 -72 -117 33 -270 101 -539 238
-219 112 -515 274 -515 283 0 5 46 25 137 59 l62 23 27 -82 c15 -45 33 -95 41
-112 13 -28 13 -25 8 40 -8 96 -74 659 -82 696 -3 16 -4 29 -1 29 2 0 29 -18
59 -41z m2777 -595 c87 -30 122 -50 122 -70 0 -25 -20 -25 -95 0 -40 14 -91
28 -112 32 -52 9 -54 11 -41 39 14 32 31 31 126 -1z m-973 -40 c31 -15 53 -30
48 -34 -14 -13 -183 -120 -190 -120 -3 0 -1 6 4 13 6 6 23 47 38 90 15 42 31
77 35 77 4 0 33 -12 65 -26z"/>
<path d="M6375 8925 c126 -59 217 -77 425 -82 115 -3 213 -1 260 6 82 13 233
51 227 58 -2 2 -57 -3 -121 -12 -235 -30 -564 -10 -786 50 -82 22 -83 17 -5
-20z"/>
<path d="M2555 7966 c-77 -79 -237 -237 -355 -351 -118 -115 -206 -203 -195
-197 33 18 178 137 273 225 173 160 453 467 425 467 -4 0 -71 -65 -148 -144z"/>
<path d="M4420 5560 c-12 -8 -10 -10 8 -10 13 0 20 4 17 10 -7 12 -6 12 -25 0z"/>
<path d="M4480 5561 c0 -5 7 -11 14 -14 10 -4 13 -1 9 9 -6 15 -23 19 -23 5z"/>
<path d="M4490 5520 c-12 -7 -10 -9 7 -7 12 0 19 5 17 9 -6 10 -6 10 -24 -2z"/>
<path d="M6158 5080 c-78 -13 -160 -40 -221 -72 -66 -36 -166 -138 -214 -219
-53 -89 -50 -97 13 -34 167 169 434 297 649 313 56 4 73 8 55 13 -33 9 -223 9
-282 -1z"/>
<path d="M3617 4980 c-65 -12 -51 -17 70 -23 75 -3 145 -13 193 -27 145 -41
327 -141 427 -233 24 -22 43 -36 43 -32 0 17 -92 134 -147 186 -111 106 -212
139 -418 138 -71 -1 -147 -5 -168 -9z"/>
<path d="M6625 3911 c-78 -31 -175 -80 -160 -81 12 0 227 91 240 102 16 14 -8
8 -80 -21z"/>
<path d="M4930 3863 c-52 -51 -60 -65 -60 -97 0 -49 23 -82 84 -117 72 -41 78
-39 56 24 -26 73 -33 144 -21 197 5 24 8 46 5 49 -2 2 -31 -23 -64 -56z"/>
<path d="M6367 3895 c-20 -14 -37 -28 -37 -31 0 -2 18 8 40 22 35 23 47 34 37
34 -1 0 -19 -11 -40 -25z"/>
<path d="M6835 3874 c-98 -35 -126 -46 -121 -51 5 -5 196 56 196 63 0 8 -35 2
-75 -12z"/>
<path d="M3552 3791 c-73 -37 -138 -74 -145 -80 -7 -7 57 21 141 63 137 69
168 87 145 86 -5 -1 -68 -31 -141 -69z"/>
<path d="M3435 3834 c-59 -22 -246 -116 -241 -122 5 -5 264 114 281 129 12 11
9 11 -40 -7z"/>
<path d="M5160 3404 c-453 -24 -950 -122 -1045 -205 -49 -43 -62 -94 -46 -172
43 -207 235 -468 446 -606 402 -262 840 -250 1211 35 233 178 414 477 430 709
6 78 -11 124 -56 156 -27 19 -207 52 -375 68 -113 11 -466 20 -565 15z m345
-64 c178 -10 486 -38 494 -46 10 -10 -26 -68 -64 -103 -47 -43 -66 -49 -270
-76 -476 -64 -880 -86 -1190 -66 -182 12 -191 13 -223 39 -19 15 -41 40 -50
55 -21 35 -17 38 93 71 189 57 521 110 785 125 196 12 226 12 425 1z m-46
-450 c46 -11 121 -38 166 -59 86 -40 205 -116 205 -130 0 -16 -146 -147 -215
-192 -172 -114 -298 -159 -467 -166 -161 -8 -299 23 -453 99 -86 43 -225 137
-225 152 0 23 127 134 208 181 107 63 202 100 313 124 123 27 340 23 468 -9z"/>
<path d="M1957 4873 c-4 -3 -7 -13 -7 -21 0 -12 3 -12 15 -2 8 7 15 16 15 21
0 11 -14 12 -23 2z"/>
<path d="M1995 4850 c-6 -18 -17 -25 -38 -21 -5 1 -7 -4 -5 -11 12 -34 68 -7
68 33 0 25 -17 25 -25 -1z"/>
<path d="M7694 3788 c4 -15 9 -56 13 -90 7 -70 21 -56 22 23 1 34 -5 53 -20
70 l-20 24 5 -27z"/>
<path d="M7735 3545 c-155 -62 -203 -86 -210 -102 -13 -36 28 -43 91 -17 54
23 262 165 238 163 -5 0 -58 -20 -119 -44z"/>
<path d="M2260 4218 c-70 -36 -99 -209 -66 -390 10 -51 23 -106 30 -123 12
-29 13 -26 19 47 4 43 14 111 23 150 27 120 58 168 109 168 44 0 82 -43 94
-105 9 -50 0 -150 -19 -199 l-10 -27 40 32 c121 98 129 197 25 338 -69 93
-180 143 -245 109z"/>
<path d="M2552 3738 c-46 -57 -34 -221 20 -265 11 -9 13 15 13 133 0 142 -6
165 -33 132z"/>
<path d="M2438 3358 c24 -30 175 -99 229 -105 65 -7 110 15 93 47 -13 24 -22
27 -165 45 -66 9 -131 19 -145 22 -22 6 -23 4 -12 -9z"/>
<path d="M9687 767 c-3 -9 -2 -17 3 -17 5 0 16 -16 26 -35 9 -19 33 -50 54
-69 21 -19 35 -37 32 -41 -4 -4 -2 -5 3 -4 11 4 105 -33 105 -41 0 -3 -25 -16
-56 -29 -63 -27 -123 -90 -151 -156 -10 -25 -22 -45 -26 -45 -5 0 -7 6 -5 12
3 7 -2 19 -9 27 -11 11 -12 16 -2 21 6 4 8 13 5 19 -11 17 8 43 45 60 35 17
46 41 48 103 1 33 -3 40 -31 54 -18 9 -41 23 -50 32 -15 12 -20 13 -33 2 -14
-12 -10 -19 32 -62 26 -26 42 -48 36 -48 -7 0 -30 18 -52 40 -22 22 -44 40
-49 40 -5 0 -32 -22 -60 -48 -49 -47 -72 -55 -72 -25 0 12 -2 12 -16 -1 -20
-21 -14 -28 55 -70 50 -31 64 -46 95 -106 56 -106 77 -110 132 -22 47 75 79
108 134 140 73 42 76 54 19 83 -43 21 -148 120 -185 173 -17 25 -21 27 -27 13z
m-137 -242 c0 -8 5 -15 12 -15 6 0 9 -3 6 -6 -7 -7 -48 18 -48 28 0 5 7 8 15
8 8 0 15 -7 15 -15z m54 -51 c5 -14 4 -15 -9 -4 -17 14 -19 20 -6 20 5 0 12
-7 15 -16z m46 -59 c0 -8 -2 -15 -4 -15 -2 0 -6 7 -10 15 -3 8 -1 15 4 15 6 0
10 -7 10 -15z"/>
<path d="M9573 664 c-46 -46 -83 -85 -83 -89 0 -3 7 1 16 9 8 9 19 14 23 11 4
-2 28 16 54 40 25 25 43 45 39 45 -4 0 2 7 12 15 11 8 16 15 11 15 -5 0 -1 6
10 13 10 8 14 16 9 18 -5 3 -46 -32 -91 -77z"/>
<path d="M9815 580 c3 -5 8 -10 11 -10 2 0 4 5 4 10 0 6 -5 10 -11 10 -5 0 -7
-4 -4 -10z"/>
</g>
</svg>
