<?xml version="1.0" standalone="no"?>
<!DOCTYPE svg PUBLIC "-//W3C//DTD SVG 20010904//EN"
 "http://www.w3.org/TR/2001/REC-SVG-20010904/DTD/svg10.dtd">
<svg version="1.0" xmlns="http://www.w3.org/2000/svg"
 width="1024.000000pt" height="1024.000000pt" viewBox="0 0 1024.000000 1024.000000"
 preserveAspectRatio="xMidYMid meet">

<g transform="translate(0.000000,1024.000000) scale(0.100000,-0.100000)"
fill="#000000" stroke="none">
<path d="M4125 9760 c-213 -42 -354 -123 -500 -285 -143 -159 -133 -151 -156
-129 -29 29 -41 115 -34 235 7 104 7 106 -20 137 -16 20 -36 32 -51 32 -92 0
-224 -161 -291 -355 -54 -154 -53 -329 2 -442 15 -30 56 -84 91 -120 64 -66
81 -103 47 -103 -10 0 -49 15 -88 32 -69 31 -73 32 -251 36 -164 3 -186 2
-225 -16 -24 -11 -67 -22 -95 -26 -186 -23 -436 -217 -614 -476 -81 -118 -121
-164 -225 -261 -75 -69 -139 -162 -132 -192 3 -12 11 -36 18 -53 15 -39 7 -50
-69 -88 -126 -64 -181 -79 -287 -79 -66 -1 -118 5 -154 16 -88 27 -124 23
-160 -18 l-31 -36 0 -166 c0 -226 22 -342 98 -514 13 -29 42 -64 76 -94 63
-53 71 -70 58 -118 -14 -50 -5 -57 67 -55 67 2 91 -12 91 -53 0 -32 -26 -42
-94 -34 l-64 6 -7 -39 c-11 -66 12 -161 51 -211 19 -24 34 -50 34 -58 0 -29
-50 -111 -89 -146 -57 -52 -108 -50 -135 4 -15 31 -45 35 -101 13 -50 -19 -97
-79 -116 -146 -9 -33 -7 -44 11 -72 11 -19 29 -60 40 -91 11 -31 28 -71 39
-89 11 -17 23 -48 27 -70 3 -21 28 -82 55 -135 52 -105 86 -140 201 -209 62
-37 64 -37 186 -41 114 -3 132 -1 244 30 155 42 150 48 146 -146 l-2 -140 37
-75 c20 -41 37 -85 37 -97 0 -22 -42 -63 -65 -63 -21 0 -105 -51 -115 -70 -6
-10 -10 -41 -10 -68 0 -41 7 -60 40 -110 25 -37 57 -70 83 -85 50 -30 237
-208 237 -227 0 -26 -22 -147 -41 -221 -27 -107 -25 -222 6 -328 32 -109 64
-156 182 -271 221 -215 261 -258 292 -313 60 -106 149 -147 321 -148 58 -1
113 -3 122 -6 20 -5 50 -81 68 -168 20 -106 60 -224 90 -272 17 -26 30 -53 30
-60 0 -20 129 -121 200 -156 36 -17 83 -44 105 -60 117 -81 155 -106 205 -131
30 -16 67 -37 82 -47 14 -11 32 -19 39 -19 19 0 172 -76 224 -111 24 -16 61
-50 82 -75 20 -25 50 -52 66 -61 32 -16 77 -60 77 -74 0 -15 -105 -10 -126 6
-10 8 -35 19 -55 25 -27 7 -40 19 -49 41 -17 39 -45 57 -101 65 -39 5 -49 3
-78 -22 -30 -25 -32 -29 -15 -35 11 -4 42 -8 71 -8 40 -1 58 -7 83 -27 49 -42
38 -63 -46 -93 l-71 -25 -62 28 c-65 29 -85 28 -132 -5 -14 -10 -38 -21 -55
-24 -75 -17 -172 -51 -200 -71 -27 -20 -32 -31 -43 -101 -14 -91 -28 -144 -52
-193 -9 -19 -22 -75 -29 -125 -11 -79 -17 -94 -44 -121 -21 -21 -55 -39 -99
-52 -37 -11 -112 -47 -166 -81 -55 -34 -104 -61 -109 -61 -6 0 -23 -7 -39 -15
-52 -27 -142 -65 -152 -65 -6 0 -28 -9 -48 -20 -21 -11 -47 -20 -58 -20 -11 0
-29 -6 -40 -14 -11 -7 -31 -17 -45 -20 -28 -8 -119 -42 -165 -61 -16 -7 -55
-23 -85 -35 -30 -12 -73 -30 -95 -41 -22 -10 -76 -32 -120 -48 -44 -15 -100
-40 -125 -55 -25 -14 -56 -31 -70 -38 -14 -6 -49 -22 -78 -36 -95 -45 -115
-74 -141 -212 -23 -122 -23 -120 3 -120 19 0 25 6 29 33 7 44 41 157 54 182
14 25 484 234 918 407 147 59 542 223 621 258 38 17 70 27 72 22 1 -4 40 -65
86 -135 193 -292 432 -561 576 -650 24 -15 5 10 -63 83 -173 182 -366 458
-488 698 -64 125 -76 164 -60 205 15 39 30 31 51 -31 19 -55 75 -142 190 -297
91 -123 220 -288 220 -280 0 3 -18 42 -41 86 -44 88 -47 122 -12 127 37 5 201
-56 342 -129 74 -38 136 -67 138 -65 3 2 -33 36 -79 76 -92 80 -298 222 -428
295 -158 89 -207 124 -225 161 -19 40 -60 222 -70 309 l-7 60 34 -32 c100 -95
710 -462 1102 -664 290 -149 742 -339 806 -339 73 0 508 221 765 387 238 155
557 394 617 462 31 34 56 34 134 1 58 -25 72 -62 49 -132 -65 -197 -182 -349
-453 -588 -72 -63 -129 -116 -127 -118 9 -10 280 152 565 338 257 168 306 197
315 188 3 -3 -23 -44 -58 -89 -126 -165 -271 -396 -340 -544 l-27 -60 37 40
c21 22 124 141 228 265 105 123 204 239 220 256 l30 33 155 -60 c85 -33 286
-107 445 -165 160 -58 337 -123 395 -144 152 -56 468 -179 515 -201 22 -11 47
-32 56 -48 11 -19 40 -39 85 -61 75 -35 144 -93 144 -122 0 -14 8 -18 41 -18
37 0 40 2 33 23 -19 62 -88 138 -159 174 -16 9 -49 33 -71 53 -50 46 -230 134
-424 209 -31 11 -61 21 -68 21 -7 0 -30 9 -50 19 -20 10 -77 32 -127 49 -141
47 -158 53 -190 70 -16 8 -43 22 -60 30 -16 8 -46 27 -65 42 -48 35 -84 50
-126 50 -58 0 -131 26 -264 94 -127 64 -142 79 -155 139 -12 57 -65 96 -260
189 -82 39 -181 137 -260 256 -68 104 -116 132 -241 141 -77 6 -97 12 -135 37
-34 23 -47 40 -58 74 -7 25 -24 73 -37 108 -34 88 -21 109 111 178 84 43 144
78 206 119 25 16 65 41 88 55 23 14 64 41 89 60 26 20 79 57 118 83 84 56 214
187 270 272 61 91 93 173 132 330 12 49 56 153 70 167 6 6 41 12 77 14 46 2
80 11 118 29 55 28 201 165 442 416 132 137 148 161 220 322 19 44 23 193 11
377 l-8 115 36 41 c23 27 55 49 93 64 32 13 69 31 83 40 14 9 49 29 78 43 104
52 292 212 292 249 0 8 25 56 57 108 85 144 114 256 77 308 -8 12 -23 22 -32
22 -35 0 -160 43 -187 64 -44 35 -39 67 33 211 18 38 98 225 120 284 11 28 28
49 47 60 87 48 173 102 185 116 8 9 30 25 50 35 22 11 50 39 68 67 32 50 73
91 133 135 26 20 42 43 58 88 13 34 20 72 17 83 -8 35 -75 92 -154 134 -41 21
-84 44 -98 51 -42 23 -138 125 -174 186 -19 33 -57 82 -83 110 -27 28 -58 69
-69 91 -11 22 -31 53 -44 68 -42 50 -3 65 60 22 52 -35 88 -32 191 21 50 25
120 61 156 79 68 35 129 95 129 127 0 10 -9 41 -20 70 -44 112 -52 182 -39
324 15 167 5 315 -22 340 -29 26 -86 11 -171 -45 -100 -67 -137 -77 -235 -63
-173 25 -250 66 -506 267 -106 83 -116 90 -207 137 -64 33 -104 73 -97 98 7
25 -8 134 -28 210 -13 47 -18 113 -20 240 -1 96 -7 195 -13 220 -5 25 -15 69
-21 99 -11 55 -57 169 -137 340 -25 53 -50 107 -57 121 -6 14 -22 42 -35 63
-20 33 -27 38 -55 35 -27 -3 -36 -10 -56 -53 -27 -55 -34 -71 -53 -130 -23
-71 -75 -149 -129 -195 -105 -88 -328 -180 -404 -166 -20 4 -53 22 -73 40 -61
55 -263 197 -317 223 -27 13 -61 31 -75 39 -14 8 -41 22 -60 30 -19 9 -52 25
-72 35 -20 10 -45 19 -55 19 -10 0 -31 9 -48 20 -16 11 -39 20 -49 20 -10 0
-44 9 -75 19 -31 11 -127 27 -214 37 -192 21 -347 15 -434 -16 -32 -12 -85
-29 -118 -39 -33 -10 -85 -28 -115 -41 -30 -12 -73 -29 -95 -37 -22 -8 -71
-29 -110 -47 -136 -63 -155 -67 -155 -27 0 25 -30 49 -69 57 -33 7 -143 -17
-192 -42 -31 -15 -182 -41 -322 -55 -55 -5 -103 -11 -107 -14 -4 -3 -43 -12
-85 -20 -43 -8 -83 -19 -89 -24 -23 -19 -90 -23 -111 -7 -20 14 -20 15 -2 82
21 81 41 105 146 173 42 27 90 64 108 82 34 35 55 80 44 96 -19 29 -119 40
-206 23z m60 -58 c-6 -5 -41 -31 -80 -58 -92 -64 -221 -195 -280 -284 -50 -76
-99 -188 -110 -255 -7 -39 -5 -37 45 40 50 75 171 228 177 222 1 -2 -13 -39
-32 -83 -52 -121 -66 -186 -72 -331 l-6 -133 -102 0 c-56 0 -116 -3 -133 -6
-30 -6 -30 -5 -42 51 -17 82 -14 250 5 326 44 169 159 310 330 401 100 54 333
139 300 110z m-850 -269 c0 -299 21 -415 106 -585 21 -43 35 -79 31 -82 -14
-8 -102 14 -149 38 -100 50 -190 181 -214 311 -21 114 5 269 63 364 16 26 155
181 162 181 1 0 1 -102 1 -227z m4476 -90 c138 -311 144 -630 15 -850 -41 -71
-107 -146 -160 -185 -46 -33 -84 -35 -207 -12 -182 33 -388 104 -582 200 l-92
45 40 -37 c125 -113 344 -226 614 -319 105 -36 220 -79 254 -96 102 -52 205
-140 285 -244 32 -41 21 -7 -24 73 -43 76 -135 176 -209 228 -31 20 -52 41
-48 45 5 4 43 12 86 18 167 23 272 9 397 -54 67 -34 98 -56 250 -185 145 -122
271 -187 411 -210 135 -23 243 0 337 72 l55 41 -6 -119 c-10 -190 -52 -302
-156 -415 -94 -102 -214 -161 -391 -190 l-76 -12 -129 50 c-72 28 -141 54
-154 58 -31 9 -9 25 34 25 84 0 321 95 390 155 21 19 24 24 10 19 -216 -81
-348 -108 -540 -108 -130 -1 -160 2 -222 22 l-72 23 -63 91 c-103 151 -264
308 -403 394 -16 10 13 -24 65 -76 143 -142 223 -253 310 -429 95 -191 138
-358 147 -571 13 -281 -56 -503 -222 -715 -67 -86 -181 -198 -257 -252 l-46
-33 23 88 c62 239 58 490 -15 835 -69 328 -171 549 -322 693 -159 153 -422
283 -958 474 -96 34 -202 71 -235 82 -78 26 -504 180 -574 207 -29 12 -55 20
-58 18 -8 -8 256 -121 637 -272 688 -273 942 -417 1143 -650 87 -101 142 -193
174 -292 20 -64 24 -98 24 -198 1 -198 -34 -345 -118 -506 -46 -88 -141 -224
-150 -215 -3 3 -1 25 6 49 51 203 -6 448 -143 613 -15 19 -30 33 -32 31 -2 -2
4 -24 15 -48 59 -134 66 -356 16 -523 -46 -156 -136 -315 -239 -421 -69 -70
-80 -71 -69 -2 4 28 8 115 7 192 -1 125 -4 149 -28 220 -41 120 -105 215 -225
335 -87 86 -126 116 -216 167 -110 62 -395 197 -402 190 -2 -2 40 -37 94 -77
222 -166 373 -300 373 -329 0 -9 -19 3 -47 30 -86 81 -99 87 -51 24 25 -33 60
-87 78 -119 l34 -59 -31 6 c-65 13 -127 62 -213 168 -106 130 -236 260 -460
459 -233 207 -447 390 -456 390 -4 0 100 -109 232 -242 507 -514 660 -704 742
-921 55 -148 73 -254 69 -420 -2 -90 -6 -134 -11 -120 -5 13 -12 21 -16 18
-12 -8 -33 23 -24 36 4 8 3 9 -4 5 -7 -4 -46 4 -87 18 -88 30 -198 51 -340 66
-329 34 -583 100 -779 199 -126 64 -212 127 -330 241 -330 318 -524 742 -503
1100 9 161 70 354 148 466 48 70 137 156 208 199 34 21 59 40 57 43 -3 2 -33
-10 -67 -28 -400 -203 -517 -619 -387 -1385 11 -66 35 -169 55 -228 35 -111
90 -243 98 -236 2 2 -10 49 -26 104 -20 66 -31 124 -32 170 -1 69 8 115 21
115 4 0 20 -21 37 -48 16 -26 70 -103 120 -172 56 -78 115 -178 158 -265 82
-167 171 -305 260 -401 44 -47 63 -75 57 -83 -14 -24 -101 29 -259 158 l-45
36 20 -34 c10 -19 57 -74 103 -123 61 -64 81 -92 72 -98 -9 -5 -10 -10 -3 -14
6 -3 13 -2 17 3 6 11 35 3 35 -9 0 -14 -46 -5 -74 13 -19 13 -26 14 -26 5 0
-8 -3 -9 -8 -3 -4 6 -19 11 -34 12 l-28 1 23 -20 22 -19 -53 6 c-55 6 -212 56
-297 95 -86 38 -207 116 -277 177 -164 143 -265 330 -309 573 -20 107 -17 363
5 473 29 148 115 388 201 556 31 63 32 70 0 33 -52 -62 -157 -228 -213 -340
-209 -410 -312 -791 -299 -1107 8 -200 58 -352 171 -519 25 -38 44 -71 41 -74
-10 -11 -194 89 -298 162 -253 177 -418 345 -546 555 -169 279 -193 552 -79
901 11 36 29 83 40 105 l19 40 -30 -34 c-45 -51 -97 -157 -135 -273 l-34 -103
-7 49 c-13 86 1 372 24 489 35 174 96 329 180 457 57 86 57 88 2 35 -154 -147
-290 -459 -307 -704 -8 -103 -5 -99 -164 -225 -126 -100 -156 -121 -198 -137
-30 -11 -30 -11 47 52 49 39 171 180 171 197 0 3 -19 -12 -42 -35 -266 -257
-619 -299 -878 -104 -36 27 -85 75 -109 107 -101 137 -131 239 -138 473 l-6
164 24 -7 c149 -43 258 -43 423 -1 211 53 492 204 694 372 124 103 445 429
392 398 -8 -5 -44 -34 -80 -65 -142 -124 -316 -239 -445 -293 -82 -34 -213
-67 -267 -66 l-43 0 25 16 c64 41 211 207 300 338 227 334 407 451 748 485
107 11 311 4 295 -10 -4 -4 -33 -15 -63 -25 -97 -30 -218 -105 -307 -189 -46
-43 -83 -83 -83 -89 0 -6 10 -1 23 10 35 32 137 98 202 130 79 40 234 89 310
98 l60 8 -54 -49 c-159 -143 -252 -342 -250 -535 0 -92 9 -86 29 21 26 143 91
261 210 380 117 118 252 192 438 242 114 30 299 30 407 0 135 -39 243 -108
306 -195 35 -49 37 -67 5 -67 -47 0 -222 -52 -305 -91 -225 -105 -397 -263
-525 -484 -47 -82 -110 -247 -121 -320 -4 -28 2 -18 20 35 80 228 203 400 383
535 237 177 565 265 749 199 38 -14 45 -22 82 -97 22 -45 61 -109 86 -142 l45
-60 -34 -11 c-112 -39 -216 -157 -279 -315 -46 -114 -58 -185 -62 -344 -1 -82
-1 -130 1 -105 29 338 109 518 285 637 47 31 119 63 145 63 9 0 43 -25 76 -55
130 -117 348 -240 536 -301 58 -19 107 -33 109 -30 3 2 -49 32 -114 65 -128
65 -247 141 -358 229 -109 86 -259 244 -289 303 -86 174 47 344 330 420 94 26
312 31 409 10 99 -21 228 -60 316 -96 103 -42 76 -19 -46 40 -96 47 -213 84
-347 111 -122 25 -316 15 -423 -20 -110 -37 -201 -94 -270 -168 l-58 -62 5 65
c15 181 192 358 445 445 135 46 222 58 378 51 72 -3 144 -9 160 -12 20 -4 13
1 -19 15 -156 66 -428 75 -606 19 -79 -25 -188 -79 -253 -125 -26 -19 -50 -34
-53 -34 -13 0 63 124 120 197 193 244 536 447 876 519 117 24 326 29 445 10
119 -20 275 -71 400 -131 84 -40 322 -192 390 -249 l30 -25 -95 -1 -95 -1 42
-19 c72 -32 155 -43 281 -37 188 8 334 70 458 192 77 76 122 151 151 255 l17
61 28 -63 c16 -35 52 -113 79 -175z m-2971 11 c-110 -113 -281 -228 -391 -263
-20 -6 -78 -15 -130 -19 l-94 -8 60 -13 c127 -28 335 6 454 74 24 14 45 24 47
22 2 -2 -21 -37 -51 -78 -134 -178 -209 -347 -227 -512 l-11 -103 -29 4 c-21
3 -34 14 -48 42 -63 124 -305 260 -500 282 -22 3 -25 8 -28 51 -7 109 40 231
118 307 93 90 217 132 452 150 184 14 265 31 347 74 36 18 68 34 71 35 2 0
-16 -20 -40 -45z m-1380 -115 c0 -10 -4 -20 -9 -23 -9 -6 -31 36 -31 61 0 14
2 14 20 -2 11 -10 20 -26 20 -36z m4514 -810 l7 -97 -68 -4 c-37 -3 -69 -4
-71 -2 -2 1 10 28 26 60 26 52 51 125 78 229 7 27 8 23 14 -30 4 -33 11 -103
14 -156z m1277 -1144 c34 -11 21 -44 -44 -108 -73 -72 -141 -109 -214 -115
-56 -5 -103 3 -103 17 0 5 30 23 66 40 93 43 154 91 216 167 l53 66 3 -30 c2
-20 10 -33 23 -37z m-1174 -9 c70 -35 162 -78 203 -96 121 -52 305 -146 356
-181 88 -60 182 -159 273 -289 132 -185 236 -277 375 -330 15 -5 26 -14 26
-19 0 -15 -48 -21 -201 -28 -163 -6 -293 10 -429 53 -41 13 -76 21 -78 19 -7
-7 117 -65 193 -90 161 -52 406 -85 500 -67 l50 10 -35 -29 c-54 -46 -205
-115 -315 -145 -147 -40 -284 -39 -415 5 -52 17 -118 44 -146 60 l-51 30 -42
123 c-46 134 -99 248 -186 403 -50 88 -58 110 -66 180 -17 149 -66 310 -125
413 -14 23 -23 42 -20 42 2 0 62 -29 133 -64z m-5777 -471 c0 -55 28 -179 66
-294 19 -57 34 -114 34 -126 0 -12 -12 -89 -27 -171 -34 -188 -39 -469 -11
-595 39 -176 97 -283 210 -390 62 -58 67 -67 49 -72 -14 -3 -19 -1 -14 6 4 7
0 8 -11 4 -13 -5 -17 -3 -13 7 6 16 -19 30 -28 16 -4 -6 -13 -10 -21 -10 -14
0 -13 2 0 16 19 19 12 34 -16 34 -14 0 -18 5 -14 16 4 10 2 13 -7 7 -13 -8
-18 -10 -42 -12 -11 -1 -12 -7 -6 -23 5 -13 14 -22 20 -20 6 1 11 -2 11 -7 0
-5 8 -11 18 -13 12 -3 14 -6 5 -11 -18 -11 -100 73 -145 148 -31 52 -66 140
-107 275 -9 30 -10 26 -6 -32 10 -129 73 -304 142 -394 19 -25 32 -48 29 -52
-9 -8 -158 35 -231 68 -84 38 -186 104 -253 164 -102 93 -161 273 -148 455 8
113 27 212 61 310 13 39 22 71 20 71 -11 0 -85 -163 -110 -240 -15 -47 -28
-89 -30 -95 -11 -34 -2 137 10 197 46 220 143 398 329 604 64 71 208 194 227
194 5 0 9 -16 9 -35z m5925 -360 c125 -324 152 -697 69 -960 -22 -69 -85 -205
-96 -205 -4 0 -8 -6 -8 -12 0 -7 -11 -26 -25 -42 -14 -16 -25 -24 -25 -18 0 6
7 17 15 26 8 8 15 21 15 28 0 9 -3 9 -8 2 -4 -6 -31 -10 -62 -9 -44 2 -63 -3
-94 -22 -21 -14 -36 -20 -32 -15 3 6 -9 10 -31 10 -23 0 -31 -3 -22 -8 20 -13
8 -19 -24 -13 -19 4 -26 10 -23 19 3 9 -2 14 -14 14 -11 0 -20 -4 -20 -10 0
-5 -4 -10 -10 -10 -5 0 -7 6 -4 13 3 8 -3 13 -16 13 -16 0 -23 -10 -32 -43
-13 -54 -33 -58 -23 -5 34 179 34 363 0 526 -13 65 -27 121 -30 124 -3 3 26
37 63 76 111 115 193 249 241 391 38 116 61 229 61 304 0 101 9 103 53 15 22
-43 59 -128 82 -189z m-6618 1 c54 -59 45 -106 -28 -141 -49 -23 -64 -23 -32
0 15 11 12 14 -18 23 -28 9 -149 23 -206 25 -7 0 -13 4 -13 9 0 5 -9 4 -19 -2
-15 -7 -25 -5 -43 9 -12 11 -21 22 -18 25 3 2 59 25 125 51 152 57 200 58 252
1z m1842 -151 c9 -87 8 -110 -10 -189 -11 -50 -22 -92 -25 -95 -4 -4 -8 16 -5
32 0 4 -6 7 -16 7 -9 0 -14 3 -10 6 11 11 -21 34 -38 28 -14 -6 -15 2 -11 58
6 89 28 171 81 303 7 17 9 15 16 -16 4 -19 12 -80 18 -134z m2749 -104 c144
-97 218 -227 237 -416 l7 -70 -135 0 -135 0 -7 100 c-8 115 -34 262 -64 360
-12 37 -21 71 -21 75 0 16 59 -8 118 -49z m-4737 24 c46 -9 91 -24 100 -31 29
-26 50 -128 59 -292 10 -182 11 -185 53 -311 37 -111 40 -107 -91 -148 -110
-34 -238 -30 -326 10 -151 69 -255 201 -327 414 -16 48 -29 91 -29 95 0 5 35
-16 79 -47 192 -135 339 -164 465 -92 57 32 57 48 0 29 -39 -13 -59 -13 -108
-5 -71 13 -161 46 -194 71 l-23 18 38 24 c50 33 105 107 155 208 24 49 45 81
52 79 7 -3 50 -13 97 -22z m5769 -175 c0 -16 -5 -30 -11 -30 -6 0 -8 7 -4 18
5 14 4 15 -6 5 -10 -10 -10 -16 -1 -25 16 -16 16 -42 0 -31 -18 11 -68 12 -68
2 0 -5 -7 -9 -15 -9 -8 0 -15 -3 -15 -7 0 -5 -15 -16 -33 -25 l-32 -18 34 28
c19 15 59 48 90 75 30 26 56 47 58 47 1 0 3 -13 3 -30z m1354 -64 c127 -52
147 -76 154 -182 5 -86 -23 -221 -40 -190 -5 9 -14 13 -20 10 -6 -4 -8 -3 -5
3 10 16 -20 36 -43 30 -11 -3 -20 0 -20 6 0 8 -3 8 -8 2 -4 -5 -17 -16 -29
-23 -19 -10 -23 -10 -23 3 0 18 -20 16 -38 -5 -7 -8 -12 -10 -11 -5 1 6 1 17
0 25 -2 27 -21 -11 -21 -44 0 -23 -2 -26 -14 -17 -12 10 -15 8 -18 -11 -2 -13
-4 47 -4 132 -2 136 -12 240 -31 318 l-5 23 38 -17 c22 -9 83 -35 138 -58z
m536 55 c0 -13 -113 -93 -175 -124 -81 -40 -94 -42 -104 -15 -25 66 -26 63 41
77 35 7 99 26 143 41 92 33 95 33 95 21z m-5522 -84 c58 -106 142 -206 241
-289 47 -39 77 -68 66 -64 -78 30 -180 48 -282 49 l-113 1 0 85 c0 104 29 291
44 291 3 0 22 -33 44 -73z m980 15 c7 -23 -16 -12 -34 15 l-18 28 24 -16 c13
-9 26 -21 28 -27z m36 -21 c3 -5 -3 -11 -14 -14 -22 -6 -37 8 -18 16 20 8 26
8 32 -2z m36 -41 c0 -5 -2 -10 -4 -10 -3 0 -8 5 -11 10 -3 6 -1 10 4 10 6 0
11 -4 11 -10z m2280 -60 c37 -26 70 -114 70 -184 0 -48 -15 -155 -23 -163 -2
-2 -38 16 -79 40 -42 24 -109 54 -149 67 -41 14 -76 26 -79 28 -4 3 221 232
228 232 2 0 17 -9 32 -20z m-1806 -79 c125 -37 209 -52 496 -91 124 -17 233
-33 244 -36 16 -5 13 -11 -22 -48 -81 -84 -171 -223 -212 -325 -22 -57 -21
-57 49 -3 89 67 221 119 355 138 l48 7 -5 -29 c-3 -16 -8 -51 -12 -79 -7 -61
3 -49 41 46 30 75 19 71 196 85 l83 7 -20 -23 c-19 -21 -17 -21 35 5 47 24 74
29 190 38 232 18 375 -12 523 -110 39 -26 77 -50 82 -52 20 -7 -111 121 -153
151 l-44 30 69 45 c37 25 108 79 157 120 101 86 101 86 21 -84 -57 -120 -53
-129 20 -54 21 23 42 41 46 41 10 0 67 -245 83 -360 14 -95 36 -375 36 -458 0
-38 -14 -46 -105 -56 l-60 -6 -24 42 c-40 71 -111 138 -221 210 -189 124 -368
173 -595 165 -258 -9 -421 -96 -587 -313 -51 -67 -75 -110 -65 -120 3 -4 27 6
53 20 26 14 49 24 52 21 3 -3 -18 -28 -47 -56 -29 -28 -50 -53 -47 -57 11 -11
61 34 111 101 111 148 287 250 466 272 176 22 424 -79 568 -231 123 -129 170
-241 178 -426 6 -125 -3 -204 -42 -373 -13 -55 -22 -101 -21 -103 12 -12 137
242 169 344 35 112 57 233 57 319 0 83 -4 79 89 90 l54 7 -5 -166 -5 -166 43
97 c47 104 51 110 60 100 15 -15 -114 -756 -197 -1126 -107 -484 -157 -653
-217 -740 -85 -125 -285 -270 -597 -433 -424 -222 -866 -412 -1116 -480 -343
-93 -1057 105 -1724 478 -305 170 -499 331 -570 471 -34 69 -112 334 -189 643
-89 358 -123 524 -147 719 -11 91 -29 226 -39 300 -21 146 -24 201 -12 201 13
0 83 -109 107 -168 23 -55 24 -56 24 -22 0 19 -4 78 -9 130 -5 52 -7 96 -5 98
2 2 12 1 23 -2 18 -6 20 -18 24 -139 6 -181 29 -258 140 -477 49 -96 94 -179
99 -185 5 -5 -2 24 -16 65 -48 142 -68 263 -69 415 0 229 40 335 183 475 144
142 249 191 421 198 80 3 114 0 140 -11 l35 -16 -46 6 c-146 17 -316 -84 -402
-238 -35 -63 -97 -263 -84 -275 3 -3 15 0 27 6 14 7 39 9 67 5 53 -8 116 -64
126 -112 21 -106 -81 -205 -180 -175 -20 6 -38 10 -39 9 -7 -8 51 -208 76
-264 62 -135 173 -250 294 -301 16 -7 27 -15 24 -17 -2 -3 -91 -5 -196 -5
-112 -1 -190 -5 -187 -10 10 -16 134 -49 226 -61 169 -20 420 18 593 92 82 35
108 55 59 46 -18 -4 -62 -9 -99 -13 l-67 -7 64 64 c76 76 137 190 171 319 33
130 32 330 -5 465 -15 55 -49 144 -76 198 -49 98 -52 124 -9 66 43 -58 96
-109 112 -109 24 0 20 6 -19 30 -42 26 -69 66 -39 58 11 -3 28 -9 38 -14 14
-5 4 14 -29 57 -157 205 -284 288 -496 325 -102 17 -173 14 -294 -13 -141 -31
-301 -110 -403 -197 -30 -26 -55 -46 -57 -46 -2 0 -20 27 -41 61 -37 62 -145
179 -198 216 l-28 20 78 27 c117 42 200 102 249 179 l19 29 -40 -21 c-98 -53
-233 7 -264 117 -22 81 -5 343 26 394 3 5 31 -17 63 -49 31 -32 99 -96 151
-142 52 -47 96 -88 98 -91 1 -3 -23 -23 -53 -45 -48 -35 -165 -162 -165 -180
0 -4 12 2 28 13 69 49 263 122 324 122 10 0 56 -17 101 -39 157 -74 288 -106
467 -116 l115 -5 -65 22 c-68 24 -154 74 -185 108 -18 20 -17 20 30 20 69 0
243 -27 354 -56 114 -30 261 -99 314 -149 33 -30 37 -32 32 -13 -4 13 -24 55
-45 95 -34 63 -65 108 -144 210 -10 13 -17 26 -15 27 2 2 38 -9 79 -26 297
-118 654 -129 898 -27 28 12 52 25 52 28 0 4 -30 17 -67 29 -83 27 -186 86
-273 157 -109 90 -127 116 -35 55 119 -80 341 -167 485 -190 41 -6 131 -10
200 -8 l125 3 -75 14 c-178 32 -360 118 -473 223 -34 31 -58 57 -53 58 4 0 54
-13 110 -29z m2533 -48 c-3 -10 -5 -4 -5 12 0 17 2 24 5 18 2 -7 2 -21 0 -30z
m-2692 -53 c10 8 15 8 21 -1 5 -8 3 -9 -6 -4 -10 6 -12 4 -7 -8 3 -10 4 -17 1
-17 -9 0 -64 30 -64 36 0 2 9 0 21 -6 15 -8 24 -8 34 0z m60 -29 c3 -5 2 -12
-3 -15 -5 -3 -9 1 -9 9 0 17 3 19 12 6z m972 -83 c11 -13 28 -38 37 -56 15
-29 15 -33 1 -38 -20 -8 -52 20 -76 67 -26 52 -1 69 38 27z m-1447 -53 c0 -8
-9 -15 -20 -15 -22 0 -27 15 -7 23 21 9 27 7 27 -8z m-574 -69 c88 -41 87 -70
-1 -42 -57 18 -89 41 -80 57 9 14 25 11 81 -15z m-2107 -217 c12 -31 40 -87
62 -124 21 -37 39 -68 39 -69 0 -1 -15 -2 -32 -1 -24 0 -33 5 -33 17 0 26 -12
32 -20 9 -7 -24 2 -44 16 -36 5 4 9 -1 9 -9 0 -20 -17 -30 -23 -14 -3 7 -6 -5
-7 -27 l-2 -40 -14 33 c-11 26 -12 37 -3 48 9 11 8 21 -5 47 -11 22 -16 26
-16 13 0 -37 -9 -9 -21 63 -6 41 -8 98 -4 128 6 48 8 53 19 37 7 -11 23 -44
35 -75z m631 5 c0 -8 -6 -11 -15 -8 -8 4 -15 12 -15 20 0 8 6 11 15 8 8 -4 15
-12 15 -20z m70 -64 c12 -8 9 -10 -13 -10 -16 0 -26 4 -22 10 8 12 16 12 35 0z
m5495 -40 c3 -6 -1 -7 -9 -4 -18 7 -21 14 -7 14 6 0 13 -4 16 -10z m-6208 -95
c0 -8 -4 -15 -9 -15 -4 0 -8 7 -8 15 0 8 4 15 8 15 5 0 9 -7 9 -15z m227 -150
c10 -16 12 -23 5 -14 -8 9 -24 21 -37 28 -21 11 -22 10 -17 -12 15 -60 -54
-119 -95 -82 -51 46 -28 125 36 125 34 0 36 1 30 28 l-7 27 34 -35 c18 -19 41
-48 51 -65z m-190 30 c3 -8 1 -15 -4 -15 -6 0 -10 7 -10 15 0 8 2 15 4 15 2 0
6 -7 10 -15z m236 -66 c0 -6 -4 -7 -10 -4 -5 3 -10 11 -10 16 0 6 5 7 10 4 6
-3 10 -11 10 -16z m-265 -139 c4 -6 3 -10 -2 -9 -4 1 -11 0 -15 -1 -16 -5 -28
-8 -44 -9 -12 -1 -14 -5 -7 -13 13 -16 22 -68 16 -85 -10 -24 -18 -13 -18 24
0 29 -5 40 -25 50 -13 6 -29 8 -35 4 -14 -10 -55 -12 -55 -2 0 5 17 11 38 14
28 5 111 27 139 36 1 1 5 -4 8 -9z m5 -29 c0 -15 -28 -20 -39 -8 -7 10 -4 13
15 15 13 1 24 -2 24 -7z m-133 -53 c-2 -19 3 -23 26 -23 26 1 27 0 11 -12 -25
-18 -31 -17 -50 13 -15 22 -15 27 -3 35 19 12 19 12 16 -13z m1765 -125 c38
-34 10 -103 -42 -103 -50 0 -65 64 -24 104 20 21 43 20 66 -1z m4591 -136 c79
-222 87 -425 21 -563 -67 -142 -415 -534 -535 -603 -72 -41 -103 -40 -145 4
-18 19 -38 35 -44 35 -8 0 -10 11 -6 33 11 61 64 461 71 540 7 73 11 84 58
154 l51 75 17 -51 c14 -40 72 -141 82 -141 1 0 2 37 2 83 0 109 19 171 67 219
92 92 141 28 168 -221 6 -52 12 -97 14 -98 2 -2 12 49 21 114 22 140 13 232
-29 316 -25 49 -25 53 -9 65 79 57 159 112 164 112 4 0 18 -33 32 -73z m-5747
-75 c180 -148 263 -251 349 -436 51 -108 59 -140 75 -291 7 -60 25 -180 40
-265 43 -235 46 -212 -30 -228 -151 -31 -193 -8 -429 234 -194 198 -283 301
-310 358 -65 140 -45 379 49 571 45 92 113 173 132 158 7 -5 63 -51 124 -101z
m1682 -207 c3 -35 -35 -100 -58 -100 -22 0 -25 67 -5 105 22 42 59 39 63 -5z
m142 -101 c18 -21 -1 -120 -36 -192 -35 -72 -126 -162 -200 -198 -53 -26 -69
-29 -154 -29 -126 0 -194 29 -279 120 -61 65 -76 102 -59 144 20 53 72 56 132
6 65 -53 121 -75 196 -75 112 0 190 48 263 159 26 38 52 71 59 74 27 11 66 6
78 -9z m-560 -14 c0 -11 -7 -20 -15 -20 -13 0 -14 4 -5 20 6 11 13 20 15 20 3
0 5 -9 5 -20z m285 -40 c10 -17 -44 -58 -84 -65 -46 -8 -110 8 -143 35 -27 22
-26 23 67 20 39 -1 81 3 95 9 33 13 57 13 65 1z m427 -2284 c176 -122 640
-314 838 -345 94 -15 152 2 368 109 108 54 266 137 351 184 85 48 156 84 159
81 4 -3 -4 -92 -16 -198 -19 -161 -53 -482 -64 -591 -3 -25 -18 -37 -123 -98
-158 -93 -515 -274 -566 -288 -86 -23 -300 57 -704 264 -236 121 -519 276
-513 281 7 7 183 75 193 75 6 0 21 -32 34 -71 12 -39 29 -85 37 -102 14 -30
15 -27 9 57 -3 49 -19 195 -35 325 -39 313 -44 361 -37 361 3 0 34 -20 69 -44z
m1912 28 c8 -21 -1 -34 -24 -34 -28 0 -36 21 -15 37 24 17 32 17 39 -3z m822
-605 c98 -30 144 -55 144 -79 0 -25 -13 -25 -82 -1 -30 10 -80 25 -112 32 -58
13 -68 26 -40 53 19 19 9 20 90 -5z m-952 -45 c31 -14 56 -29 56 -32 -1 -9
-181 -124 -186 -119 -2 2 8 33 22 68 15 35 30 74 35 87 5 12 10 22 13 22 2 0
29 -12 60 -26z"/>
<path d="M6305 8950 c8 -13 127 -58 211 -80 166 -43 427 -49 600 -14 84 17
178 44 172 49 -2 2 -49 -3 -103 -12 -224 -35 -569 -13 -847 56 -21 5 -36 5
-33 1z"/>
<path d="M2491 7902 c-108 -109 -266 -264 -351 -346 -85 -81 -146 -143 -135
-138 51 26 286 235 435 388 150 153 272 294 254 294 -3 0 -95 -89 -203 -198z"/>
<path d="M4513 5573 c5 -8 -5 -11 -37 -8 -24 1 -50 -1 -57 -6 -16 -10 -20 -9
59 -14 37 -3 62 0 62 6 0 6 5 7 10 4 6 -4 7 -11 4 -17 -4 -7 -2 -8 5 -4 9 6 9
11 0 22 -6 8 -14 12 -17 9 -3 -3 -12 1 -20 8 -11 8 -14 8 -9 0z"/>
<path d="M8149 5283 c-12 -16 -12 -17 2 -6 9 7 20 9 24 5 5 -4 5 -1 1 6 -9 16
-11 15 -27 -5z"/>
<path d="M6116 5153 c-132 -28 -232 -80 -308 -160 -40 -42 -118 -151 -118
-165 0 -5 26 13 58 40 183 157 426 264 660 291 71 8 66 8 -73 9 -97 0 -175 -5
-219 -15z"/>
<path d="M3660 5071 c-53 -7 -54 -7 -20 -13 19 -4 71 -12 115 -18 177 -26 344
-103 495 -229 30 -25 50 -39 45 -31 -90 154 -191 242 -320 277 -59 16 -238 24
-315 14z"/>
<path d="M6240 4878 c-106 -40 -217 -134 -276 -234 -32 -54 -72 -173 -80 -238
l-6 -51 24 35 c31 45 64 62 108 54 86 -14 146 -90 137 -170 -9 -80 -72 -134
-158 -134 -36 0 -47 6 -81 41 l-39 41 6 -63 c21 -210 89 -373 204 -492 25 -27
61 -57 79 -69 18 -11 31 -22 29 -25 -3 -2 -48 3 -101 12 -140 22 -166 18 -76
-12 147 -48 294 -66 500 -60 159 4 198 8 278 31 86 24 158 53 150 61 -1 2 -50
-5 -108 -15 -58 -10 -141 -21 -185 -25 l-80 -6 50 29 c127 75 232 230 281 417
27 100 25 301 -3 410 -63 242 -208 415 -392 469 -77 23 -193 20 -261 -6z m-78
-295 c26 -24 23 -68 -7 -91 -61 -48 -115 36 -59 92 20 21 43 20 66 -1z m496
-468 c2 -19 -6 -43 -20 -65 -32 -48 -52 -46 -56 6 -5 73 69 131 76 59z m142
-85 c24 -24 24 -31 4 -101 -74 -255 -346 -390 -567 -281 -112 55 -197 148
-197 216 0 29 42 66 75 66 12 0 44 -17 71 -39 85 -67 130 -85 209 -85 115 0
197 49 277 166 52 78 91 95 128 58z m-594 -16 c-5 -14 -9 -15 -19 -5 -9 9 -9
14 3 21 18 11 24 6 16 -16z m304 -33 c0 -74 -141 -97 -216 -35 l-29 23 60 -5
c37 -3 79 0 110 9 63 18 75 19 75 8z"/>
<path d="M4956 3321 c-14 -32 -26 -70 -26 -83 0 -23 68 -123 77 -114 2 2 0 37
-5 78 -5 40 -10 95 -11 123 -1 27 -3 51 -5 52 -2 2 -15 -23 -30 -56z"/>
<path d="M6200 3260 c-8 -5 -10 -10 -5 -10 6 0 17 5 25 10 8 5 11 10 5 10 -5
0 -17 -5 -25 -10z"/>
<path d="M6540 3247 c-87 -26 -188 -78 -221 -113 -18 -19 6 -11 112 39 74 35
150 70 169 79 48 23 29 21 -60 -5z"/>
<path d="M6797 3200 c-56 -18 -203 -98 -194 -106 4 -4 294 110 304 120 13 12
-54 4 -110 -14z"/>
<path d="M3605 3161 c-143 -37 -212 -59 -190 -60 6 -1 100 21 210 48 110 28
184 50 165 50 -19 0 -102 -17 -185 -38z"/>
<path d="M6865 3116 c-39 -19 -63 -35 -55 -35 20 0 159 67 140 68 -9 1 -47
-14 -85 -33z"/>
<path d="M3598 3083 c12 -2 30 -2 40 0 9 3 -1 5 -23 4 -22 0 -30 -2 -17 -4z"/>
<path d="M3485 3029 c-102 -13 -112 -19 -20 -13 87 6 178 22 120 22 -16 0 -61
-4 -100 -9z"/>
<path d="M5015 2907 c-98 -33 -162 -90 -206 -182 -59 -126 -59 -293 0 -420 39
-84 82 -129 158 -167 59 -29 75 -32 152 -32 111 0 174 21 241 81 121 109 161
303 101 493 -30 94 -82 157 -164 199 -59 31 -79 35 -155 38 -53 2 -102 -2
-127 -10z m213 -121 c42 -22 83 -66 105 -116 29 -62 36 -219 13 -287 -35 -104
-113 -162 -219 -163 -71 0 -113 17 -160 65 -44 46 -67 108 -74 206 -11 147 48
264 152 304 47 17 141 13 183 -9z"/>
<path d="M1958 4869 c-10 -5 -18 -17 -18 -24 0 -23 16 -17 28 10 6 14 11 25 9
25 -1 0 -10 -5 -19 -11z"/>
<path d="M1998 4848 c-2 -17 -11 -24 -31 -26 -23 -3 -26 -6 -17 -17 19 -23 60
2 60 37 0 34 -7 37 -12 6z"/>
<path d="M7686 3788 c4 -13 10 -54 14 -93 l6 -70 12 40 c16 53 15 70 -4 111
-18 38 -40 47 -28 12z"/>
<path d="M7690 3524 c-136 -56 -170 -76 -170 -101 0 -21 25 -26 66 -13 36 12
238 142 249 160 9 15 0 12 -145 -46z"/>
<path d="M2276 4219 c-15 -4 -37 -16 -47 -25 -53 -48 -66 -264 -27 -428 25
-103 21 -110 51 81 18 110 55 198 91 214 63 29 126 -47 126 -152 0 -30 -6 -79
-14 -109 -8 -30 -13 -56 -11 -58 2 -2 28 21 58 51 84 84 93 158 33 261 -71
121 -176 188 -260 165z"/>
<path d="M2543 3724 c-37 -57 -26 -196 21 -250 l22 -27 -6 59 c-4 32 -5 101
-2 152 5 99 -3 114 -35 66z"/>
<path d="M2435 3352 c23 -24 145 -82 201 -97 66 -17 109 -9 121 21 11 30 -22
46 -123 59 -209 28 -209 28 -199 17z"/>
<path d="M9690 780 c0 -6 5 -20 10 -31 8 -13 7 -19 0 -19 -6 0 -8 -5 -5 -10 4
-6 11 -8 16 -5 8 5 10 2 9 -20 0 -10 69 -75 80 -75 6 0 8 -5 4 -12 -4 -6 -3
-8 3 -5 5 3 24 -3 41 -14 18 -10 39 -19 47 -19 30 0 13 -16 -41 -39 -63 -27
-123 -90 -151 -156 -10 -25 -21 -45 -24 -45 -6 0 -20 42 -19 55 0 3 -6 13 -15
21 -8 9 -13 19 -10 24 3 5 -1 10 -7 13 -17 6 36 27 70 27 43 0 54 13 55 69 2
55 -9 71 -50 71 -27 0 -28 -3 -7 -35 21 -32 10 -32 -22 0 -28 28 -29 29 -54
15 -24 -13 -37 5 -20 25 23 28 -2 15 -30 -15 -15 -16 -33 -30 -38 -30 -6 0
-14 -9 -17 -20 -5 -16 -10 -18 -26 -10 -27 15 -24 23 14 39 38 17 147 125 147
146 0 8 5 15 10 15 6 0 10 10 9 23 0 22 0 22 -17 -3 -29 -43 -136 -151 -164
-166 -16 -8 -28 -21 -28 -29 0 -8 -4 -15 -10 -15 -26 0 -4 -24 60 -65 62 -40
73 -52 105 -114 22 -45 42 -72 57 -77 24 -7 35 4 110 105 18 25 62 64 98 88
64 43 79 69 50 83 -8 4 -28 14 -44 21 -37 18 -121 104 -149 153 -22 39 -47 58
-47 36z m-100 -251 c0 -23 -29 -32 -49 -17 -9 7 -18 13 -20 15 -11 7 12 18 38
18 22 0 31 -5 31 -16z"/>
</g>
</svg>
