<?xml version="1.0" standalone="no"?>
<!DOCTYPE svg PUBLIC "-//W3C//DTD SVG 20010904//EN"
 "http://www.w3.org/TR/2001/REC-SVG-20010904/DTD/svg10.dtd">
<svg version="1.0" xmlns="http://www.w3.org/2000/svg"
 width="2500.000000pt" height="2500.000000pt" viewBox="0 0 2500.000000 2500.000000"
 preserveAspectRatio="xMidYMid meet">

<g transform="translate(0.000000,2500.000000) scale(0.100000,-0.100000)"
fill="#000000" stroke="none">
<path d="M18369 24418 c5 -13 26 -61 46 -108 70 -160 112 -304 134 -457 32
-214 -14 -472 -120 -669 -136 -256 -413 -492 -744 -635 -85 -36 -326 -115
-395 -129 l-65 -13 -95 48 c-90 45 -299 180 -495 320 -369 264 -532 366 -785
494 -368 186 -680 279 -1155 343 -134 18 -631 18 -785 0 -534 -63 -964 -188
-1613 -472 -104 -45 -191 -80 -193 -77 -3 3 22 61 55 129 70 144 109 247 157
408 34 113 84 302 84 316 0 4 -40 -53 -88 -127 -192 -293 -385 -472 -632 -588
-169 -79 -388 -138 -610 -165 -111 -14 -200 -20 -610 -42 -208 -11 -473 -59
-622 -112 -32 -11 -58 -16 -58 -11 0 5 17 38 39 73 146 242 426 526 706 717
238 163 487 289 740 377 96 33 276 81 310 83 15 1 14 3 -8 9 -53 16 -400 22
-592 11 -866 -52 -1523 -267 -2008 -655 -126 -100 -308 -290 -397 -413 -41
-57 -77 -103 -81 -103 -4 0 -23 19 -42 43 -116 142 -171 363 -147 587 22 194
70 357 169 561 22 46 38 85 36 87 -15 16 -197 -85 -331 -183 -355 -260 -634
-572 -851 -950 -246 -426 -383 -927 -383 -1397 l0 -98 -169 0 c-259 0 -511
-30 -741 -88 -522 -133 -930 -425 -1287 -923 -34 -47 -118 -170 -187 -275
-197 -298 -251 -373 -344 -484 -238 -283 -541 -452 -840 -467 -234 -12 -392
45 -542 196 -106 107 -181 254 -226 444 -18 77 -34 101 -34 50 0 -16 5 -68 10
-118 42 -394 236 -663 618 -854 133 -66 363 -129 539 -147 35 -4 63 -9 63 -11
0 -22 -220 -168 -356 -237 -268 -135 -534 -187 -772 -152 -167 25 -359 93
-405 144 -17 19 -18 28 -7 113 6 50 9 93 7 95 -2 2 -21 -34 -42 -81 -44 -99
-36 -99 -154 5 -96 85 -192 211 -273 359 -34 63 -63 110 -65 104 -6 -16 66
-212 117 -321 60 -125 146 -259 212 -330 33 -35 48 -58 44 -69 -7 -17 -33
-139 -47 -223 -51 -291 -51 -621 1 -905 73 -397 282 -752 595 -1011 180 -149
299 -221 483 -294 l83 -33 -63 -58 c-112 -102 -265 -179 -356 -179 -138 0
-291 185 -368 448 -15 50 -30 92 -33 92 -12 0 0 -348 15 -430 43 -244 113
-374 300 -555 l113 -111 -40 -119 c-84 -249 -154 -357 -267 -412 -45 -22 -68
-27 -133 -27 -72 0 -85 4 -163 42 -183 91 -306 264 -361 509 -22 96 -25 131
-24 318 0 116 4 230 9 255 4 25 7 47 5 49 -11 11 -86 -224 -111 -349 -29 -144
-35 -186 -49 -325 -57 -561 59 -1203 307 -1688 181 -355 455 -656 770 -846 99
-59 290 -151 445 -215 333 -135 445 -198 558 -310 91 -92 144 -182 194 -334
17 -51 31 -95 31 -98 0 -10 -46 1 -158 35 -226 70 -436 176 -622 315 -96 71
-255 222 -323 306 l-36 45 49 -113 c170 -393 486 -869 836 -1262 162 -181 448
-458 639 -617 114 -96 199 -199 239 -290 22 -51 18 -86 -30 -263 -80 -297
-104 -568 -69 -801 45 -296 168 -496 545 -883 282 -290 645 -622 823 -754 186
-139 368 -211 532 -212 108 0 293 49 355 95 19 14 37 25 41 25 4 0 12 -24 18
-53 31 -149 122 -521 171 -699 76 -278 147 -450 233 -567 76 -104 292 -305
497 -463 79 -62 394 -281 520 -363 295 -192 664 -402 1005 -573 256 -127 702
-332 724 -332 6 0 13 -5 16 -10 7 -12 44 -283 39 -289 -2 -2 -76 2 -166 8
-341 24 -779 13 -1133 -29 -436 -52 -830 -157 -975 -260 -54 -38 -89 -101
-101 -182 -11 -78 2 -261 37 -482 l16 -108 -58 -60 c-33 -33 -84 -79 -115
-102 -64 -46 -104 -91 -119 -130 -15 -40 -12 -134 6 -196 30 -104 40 -93 -151
-170 -221 -88 -959 -406 -1286 -553 -699 -315 -1290 -607 -1684 -832 -178
-102 -532 -319 -555 -342 -8 -7 37 11 102 41 230 109 1348 579 1813 764 139
54 479 195 945 389 217 91 447 187 510 213 63 26 135 57 160 68 71 32 303 132
305 132 2 0 29 -42 61 -92 199 -315 484 -714 699 -982 191 -238 486 -548 663
-695 60 -50 225 -167 292 -206 8 -5 -41 45 -109 110 -140 136 -399 425 -496
556 -11 15 -59 78 -106 140 -184 244 -525 779 -671 1054 -217 408 -250 537
-166 639 36 45 34 47 79 -80 44 -124 63 -160 191 -350 131 -194 116 -172 237
-339 199 -276 247 -339 431 -568 91 -113 166 -204 168 -202 2 1 -19 43 -46 91
-72 131 -149 302 -163 362 -17 70 -9 77 89 76 88 0 199 -31 397 -109 233 -92
551 -250 758 -374 61 -38 33 -3 -91 111 -351 320 -697 555 -1428 967 -207 117
-264 177 -309 326 -29 95 -68 275 -96 435 -19 110 -51 372 -46 377 5 4 23 -13
50 -49 55 -74 228 -199 595 -430 346 -218 882 -536 1312 -778 36 -20 115 -65
175 -99 61 -35 142 -80 180 -101 39 -20 134 -71 211 -113 406 -217 760 -389
1114 -540 309 -132 846 -334 1030 -388 138 -40 207 -24 528 127 40 19 75 34
78 34 12 0 446 215 565 280 124 68 314 176 434 247 178 106 630 405 870 576
231 165 364 261 419 304 160 126 319 250 366 285 30 23 101 88 158 145 l103
103 52 0 c133 -1 260 -52 333 -133 l47 -52 -6 -70 c-12 -155 -184 -526 -359
-771 -121 -171 -350 -401 -855 -858 -134 -121 -241 -221 -239 -223 13 -13 492
261 837 478 278 175 359 227 649 417 96 63 198 129 225 147 28 17 75 47 105
67 30 19 78 48 105 64 28 15 67 40 87 55 44 31 166 85 174 76 7 -7 -20 -50
-71 -112 -224 -271 -642 -896 -813 -1215 -56 -106 -175 -370 -169 -376 2 -2
55 58 118 133 104 126 267 316 454 533 69 80 119 139 283 334 78 92 192 224
301 348 42 48 83 88 91 88 8 0 56 -16 105 -35 176 -70 843 -316 1025 -379 41
-15 84 -30 95 -35 57 -24 207 -80 505 -186 118 -42 256 -92 305 -110 50 -18
185 -68 300 -110 685 -251 1164 -437 1327 -514 31 -15 55 -24 53 -21 -9 14
-285 180 -471 283 -527 291 -1411 692 -2124 962 -47 17 -202 77 -345 132 -143
55 -289 110 -323 123 -35 13 -66 29 -68 35 -3 7 13 41 35 76 22 35 45 85 51
110 31 122 -77 195 -515 349 -105 37 -267 88 -360 114 -172 48 -205 65 -205
107 0 10 -12 49 -27 86 -22 53 -44 84 -98 138 -74 75 -137 114 -244 151 -62
22 -66 25 -63 51 14 116 13 188 -3 229 -34 89 -166 174 -375 242 -142 46 -392
108 -529 131 -31 6 -94 17 -141 25 -86 15 -165 27 -343 50 -54 8 -101 16 -104
19 -3 4 -1 48 5 99 6 51 14 138 17 193 10 171 13 183 54 209 20 13 151 83 291
156 140 73 305 161 365 195 61 34 169 95 240 135 600 339 977 612 1331 965
219 219 290 321 352 510 55 167 144 530 208 855 23 115 35 182 93 510 27 153
46 276 81 530 5 41 19 142 31 224 11 82 25 186 29 230 5 45 16 135 24 201 8
66 17 154 20 195 11 131 29 244 44 275 8 17 54 83 101 148 47 65 91 126 96
135 27 47 28 46 50 -29 40 -138 99 -244 214 -388 65 -81 84 -140 100 -310 6
-59 6 -117 -1 -158 -5 -35 -7 -67 -5 -70 8 -7 45 119 57 191 18 116 -17 232
-91 301 -49 45 -54 73 -52 270 3 279 59 439 186 534 74 54 111 71 156 71 131
0 224 -312 249 -835 l7 -140 28 142 c43 216 57 343 57 519 0 164 -15 292 -47
389 -21 67 -70 163 -101 200 l-25 30 24 10 c44 19 224 144 365 253 l68 53 17
-33 c54 -108 145 -370 177 -513 39 -173 45 -242 45 -490 0 -237 -2 -255 -27
-349 -57 -218 -183 -411 -539 -827 -249 -292 -559 -614 -699 -728 -187 -150
-320 -200 -424 -156 -19 8 -62 43 -95 77 l-61 63 7 -55 c9 -68 54 -169 100
-226 20 -25 58 -54 90 -70 51 -24 63 -26 149 -22 89 4 101 7 188 50 150 75
304 197 529 419 212 210 424 446 584 652 80 102 100 131 179 247 167 246 233
405 267 641 12 84 11 148 -7 654 -8 209 7 298 69 424 60 124 181 239 347 333
232 131 330 190 430 259 271 186 493 408 679 679 32 47 116 180 186 295 70
116 149 239 175 275 68 92 226 241 355 335 117 85 431 388 469 452 4 7 -28
-12 -71 -41 -208 -143 -571 -301 -807 -352 -187 -41 -423 -25 -530 35 -169 94
-138 386 84 784 133 240 261 395 458 556 567 463 871 758 1140 1109 101 131
118 147 259 241 84 56 123 92 123 113 0 5 -48 7 -107 5 -423 -14 -748 109
-1032 390 -137 137 -205 229 -376 517 -76 127 -156 256 -176 287 -21 31 -40
62 -41 68 -2 6 33 26 77 44 334 139 592 355 719 602 42 82 78 166 73 171 -2 2
-26 -27 -55 -64 -71 -94 -223 -239 -309 -295 -223 -147 -449 -179 -586 -85
-15 11 -25 23 -22 28 3 4 56 29 117 55 228 95 348 173 495 323 151 152 232
266 313 435 142 299 200 590 200 1003 0 456 -73 856 -232 1269 -55 143 -87
210 -95 202 -3 -3 0 -21 6 -39 18 -57 49 -247 62 -373 9 -92 9 -150 -1 -250
-21 -239 -73 -368 -197 -494 -137 -139 -288 -189 -533 -178 -211 10 -378 53
-578 147 -172 82 -275 154 -570 399 -201 167 -271 215 -435 296 -139 69 -238
105 -381 140 l-91 21 3 40 c1 21 5 197 8 389 8 427 -9 714 -57 990 -5 33 -15
87 -20 120 -36 209 -121 542 -195 761 -150 445 -334 827 -631 1309 -123 201
-374 565 -389 565 -2 0 0 -10 5 -22z m-8253 -696 c-3 -5 -42 -31 -88 -57 -303
-176 -647 -504 -840 -800 -135 -207 -283 -558 -304 -720 -6 -48 -9 -52 94 120
115 192 180 280 358 484 103 117 174 190 174 179 0 -4 -37 -80 -83 -170 -168
-334 -239 -635 -240 -1028 l-1 -185 -231 3 c-131 3 -268 0 -319 -7 -49 -6 -92
-9 -94 -6 -3 3 -16 55 -29 117 -21 95 -26 150 -30 348 -5 228 -4 239 22 355
47 213 101 349 198 505 235 374 547 582 1212 811 163 57 212 69 201 51z
m-2110 -184 c-28 -266 -34 -655 -16 -885 37 -451 131 -807 295 -1119 l53 -102
-27 -5 c-34 -7 -184 8 -236 23 -145 43 -336 197 -444 359 -141 208 -204 423
-204 691 1 299 79 535 252 765 51 68 309 335 324 335 5 0 7 -26 3 -62z m10719
-217 c14 -35 65 -143 112 -240 229 -474 326 -769 373 -1137 16 -125 16 -407 1
-529 -15 -119 -60 -313 -95 -413 -108 -311 -365 -640 -583 -749 l-73 -36 -102
7 c-319 21 -824 155 -1318 351 -154 61 -535 237 -560 260 -8 7 -31 20 -50 29
l-35 17 30 -23 c16 -13 61 -49 100 -82 38 -32 104 -83 145 -113 41 -29 86 -62
100 -72 136 -103 501 -304 703 -387 31 -13 85 -36 120 -50 83 -34 353 -130
452 -160 368 -112 619 -217 795 -333 201 -131 411 -343 557 -560 24 -36 43
-60 43 -55 0 26 -157 317 -226 421 -128 191 -340 390 -516 488 -38 20 -68 40
-68 44 0 7 33 16 160 45 260 58 573 51 812 -18 243 -71 407 -171 713 -435 89
-77 257 -216 310 -256 527 -403 1202 -513 1596 -260 36 23 96 72 134 109 37
36 70 66 73 66 14 0 -9 -453 -28 -565 -57 -335 -173 -568 -395 -791 -251 -252
-552 -384 -1000 -439 l-140 -18 -106 46 c-59 25 -223 89 -365 142 -143 54
-266 101 -274 105 -16 9 -12 10 172 35 238 32 558 140 727 244 28 17 53 31 56
31 11 0 275 188 275 196 0 3 -24 -9 -52 -25 -108 -61 -370 -152 -588 -205
-279 -67 -523 -96 -800 -96 -241 0 -312 9 -515 66 -184 52 -192 57 -255 161
-121 196 -315 438 -504 625 -202 200 -340 311 -556 445 -204 126 -214 130 -90
37 294 -220 588 -553 822 -929 243 -392 401 -796 487 -1245 44 -229 53 -362
48 -704 -3 -176 -9 -341 -15 -366 -5 -25 -15 -76 -22 -115 -36 -206 -149 -512
-262 -710 -57 -100 -61 -107 -107 -175 -194 -288 -416 -521 -734 -768 -115
-89 -158 -112 -138 -74 15 28 58 189 84 317 58 274 72 422 72 750 0 385 -28
654 -111 1075 -85 429 -176 728 -326 1070 -180 414 -390 679 -744 938 -336
246 -980 542 -1879 863 -261 94 -940 332 -1025 359 -159 52 -921 328 -1240
448 -58 22 -141 56 -184 76 -44 20 -81 35 -82 33 -5 -5 343 -173 501 -242 226
-100 601 -250 1155 -465 173 -67 329 -128 345 -136 17 -7 77 -31 135 -54 58
-22 115 -45 128 -50 41 -18 66 -28 217 -90 439 -180 894 -400 1175 -570 518
-313 897 -660 1143 -1047 123 -193 210 -427 243 -653 23 -158 15 -513 -15
-680 -82 -466 -254 -861 -511 -1178 -41 -51 -90 -112 -108 -135 -19 -23 -38
-43 -43 -45 -12 -5 -12 25 0 32 5 3 11 23 14 43 2 21 13 83 25 138 27 132 38
358 23 503 -39 382 -172 708 -398 975 -42 48 -77 86 -79 84 -2 -2 14 -42 35
-88 47 -100 92 -247 123 -402 19 -98 22 -143 22 -362 0 -242 -11 -359 -44
-485 -5 -19 -16 -64 -25 -100 -16 -62 -55 -181 -74 -225 -5 -11 -21 -49 -36
-85 -41 -97 -135 -275 -190 -360 -141 -216 -263 -353 -459 -519 l-29 -25 7 75
c4 40 8 88 10 104 33 248 41 552 17 705 -68 436 -220 731 -545 1055 -330 329
-690 558 -1296 825 -91 40 -203 89 -250 110 -47 21 -87 36 -90 33 -2 -2 2 -8
10 -13 19 -11 146 -102 219 -157 265 -198 427 -323 550 -422 51 -42 105 -85
120 -95 103 -77 293 -257 308 -294 7 -18 18 -30 23 -27 6 3 10 1 10 -4 0 -6
14 -23 30 -38 17 -15 28 -33 25 -40 -2 -8 2 -16 9 -19 20 -8 69 -81 64 -95 -2
-7 -14 4 -27 24 -12 20 -26 37 -29 37 -7 0 -46 35 -157 139 -33 31 -87 78
-120 105 -33 27 -86 74 -117 105 -32 30 -60 52 -64 48 -4 -3 15 -33 42 -66 27
-33 63 -79 80 -103 17 -24 56 -78 87 -120 31 -42 57 -79 57 -83 0 -3 8 -18 19
-33 57 -83 103 -174 94 -183 -7 -7 -17 -7 -29 -1 -11 6 -39 16 -64 23 -46 13
-72 24 -125 52 -16 8 -54 28 -84 44 -74 38 -118 84 -245 253 -60 80 -137 176
-170 214 -101 114 -503 521 -621 627 -60 55 -155 140 -210 190 -107 98 -201
181 -336 296 -46 40 -151 130 -232 200 -82 70 -165 141 -185 156 -20 16 -55
46 -77 67 -22 21 -74 67 -116 102 -152 126 -255 213 -311 264 -109 100 -122
96 -23 -7 55 -57 314 -320 575 -584 1261 -1273 1608 -1701 1820 -2240 46 -119
57 -155 99 -335 43 -187 62 -365 67 -635 5 -211 3 -241 -11 -251 -10 -7 -17
-30 -19 -60 -2 -35 -7 -49 -17 -49 -8 0 -13 5 -12 11 1 7 -7 20 -17 29 -11 10
-20 15 -20 12 0 -7 -11 2 -66 51 -14 12 -31 22 -39 22 -8 0 -16 4 -19 9 -16
26 -233 109 -366 139 -71 16 -351 59 -500 77 -74 8 -166 20 -205 25 -38 5
-126 17 -195 26 -535 69 -1032 193 -1415 355 -189 80 -454 227 -586 327 -229
173 -316 248 -490 421 -139 140 -293 313 -374 422 -11 14 -38 50 -61 80 -203
270 -396 613 -524 934 -187 468 -265 954 -215 1335 32 240 90 471 166 663 50
126 78 180 146 285 75 116 100 147 233 285 155 161 256 238 450 345 128 70
119 71 -50 3 -483 -194 -851 -582 -1024 -1080 -74 -213 -117 -443 -136 -726
-5 -82 -13 -188 -16 -235 -12 -157 26 -737 66 -1025 84 -601 205 -1042 382
-1402 28 -57 54 -103 59 -103 4 0 -4 33 -18 73 -14 39 -32 97 -40 127 -7 30
-25 96 -38 147 -59 222 -71 427 -32 543 12 36 26 64 32 64 5 -1 59 -74 120
-163 60 -88 137 -200 170 -249 58 -85 212 -292 225 -302 3 -3 27 -32 53 -65
29 -39 74 -122 122 -230 104 -232 208 -430 328 -623 165 -264 266 -390 521
-649 126 -128 225 -233 220 -232 -5 0 -22 9 -39 20 -16 11 -38 22 -47 25 -10
4 -18 16 -18 28 0 13 -28 49 -75 96 -42 41 -79 75 -83 75 -4 0 -6 3 -5 7 2 4
-4 5 -12 2 -11 -4 -15 1 -15 16 0 15 -4 20 -15 17 -8 -4 -17 -2 -21 4 -3 6
-12 8 -19 5 -9 -3 -11 2 -7 17 5 20 4 21 -14 7 -10 -8 -23 -21 -27 -27 -12
-19 -27 -16 -20 3 5 14 3 15 -14 6 -11 -6 -23 -8 -27 -4 -4 3 -4 -2 0 -12 6
-16 4 -18 -14 -14 -15 4 -19 2 -15 -9 4 -10 14 -13 30 -8 16 4 22 2 18 -4 -4
-7 0 -8 10 -4 16 6 70 -40 70 -60 0 -9 60 -47 123 -77 23 -12 42 -25 42 -31 0
-11 -30 3 -142 68 -42 24 -82 51 -89 59 -7 8 -27 21 -46 29 -18 8 -33 19 -33
24 0 6 -7 11 -15 11 -9 0 -34 17 -58 38 -23 22 -50 43 -60 49 -20 10 -108 83
-227 186 -43 37 -81 67 -85 67 -25 0 237 -319 369 -450 37 -35 66 -67 66 -71
0 -8 -38 -4 -47 6 -5 4 -2 5 6 0 10 -6 12 -4 6 4 -5 9 -10 10 -18 2 -17 -17
-31 -13 -17 4 16 20 7 30 -12 13 -30 -28 -55 -37 -69 -25 -8 8 -8 5 1 -7 14
-18 13 -19 -6 -14 -13 3 -21 0 -22 -8 -1 -8 -3 -21 -4 -29 -1 -8 -4 -13 -6
-10 -3 3 -11 0 -19 -6 -10 -9 -17 -8 -28 1 -12 10 -15 9 -16 -6 0 -11 -3 -14
-5 -7 -3 7 -12 9 -20 6 -8 -3 -14 0 -14 6 0 6 6 11 14 11 8 0 17 4 20 9 3 4
-6 6 -21 3 -17 -3 -24 -1 -19 6 9 15 -7 23 -24 11 -10 -6 -11 -9 -2 -9 6 0 12
-4 12 -10 0 -5 -9 -10 -21 -10 -13 0 -18 4 -14 13 4 6 0 4 -8 -5 -20 -25 -41
-24 -28 1 8 14 7 22 -3 31 -12 9 -13 7 -9 -9 3 -13 1 -21 -6 -21 -7 0 -9 5 -5
13 5 8 2 7 -9 -2 -16 -13 -16 -14 0 -27 16 -11 14 -12 -12 -5 -19 5 -29 14
-29 24 2 21 -1 21 -20 1 -9 -8 -16 -10 -16 -4 0 7 -6 8 -19 0 -13 -7 -22 -7
-26 0 -3 5 -21 10 -38 10 l-32 -1 30 -16 c39 -21 107 -34 98 -19 -4 6 3 3 14
-7 24 -21 87 -40 208 -63 108 -20 136 -38 50 -31 -33 3 -73 8 -90 11 -16 4
-55 12 -85 17 -30 6 -75 17 -100 25 -25 7 -85 25 -135 40 -49 15 -94 31 -100
35 -5 5 -15 9 -23 9 -21 0 -203 75 -312 128 -151 73 -311 169 -470 279 -240
168 -487 441 -628 694 -135 244 -202 419 -262 689 -64 282 -87 558 -71 825 38
621 201 1176 543 1854 59 118 104 211 100 205 -84 -96 -307 -412 -416 -587
-116 -186 -313 -580 -426 -847 -333 -794 -519 -1563 -520 -2142 0 -402 129
-843 365 -1244 69 -116 172 -264 197 -282 10 -7 15 -18 12 -24 -4 -6 -2 -8 3
-5 6 4 16 0 23 -8 28 -33 17 -30 -200 67 -127 56 -279 136 -371 194 -136 86
-182 117 -327 222 -90 63 -205 157 -394 318 -96 82 -387 375 -480 483 -321
374 -560 810 -652 1191 -51 212 -60 298 -60 545 0 142 5 273 12 320 50 318
158 710 252 914 l40 86 -31 -35 c-157 -178 -329 -539 -405 -846 -14 -60 -29
-113 -31 -118 -47 -76 -56 722 -13 1034 24 179 36 257 44 290 3 14 15 66 26
115 39 168 87 320 158 500 95 241 231 480 396 699 l39 51 -58 -55 c-251 -238
-402 -443 -550 -745 -188 -381 -283 -719 -325 -1160 -18 -191 -13 -177 -91
-249 -82 -75 -361 -301 -521 -422 -102 -76 -318 -199 -339 -192 -8 3 99 91
155 128 78 51 274 259 358 381 118 171 121 184 22 83 -49 -50 -132 -126 -184
-169 -350 -289 -700 -425 -1095 -425 -309 0 -570 81 -832 257 -102 68 -266
226 -345 333 -234 315 -338 718 -338 1310 0 126 1 230 3 230 2 0 37 -12 78
-26 170 -60 372 -90 539 -81 442 25 904 182 1430 484 307 177 551 354 916 662
133 113 524 508 659 666 219 255 223 262 85 135 -609 -558 -1149 -881 -1665
-994 -121 -27 -335 -45 -335 -29 0 6 28 29 63 51 156 101 353 300 526 534 121
163 128 173 268 378 257 375 457 586 714 753 201 131 483 245 719 291 212 42
444 66 635 66 66 0 188 -7 270 -15 83 -8 153 -15 158 -15 4 0 7 -4 7 -10 0 -5
-33 -19 -72 -31 -205 -60 -498 -207 -683 -342 -81 -59 -190 -153 -257 -223
-51 -53 -158 -185 -158 -195 0 -3 19 12 43 34 216 202 602 411 957 519 131 40
241 61 468 92 12 2 22 0 22 -4 0 -3 -28 -29 -62 -57 -88 -72 -263 -254 -329
-343 -181 -246 -293 -502 -344 -790 -17 -97 -20 -329 -5 -392 5 -24 14 -61 19
-83 8 -36 9 -32 10 40 4 281 108 598 282 865 287 439 779 770 1364 919 712
182 1495 -71 1770 -572 l36 -66 -38 -6 c-261 -38 -463 -92 -691 -184 -750
-301 -1338 -936 -1597 -1725 -43 -130 -98 -344 -109 -421 -7 -49 -7 -49 69
184 64 199 122 340 200 489 173 326 428 629 710 840 44 33 91 69 106 80 58 46
253 158 384 222 469 228 1047 320 1354 216 108 -36 130 -58 180 -173 77 -175
167 -319 314 -499 31 -39 57 -74 57 -78 0 -3 -17 -6 -38 -6 -55 0 -221 -86
-317 -163 -252 -204 -449 -584 -534 -1027 -27 -137 -51 -388 -51 -520 0 -113
24 -378 35 -388 4 -4 4 49 0 118 -7 129 7 409 26 515 6 33 22 113 35 178 113
542 454 961 901 1107 l83 27 28 -21 c16 -11 66 -56 113 -98 408 -373 1077
-722 1637 -853 67 -16 57 -7 -33 30 -183 75 -522 263 -755 418 -239 159 -371
261 -596 459 -272 240 -432 424 -517 593 -90 179 -75 363 43 534 253 369 948
594 1588 516 381 -47 790 -170 1130 -341 67 -34 122 -61 122 -59 0 8 -156 103
-275 168 -312 169 -702 296 -1095 354 -151 22 -474 22 -615 0 -352 -56 -633
-181 -889 -397 -76 -64 -134 -129 -181 -202 -32 -51 -38 -34 -32 85 10 195 71
354 204 531 352 469 1110 775 1823 736 165 -9 421 -46 485 -70 15 -6 30 -9 32
-7 6 7 -185 83 -277 111 -423 128 -952 134 -1353 15 -261 -78 -536 -221 -744
-386 -25 -20 -43 -29 -43 -21 0 35 128 255 225 388 199 273 476 539 775 745
544 375 1155 603 1805 671 177 19 519 14 680 -10 546 -81 1087 -309 1651 -696
121 -83 373 -262 402 -286 l26 -22 -89 -7 c-91 -8 -393 6 -430 20 -13 5 -17 5
-10 -2 20 -21 254 -95 390 -125 129 -28 156 -30 345 -31 154 -1 231 3 310 17
681 115 1186 552 1310 1133 19 91 21 96 30 87 4 -5 20 -38 35 -73z m-7025
-437 c-325 -330 -657 -562 -935 -653 -169 -56 -241 -66 -462 -66 -111 0 -200
-2 -198 -4 3 -2 39 -12 82 -23 318 -78 645 -62 969 47 100 33 315 127 344 151
8 6 31 19 50 29 l35 17 -31 -33 c-51 -56 -245 -326 -323 -449 -141 -225 -279
-523 -331 -720 -37 -137 -60 -314 -60 -462 l0 -68 -62 7 c-35 3 -68 10 -74 14
-6 5 -35 48 -64 96 -156 255 -486 491 -847 606 -127 41 -186 55 -378 90 l-70
13 -3 69 c-7 125 23 307 74 450 75 214 282 434 496 529 231 102 397 134 878
171 241 18 324 29 469 61 185 42 391 123 473 188 66 51 51 24 -32 -60z m-3455
-216 c42 -27 50 -51 39 -116 -4 -26 -6 -53 -5 -59 4 -27 -18 -11 -34 25 -9 20
-28 58 -41 84 -43 85 -27 109 41 66z m11075 -1566 c0 -42 14 -224 40 -497 5
-55 11 -134 12 -175 l3 -75 -130 -6 c-72 -4 -154 -10 -184 -14 l-53 -8 31 54
c110 190 185 401 247 696 18 89 34 100 34 25z m62 -3219 c93 -51 188 -98 473
-233 50 -23 209 -96 355 -162 605 -274 801 -392 1053 -637 119 -116 221 -243
362 -451 179 -264 361 -473 509 -584 62 -46 275 -176 289 -176 3 0 34 -13 69
-28 35 -16 79 -35 98 -42 38 -14 63 -31 57 -37 -5 -5 -110 -32 -172 -44 -97
-20 -332 -38 -480 -38 -363 0 -752 70 -1095 198 -46 17 -80 27 -74 21 14 -14
267 -142 344 -173 226 -93 503 -168 745 -203 152 -21 401 -44 485 -44 75 1
257 22 295 35 35 12 -44 -53 -155 -128 -182 -121 -472 -251 -679 -302 -204
-51 -317 -65 -528 -65 -205 0 -297 11 -442 50 -110 31 -255 87 -351 137 -177
92 -204 114 -227 192 -86 293 -219 614 -392 951 -87 170 -259 490 -271 505 -5
6 -16 76 -25 155 -40 365 -125 669 -276 979 -75 155 -86 181 -74 181 3 0 51
-26 107 -57z m-13922 -1202 c0 -47 40 -300 66 -416 35 -157 68 -269 126 -425
51 -135 51 -135 50 -251 -1 -81 -11 -179 -36 -330 -107 -653 -119 -1009 -50
-1449 33 -210 91 -403 167 -561 40 -82 131 -233 162 -265 5 -7 57 -62 114
-123 104 -111 137 -161 85 -126 -13 8 -24 11 -24 6 0 -5 -9 -11 -19 -14 -13
-3 -18 0 -15 7 3 7 -2 13 -11 13 -8 0 -16 -5 -16 -11 -1 -6 -4 2 -8 18 -3 17
-13 30 -24 32 -9 1 -15 -2 -11 -7 3 -5 9 -7 13 -5 4 3 8 -5 8 -17 2 -14 -1
-17 -6 -9 -4 8 -15 10 -26 6 -15 -6 -17 -4 -13 14 4 14 2 19 -8 15 -7 -2 -20
0 -30 5 -9 5 -26 7 -37 4 -20 -5 -20 -6 -1 -13 16 -6 15 -8 -8 -8 -19 -1 -28
-6 -28 -18 0 -15 -2 -14 -14 3 -14 18 -15 18 -21 2 -4 -10 -11 -15 -16 -12 -5
3 -9 0 -9 -7 0 -6 8 -9 19 -6 15 3 18 1 14 -11 -4 -10 -2 -13 5 -8 7 4 12 1
12 -8 0 -9 6 -16 13 -16 6 0 25 -17 41 -37 16 -20 24 -33 16 -28 -9 5 -11 4
-6 -4 6 -9 11 -9 21 -1 13 11 26 0 38 -33 7 -19 9 -20 -55 20 -26 15 -36 28
-31 38 3 9 2 15 -3 14 -20 -5 -52 18 -109 75 -33 33 -59 64 -57 69 1 4 -2 6
-7 3 -15 -10 -150 199 -211 328 -55 114 -130 330 -181 514 -12 45 -24 80 -26
78 -5 -5 35 -276 53 -361 42 -191 101 -359 182 -520 57 -115 179 -301 223
-343 l34 -32 -40 0 c-22 0 -51 7 -63 16 -15 10 -32 14 -48 10 -18 -5 -24 -3
-19 5 5 8 1 9 -13 5 -11 -4 -23 -2 -27 4 -3 5 -21 10 -40 10 -19 0 -44 4 -57
9 -13 5 -43 15 -68 22 -122 34 -424 173 -518 238 -15 10 -50 33 -78 52 -170
113 -382 315 -447 425 -147 247 -216 584 -188 908 17 186 44 348 86 510 39
151 110 378 132 419 8 16 13 31 10 33 -3 3 -52 -82 -135 -236 -79 -148 -187
-446 -213 -587 -7 -40 -16 -73 -20 -73 -23 0 -25 191 -4 357 62 489 257 926
618 1388 86 109 286 333 353 395 211 193 406 346 426 334 4 -3 8 -18 8 -33z
m14305 -493 c117 -239 199 -440 273 -669 52 -158 125 -433 143 -537 5 -31 14
-84 20 -117 29 -170 41 -315 46 -582 5 -244 3 -315 -12 -430 -26 -206 -92
-477 -144 -598 -5 -11 -21 -49 -36 -85 -16 -36 -47 -103 -70 -150 -40 -80 -62
-119 -117 -214 -13 -21 -28 -47 -34 -58 -6 -11 -21 -30 -33 -44 -11 -13 -20
-27 -20 -30 1 -3 -13 -23 -31 -44 -18 -21 -33 -42 -33 -47 -2 -10 -24 -38 -59
-74 -15 -15 -25 -29 -22 -32 3 -2 -8 -15 -23 -28 -16 -13 -29 -28 -29 -34 0
-5 -9 -12 -20 -14 -16 -3 -16 1 7 25 32 35 64 84 55 84 -4 0 -17 -9 -28 -20
-15 -13 -25 -17 -32 -10 -13 13 -39 13 -31 0 3 -5 -3 -10 -14 -10 -11 0 -22
-4 -25 -9 -3 -5 -14 -7 -24 -4 -19 5 -78 -22 -75 -34 0 -5 -3 -7 -8 -6 -5 2
-9 -2 -9 -8 0 -6 -9 -9 -19 -6 -16 4 -21 -1 -23 -22 -4 -33 -43 -43 -51 -12
-3 12 -12 18 -23 17 -11 -2 -25 2 -33 8 -11 8 -13 8 -7 -1 5 -9 0 -13 -13 -13
-12 0 -21 -4 -21 -10 0 -5 -11 -10 -25 -10 -15 0 -25 -6 -25 -14 0 -9 -10 -13
-29 -11 -24 2 -29 -1 -26 -16 3 -16 -2 -18 -42 -16 -29 2 -48 8 -52 17 -3 8
-16 16 -28 16 -16 1 -20 -4 -18 -17 3 -17 -3 -19 -46 -19 -37 0 -49 4 -49 15
0 8 -4 15 -9 15 -5 0 -15 25 -22 55 -7 31 -17 54 -23 52 -6 -2 -11 -8 -11 -13
0 -5 -4 -16 -10 -24 -8 -13 -7 -13 8 -1 15 12 17 11 17 -7 0 -34 -18 -72 -35
-72 -20 0 -19 -16 3 -30 15 -10 14 -11 -6 -6 -20 4 -21 2 -10 -12 32 -39 319
-322 327 -322 5 0 11 7 15 15 3 8 12 15 21 15 14 0 13 -3 -2 -19 -10 -10 -31
-27 -48 -37 -27 -18 -29 -18 -22 -1 5 14 -29 52 -151 173 -86 85 -158 150
-160 144 -2 -5 -10 -10 -18 -10 -8 0 -11 -6 -7 -17 4 -10 2 -14 -5 -9 -6 3
-13 2 -17 -4 -3 -5 0 -10 7 -10 8 0 6 -5 -4 -11 -21 -12 -24 -35 -5 -42 7 -3
4 -6 -6 -6 -10 -1 -16 -5 -13 -10 3 -4 -3 -16 -14 -26 -10 -9 -16 -23 -14 -30
3 -7 0 -16 -5 -20 -6 -3 -9 -11 -6 -16 4 -5 1 -9 -4 -9 -6 0 -11 -10 -11 -23
0 -14 -6 -24 -15 -24 -17 0 -20 18 -5 33 6 6 13 21 15 34 2 13 9 28 15 34 5 5
10 20 10 32 0 13 5 26 10 29 6 3 10 16 10 28 0 12 7 31 15 41 8 10 12 23 9 27
-3 5 2 22 11 39 8 16 13 30 10 30 -3 0 3 17 14 39 11 21 17 41 14 45 -3 3 1
23 9 43 34 83 84 310 120 553 18 119 17 626 -1 745 -21 143 -69 361 -102 471
l-31 101 111 108 c336 327 591 763 711 1210 57 212 100 508 100 688 0 62 4 97
11 97 5 0 57 -96 114 -212z m-16100 -357 c143 -63 222 -180 201 -295 -7 -35
-70 -108 -110 -127 -20 -10 -20 -9 1 9 21 18 25 43 10 58 -4 4 -7 -1 -7 -11 0
-14 -3 -16 -12 -7 -7 7 -8 16 -2 25 5 7 1 4 -8 -6 -10 -11 -18 -14 -18 -7 0 7
-6 6 -16 -4 -19 -19 -31 -21 -16 -3 8 10 6 13 -9 13 -10 0 -19 -4 -19 -9 0 -5
-8 -6 -17 -3 -10 3 -24 1 -32 -4 -10 -6 -18 -4 -26 6 -9 13 -11 12 -12 -7 -1
-13 12 -38 32 -61 19 -21 35 -41 35 -45 0 -6 -94 79 -110 100 -13 16 -94 24
-125 12 -14 -5 -16 -4 -7 3 11 7 11 10 -2 15 -8 3 -17 1 -20 -6 -3 -9 -8 -8
-15 3 -9 13 -11 13 -11 -2 0 -9 -5 -20 -12 -24 -6 -4 -8 -3 -4 4 3 6 1 14 -6
19 -18 11 -38 13 -38 4 0 -5 -11 -6 -25 -3 -15 2 -22 9 -18 16 4 6 -1 5 -10
-2 -9 -8 -21 -11 -27 -7 -5 3 -10 1 -10 -5 0 -6 -5 -8 -10 -5 -6 4 -8 11 -4
16 3 5 -7 8 -23 7 -16 -1 -34 1 -41 6 -7 4 -12 2 -12 -6 0 -10 -2 -10 -9 1 -5
7 -14 10 -20 7 -6 -4 -11 -1 -12 6 0 11 -2 11 -6 0 -4 -10 -8 -9 -19 5 -13 17
-13 17 -14 -4 0 -25 -10 -29 -27 -12 -7 7 -13 8 -17 0 -9 -13 -83 25 -99 50
-7 11 -19 19 -28 19 -22 0 -50 33 -40 48 10 16 510 198 646 235 39 11 155 -2
200 -22z m4605 -430 c12 -64 26 -131 31 -148 14 -46 15 -131 1 -145 -9 -9 -12
-9 -12 3 -1 11 -3 11 -13 -2 -7 -9 -20 -15 -29 -13 -12 1 -18 -4 -18 -16 0
-12 -9 -20 -22 -22 -13 -2 -22 -9 -20 -16 1 -6 -5 -12 -13 -12 -8 0 -15 -9
-15 -20 0 -31 -36 -95 -63 -113 -14 -9 -45 -21 -70 -28 -54 -13 -56 -19 -58
-149 -2 -85 -3 -89 -9 -40 -12 93 15 374 52 535 44 195 154 524 192 574 8 10
15 -24 28 -129 9 -79 26 -195 38 -259z m-5207 62 c-7 -2 -19 -2 -25 0 -7 3 -2
5 12 5 14 0 19 -2 13 -5z m394 -9 c-3 -3 -12 -4 -19 -1 -8 3 -5 6 6 6 11 1 17
-2 13 -5z m258 -54 c3 -5 1 -10 -4 -10 -6 0 -11 5 -11 10 0 6 2 10 4 10 3 0 8
-4 11 -10z m11100 -167 c76 -26 205 -109 309 -198 82 -70 94 -81 157 -155 203
-238 309 -533 309 -860 l0 -102 -27 6 c-112 21 -229 28 -385 23 -95 -4 -187
-9 -204 -13 l-30 -6 -12 209 c-12 220 -28 342 -68 538 -22 111 -43 189 -123
465 -17 58 -31 108 -31 112 0 9 51 0 105 -19z m3135 11 c0 -8 -5 -12 -10 -9
-6 4 -8 11 -5 16 9 14 15 11 15 -7z m-14670 -32 c58 -16 155 -37 215 -47 61
-9 120 -21 132 -26 13 -5 36 -30 53 -56 69 -109 105 -299 115 -598 15 -456 68
-734 190 -992 l43 -92 -31 -20 c-51 -31 -196 -100 -236 -112 -104 -31 -190
-48 -300 -60 -108 -11 -136 -11 -249 5 -237 32 -416 113 -608 274 -218 183
-431 577 -539 997 -8 33 -18 68 -21 79 -5 15 2 13 32 -12 287 -234 501 -354
744 -418 45 -12 106 -17 200 -17 126 -1 141 1 229 32 98 33 212 102 244 146
22 30 18 31 -27 4 -58 -34 -134 -49 -248 -49 -160 0 -332 45 -499 131 -82 43
-158 109 -124 109 47 0 192 128 282 250 102 138 207 339 257 493 4 12 12 16
23 13 10 -3 65 -18 123 -34z m14646 -7 c-3 -8 -1 -15 4 -15 6 0 10 -8 10 -18
0 -10 -7 -19 -15 -19 -15 0 -22 47 -8 60 11 12 15 8 9 -8z m-19 -97 c-3 -7 -5
-2 -5 12 0 14 2 19 5 13 2 -7 2 -19 0 -25z m-9669 -76 c2 -7 -3 -12 -12 -12
-9 0 -16 7 -16 16 0 17 22 14 28 -4z m41 -61 c-4 -29 -11 -56 -15 -60 -7 -6 4
82 13 106 10 26 11 8 2 -46z m9552 -58 c-12 -20 -14 -14 -5 12 4 9 9 14 11 11
3 -2 0 -13 -6 -23z m-9574 -45 c-3 -8 -6 -5 -6 6 -1 11 2 17 5 13 3 -3 4 -12
1 -19z m9289 -75 c-4 -38 -9 -89 -12 -114 l-6 -47 -20 20 c-13 13 -16 23 -10
27 16 10 26 61 12 61 -7 0 -10 -7 -6 -15 3 -8 1 -15 -5 -15 -7 0 -9 13 -7 30
3 17 0 34 -5 37 -6 4 -7 1 -3 -6 5 -8 3 -11 -5 -9 -8 1 -15 -2 -17 -7 -2 -6
-12 -13 -23 -17 -11 -4 -17 -12 -14 -18 4 -6 1 -9 -7 -8 -7 2 -12 -3 -10 -10
1 -8 -2 -11 -7 -8 -8 5 -46 -20 -80 -52 -19 -19 -115 -92 -160 -121 -19 -13
-42 -30 -49 -38 -17 -17 -53 -36 -58 -31 -2 3 15 18 39 36 23 17 66 49 96 71
30 22 65 51 77 63 30 32 79 75 144 128 30 25 70 60 89 78 19 17 38 32 44 32 6
0 7 -25 3 -67z m-9299 35 c-3 -8 -6 -5 -6 6 -1 11 2 17 5 13 3 -3 4 -12 1 -19z
m14003 -32 c0 -3 -4 -8 -10 -11 -5 -3 -10 -1 -10 4 0 6 5 11 10 11 6 0 10 -2
10 -4z m-1642 -105 c29 -12 115 -45 190 -72 250 -91 322 -141 384 -266 76
-154 78 -350 7 -585 -25 -81 -32 -96 -48 -93 -17 3 -17 0 -8 -25 9 -24 8 -32
-7 -49 -10 -11 -15 -24 -12 -30 4 -6 -1 -25 -11 -43 -9 -18 -16 -37 -15 -41 1
-5 -2 -6 -7 -3 -19 12 -19 45 0 51 20 7 26 40 9 50 -5 3 -10 11 -10 17 0 7 6
6 15 -2 13 -11 15 -6 15 34 0 30 -4 45 -10 41 -6 -4 -10 -16 -8 -28 2 -13 -2
-21 -9 -20 -7 2 -13 -2 -13 -7 0 -6 -5 -10 -11 -10 -5 0 -7 6 -4 13 4 6 0 4
-8 -5 -17 -22 -46 -23 -53 -3 -4 8 -14 15 -25 15 -10 0 -23 8 -28 18 -6 9 -11
13 -11 8 0 -5 8 -18 18 -29 9 -11 11 -17 5 -13 -7 4 -13 2 -13 -4 0 -6 -5 -8
-10 -5 -6 4 -9 9 -6 13 2 4 0 16 -5 27 -7 15 -8 12 -5 -12 2 -18 0 -33 -5 -33
-5 0 -9 6 -9 14 0 9 -7 12 -20 9 -11 -3 -18 -9 -15 -13 3 -4 -13 -10 -34 -12
-26 -2 -37 0 -34 8 2 7 -1 15 -8 20 -7 4 -10 3 -6 -2 8 -14 -22 -51 -31 -38
-11 16 -52 24 -52 10 0 -7 -16 -13 -37 -15 -21 -1 -46 -3 -57 -4 -14 -1 -23
10 -35 43 -20 58 -20 58 -35 38 -7 -10 -15 -16 -17 -14 -2 3 -4 -11 -3 -30 2
-25 -3 -37 -18 -45 -11 -6 -21 -9 -23 -7 -1 2 2 95 8 208 12 237 -1 523 -33
735 -11 72 -25 161 -30 199 -6 37 -12 72 -15 76 -3 5 30 -9 72 -30 43 -21 102
-48 131 -59z m-12385 38 c-6 -6 -7 3 -4 23 4 28 6 29 9 9 2 -13 0 -27 -5 -32z
m13942 22 c19 -7 18 -9 -5 -21 -14 -8 -31 -15 -39 -16 -8 -2 -28 -13 -44 -25
-28 -20 -45 -25 -100 -28 -10 -1 -16 -5 -13 -10 3 -5 0 -9 -7 -8 -35 1 -61 -4
-52 -11 14 -10 17 -32 4 -32 -5 0 -7 -5 -4 -10 5 -8 11 -8 20 0 11 9 12 7 8
-10 -4 -16 -2 -19 13 -13 10 4 0 -10 -21 -30 -22 -20 -43 -37 -48 -37 -5 0
-15 -7 -23 -15 -12 -11 -20 -12 -35 -4 -21 11 -17 29 7 29 8 0 13 5 12 12 -2
6 13 20 32 29 34 17 34 18 9 19 -15 0 -32 -6 -38 -14 -7 -8 -21 -13 -31 -11
-14 3 -17 -1 -13 -12 5 -13 1 -15 -20 -11 -23 4 -25 3 -16 -13 5 -11 12 -19
15 -19 3 0 2 5 -1 10 -3 6 1 10 10 10 9 0 14 -4 10 -9 -3 -5 -1 -12 5 -16 17
-11 11 -23 -17 -34 -16 -6 -64 -31 -108 -56 -60 -33 -87 -43 -107 -39 -21 4
-28 2 -28 -9 0 -12 -48 -34 -55 -25 -1 2 -17 46 -35 98 -18 52 -39 105 -46
117 -16 26 -30 21 125 48 160 29 419 99 531 143 86 34 79 33 105 23z m-11201
-105 c17 -14 26 -29 21 -36 -4 -6 1 -17 11 -25 18 -14 18 -14 -5 -15 -19 0
-22 -3 -14 -11 8 -8 17 -8 32 3 19 14 19 16 4 38 -12 17 -3 13 33 -15 27 -20
93 -66 148 -101 54 -35 95 -64 90 -64 -16 0 -114 53 -114 62 0 4 -5 8 -10 8
-6 0 -23 8 -37 18 -28 18 -73 24 -73 10 0 -4 -7 -8 -16 -8 -9 0 -12 -5 -8 -12
4 -7 3 -8 -4 -4 -7 4 -12 14 -12 22 0 8 -4 13 -9 9 -13 -7 -41 34 -34 51 3 9
-2 14 -17 14 -13 0 -20 5 -17 13 2 6 -2 17 -9 22 -7 6 -14 17 -16 24 -2 8 -15
26 -30 39 -16 13 -28 28 -28 33 0 10 60 -29 114 -75z m-2363 -59 c154 -306
376 -564 721 -839 70 -56 126 -103 125 -104 -2 -2 -68 19 -147 46 -242 82
-322 95 -617 95 l-251 0 -6 29 c-9 44 -7 276 4 412 9 123 46 325 87 477 8 29
21 11 84 -116z m8913 -9 c-9 -60 -23 -82 -20 -33 2 38 13 75 22 75 2 0 1 -19
-2 -42z m-6452 -95 c-8 -13 -2 -24 26 -50 19 -18 39 -33 43 -33 5 0 9 -5 9
-12 0 -6 7 -19 16 -29 9 -10 14 -24 12 -33 -2 -10 -28 14 -71 66 -64 75 -68
83 -51 95 24 17 27 16 16 -4z m6421 -43 c-5 -19 -23 -29 -23 -12 0 7 20 32 26
32 1 0 0 -9 -3 -20z m-463 -22 c-12 -10 -27 -18 -33 -18 -5 0 -3 8 6 18 10 10
25 19 34 19 13 0 11 -4 -7 -19z m-5650 -43 c11 -13 10 -14 -4 -9 -9 3 -16 10
-16 15 0 13 6 11 20 -6z m5596 3 c4 -7 3 -10 -1 -5 -5 4 -17 0 -27 -10 -17
-15 -17 -18 -2 -34 28 -31 5 -42 -24 -12 l-27 28 25 22 c29 25 46 29 56 11z
m-5527 -34 c18 -9 30 -18 27 -21 -3 -3 -20 4 -38 16 -39 25 -34 27 11 5z m66
-42 c-3 -3 -11 0 -18 7 -9 10 -8 11 6 5 10 -3 15 -9 12 -12z m5263 -14 c68
-35 142 -158 178 -298 23 -93 15 -395 -14 -493 -11 -38 -24 -73 -30 -79 -6 -6
-33 7 -78 37 -80 54 -333 179 -449 223 -44 16 -113 38 -152 48 -40 10 -73 22
-73 25 0 11 553 559 564 559 5 0 29 -10 54 -22z m-5213 -18 c3 -6 -1 -7 -9 -4
-18 7 -21 14 -7 14 6 0 13 -4 16 -10z m-250 -92 c41 -43 24 -35 -30 14 -16 16
-25 28 -20 28 6 0 29 -19 50 -42z m549 -177 c11 -12 17 -23 14 -26 -5 -6 -132
116 -208 200 -25 27 5 4 65 -52 61 -55 119 -110 129 -122z m366 110 c208 -65
573 -149 781 -181 156 -23 504 -69 604 -80 183 -18 494 -63 550 -80 17 -4 42
-11 58 -14 15 -4 27 -11 27 -16 0 -5 -27 -30 -60 -55 -131 -101 -347 -400
-478 -661 -43 -85 -132 -295 -132 -311 0 -2 30 23 68 56 89 80 211 159 350
227 225 110 398 159 666 189 l59 7 -7 -109 c-4 -59 -17 -152 -30 -205 -13 -54
-19 -95 -14 -92 22 14 156 324 172 401 l7 29 197 17 c108 10 227 23 263 28 37
6 89 9 115 7 l49 -3 -49 -52 c-27 -29 -46 -53 -42 -53 10 0 166 80 205 105 30
20 59 25 171 35 506 43 769 35 1035 -32 217 -54 478 -192 654 -346 81 -71 65
-43 -41 74 -114 126 -216 216 -336 298 -56 39 -102 73 -102 76 0 3 15 14 33
23 174 90 458 307 660 505 49 49 67 61 67 48 0 -36 -124 -330 -212 -505 -48
-96 -88 -177 -88 -180 0 -3 68 61 152 142 l153 148 23 -73 c68 -214 161 -627
192 -853 43 -321 60 -546 67 -877 5 -269 4 -318 -8 -318 -29 0 -360 -50 -369
-55 -5 -3 -27 30 -49 72 -192 367 -748 744 -1301 883 -239 60 -404 80 -652 80
-325 -1 -587 -59 -841 -186 -247 -124 -403 -261 -648 -569 -108 -136 -189
-261 -189 -292 0 -12 7 -14 31 -9 47 9 144 55 197 93 26 18 51 33 55 33 5 0
-4 -23 -20 -51 -31 -55 -154 -187 -202 -215 -30 -18 -42 -44 -21 -44 6 0 33
11 61 25 64 33 132 104 221 233 73 105 200 234 304 308 258 183 421 259 676
316 146 33 412 32 573 -1 287 -60 584 -200 810 -382 154 -124 321 -323 419
-502 160 -291 222 -742 160 -1167 -28 -191 -89 -471 -137 -630 -20 -63 -34
-116 -32 -118 7 -7 171 277 246 427 158 313 258 615 304 926 19 123 38 420 31
473 -3 23 -2 42 2 42 4 1 77 11 162 24 138 20 156 21 164 7 12 -20 9 -577 -4
-710 -6 -57 -9 -105 -6 -108 2 -2 12 20 22 49 22 67 121 288 177 392 55 104
72 110 63 25 -9 -81 -39 -300 -76 -549 -23 -155 -156 -948 -175 -1045 -7 -38
-21 -110 -30 -160 -28 -153 -92 -471 -136 -675 -23 -107 -45 -213 -49 -235
-54 -271 -203 -897 -300 -1255 -47 -172 -123 -394 -160 -467 -116 -228 -415
-513 -815 -778 -110 -73 -537 -325 -550 -325 -1 0 -51 -27 -111 -61 -60 -33
-269 -141 -464 -239 -1130 -566 -1957 -897 -2515 -1007 -128 -25 -454 -25
-625 1 -288 42 -567 93 -746 137 -660 159 -1404 437 -2128 795 -554 273 -988
527 -1270 743 -54 42 -110 85 -125 96 -83 62 -269 237 -346 324 -145 165 -176
217 -257 430 -36 96 -152 461 -183 576 -7 28 -45 167 -84 310 -93 337 -236
917 -337 1361 -83 367 -97 441 -129 660 -23 167 -38 287 -100 784 -24 193 -40
312 -70 504 -18 117 -19 192 -4 202 42 25 229 -275 309 -497 33 -90 54 -124
46 -74 -3 17 -10 82 -15 145 -6 63 -15 174 -22 245 -6 72 -16 164 -23 206
l-12 76 61 -20 c33 -11 61 -20 62 -21 1 -1 7 -127 13 -281 12 -304 29 -432 79
-601 63 -212 110 -320 267 -611 53 -98 126 -234 162 -303 69 -131 109 -199 97
-165 -129 376 -179 578 -220 887 -24 184 -17 572 14 711 82 372 265 660 579
916 132 107 349 224 512 276 290 91 595 89 803 -6 33 -15 36 -34 5 -25 -128
35 -313 32 -453 -9 -354 -101 -625 -381 -769 -794 -28 -80 -106 -418 -106
-458 0 -4 14 7 31 25 42 43 88 56 166 48 155 -16 258 -89 333 -236 19 -36 24
-61 24 -130 1 -73 -3 -94 -27 -145 -34 -72 -104 -147 -172 -183 -45 -24 -61
-27 -150 -27 -86 0 -105 3 -138 23 -21 12 -42 22 -46 22 -4 0 -1 -33 6 -72 69
-365 149 -582 297 -807 157 -240 354 -410 588 -507 48 -20 86 -40 83 -44 -8
-12 -348 -25 -678 -25 l-319 0 49 -21 c81 -35 193 -72 298 -98 353 -88 860
-70 1295 46 41 11 89 24 105 28 64 17 184 59 268 94 111 46 271 126 264 132
-2 3 -24 0 -48 -5 -24 -5 -93 -14 -154 -21 -169 -17 -278 -31 -302 -37 -40 -9
-24 11 44 57 190 128 374 390 473 675 92 264 115 419 115 765 0 234 -3 280
-23 395 -57 320 -154 587 -286 794 -60 94 -81 135 -63 124 51 -30 120 -97 153
-148 54 -82 119 -146 183 -178 86 -43 126 -31 43 13 -42 21 -167 129 -207 177
l-26 32 68 -24 c103 -36 137 -49 151 -59 23 -14 23 0 0 26 -38 43 -125 148
-194 238 -208 267 -382 416 -627 534 -247 120 -478 170 -777 171 -186 0 -284
-12 -483 -61 -179 -44 -297 -88 -482 -179 -219 -107 -414 -238 -539 -361 -66
-65 -64 -65 -108 21 -30 59 -133 210 -199 290 -101 124 -264 272 -376 343 -24
15 -43 29 -43 32 0 3 51 17 113 32 298 73 534 230 688 460 32 48 59 92 59 97
0 6 -19 -8 -42 -30 -23 -21 -66 -51 -96 -66 -48 -23 -67 -27 -151 -27 -95 0
-180 22 -167 42 7 12 157 111 226 150 114 64 306 129 534 181 l137 32 152 -75
c464 -228 814 -311 1355 -319 89 -1 162 -1 162 0 0 0 -24 6 -52 13 -90 20
-270 81 -333 112 -33 17 -91 51 -129 77 -69 45 -186 147 -186 160 0 10 104 3
330 -20 478 -50 828 -138 1125 -284 160 -79 285 -163 366 -248 l50 -52 -19 45
c-139 324 -220 455 -461 750 -90 110 -90 110 24 63 94 -38 262 -99 350 -126
69 -22 134 -38 340 -88 22 -5 69 -13 105 -19 36 -5 112 -17 170 -27 83 -14
166 -17 400 -17 264 0 309 2 425 23 254 45 471 109 622 183 l64 31 -141 47
c-303 102 -577 269 -859 525 -150 136 -172 169 -56 85 42 -30 98 -67 185 -120
294 -179 693 -335 1010 -394 47 -9 105 -20 130 -26 101 -22 400 -32 578 -20
221 15 258 25 132 33 -86 5 -271 39 -375 67 -197 55 -507 198 -703 326 -133
87 -352 270 -352 295 0 15 32 10 130 -20z m6359 -98 c22 -98 22 -153 1 -153
-6 0 -10 9 -10 19 0 11 -3 27 -7 37 -6 16 -7 16 -13 -2 -4 -10 -7 7 -5 39 1
38 -2 56 -9 54 -6 -3 -10 -9 -9 -14 1 -6 -10 -10 -24 -10 -21 0 -23 1 -10 9 9
5 22 19 28 31 9 18 9 20 -2 10 -18 -18 -42 -16 -35 2 4 12 2 13 -14 2 -22 -13
-35 -41 -25 -56 5 -9 -14 -9 -40 1 -5 1 -10 -1 -10 -6 0 -5 -11 -13 -25 -18
-20 -7 -22 -11 -10 -19 11 -8 9 -9 -8 -4 -22 6 -23 5 -12 -17 l11 -23 -18 23
-19 23 -18 -20 c-10 -11 -23 -18 -29 -14 -6 4 -8 -4 -5 -20 3 -15 1 -24 -3
-21 -5 3 -9 13 -9 21 0 14 -3 14 -20 -3 -31 -31 -45 -41 -67 -48 -12 -4 -29
-18 -38 -32 -9 -14 -23 -23 -30 -20 -7 2 -18 -1 -24 -8 -12 -15 2 -37 34 -54
11 -6 15 -12 8 -12 -6 0 -19 -7 -27 -16 -14 -13 -16 -14 -16 0 0 26 -21 71
-28 60 -10 -14 -72 -57 -77 -52 -2 2 27 28 66 58 38 30 69 58 69 62 0 4 5 8
11 8 6 0 28 13 48 29 20 15 50 36 66 45 17 9 50 32 75 51 25 19 55 39 66 44
20 9 114 82 159 123 24 23 26 20 54 -109z m-7184 69 c-3 -3 -11 0 -18 7 -9 10
-8 11 6 5 10 -3 15 -9 12 -12z m-4406 -445 c192 -174 344 -297 365 -297 5 0
-17 -16 -50 -36 -169 -102 -329 -251 -460 -430 -42 -57 -79 -104 -81 -104 -18
0 -109 57 -151 95 -90 81 -112 133 -137 326 -30 227 -13 452 56 742 l31 128
141 -146 c77 -81 206 -206 286 -278z m11498 367 c-3 -3 -12 -4 -19 -1 -8 3 -5
6 6 6 11 1 17 -2 13 -5z m-6912 -22 c-3 -3 -11 0 -18 7 -9 10 -8 11 6 5 10 -3
15 -9 12 -12z m6833 -27 c-3 -3 -9 2 -12 12 -6 14 -5 15 5 6 7 -7 10 -15 7
-18z m-1333 -5 c3 -5 1 -10 -4 -10 -6 0 -11 5 -11 10 0 6 2 10 4 10 3 0 8 -4
11 -10z m1321 -46 c1 -9 0 -13 -4 -10 -3 4 -7 14 -8 22 -1 9 0 13 4 10 3 -4 7
-14 8 -22z m-6656 -4 c8 -5 11 -12 7 -16 -4 -4 -15 0 -24 9 -18 18 -8 23 17 7z
m65 -40 c17 -11 27 -20 24 -20 -9 0 -69 31 -69 36 0 9 16 3 45 -16z m6487 -30
c-12 -12 -22 -18 -22 -14 0 10 34 42 39 38 3 -2 -5 -13 -17 -24z m192 4 c3 -8
2 -12 -4 -9 -6 3 -10 10 -10 16 0 14 7 11 14 -7z m130 -3 c11 -12 13 -21 7
-25 -6 -4 -8 -13 -4 -21 3 -8 0 -15 -6 -15 -13 0 -25 45 -16 59 3 6 0 8 -8 5
-8 -3 -18 -1 -22 5 -11 19 31 12 49 -8z m-6683 -38 c8 -7 20 -13 25 -13 5 0
20 -10 34 -21 18 -14 8 -11 -35 10 -33 16 -69 37 -80 45 -19 15 -18 16 10 4
17 -6 37 -18 46 -25z m6639 27 c0 -5 -4 -10 -10 -10 -5 0 -10 5 -10 10 0 6 5
10 10 10 6 0 10 -4 10 -10z m-440 -70 c8 -16 8 -20 -4 -20 -9 0 -14 8 -13 20
1 11 2 20 4 20 1 0 7 -9 13 -20z m486 -33 c-2 -7 -5 -4 -5 6 -1 9 -6 17 -12
17 -5 0 -7 5 -3 11 9 15 28 -16 20 -34z m-6446 8 c10 -12 10 -15 -4 -15 -9 0
-16 7 -16 15 0 8 2 15 4 15 2 0 9 -7 16 -15z m5876 -42 c-11 -11 -24 9 -18 29
l5 22 9 -24 c5 -12 6 -25 4 -27z m-979 -5 c-3 -8 -6 -5 -6 6 -1 11 2 17 5 13
3 -3 4 -12 1 -19z m868 -8 c-10 -11 -22 -20 -28 -20 -5 0 1 9 14 20 31 25 37
25 14 0z m152 -42 c-3 -8 -6 -5 -6 6 -1 11 2 17 5 13 3 -3 4 -12 1 -19z m-207
-3 c-6 -8 -8 -20 -4 -27 6 -10 5 -11 -8 -1 -8 7 -17 12 -19 10 -3 -1 4 6 14
16 23 21 34 23 17 2z m-3413 -25 c37 -22 116 -124 144 -185 70 -152 -53 -149
-162 5 -43 61 -81 158 -69 181 14 24 46 24 87 -1z m3377 -10 c16 0 38 -68 25
-76 -14 -8 -10 -24 6 -24 10 0 15 -10 15 -27 0 -16 7 -40 14 -55 8 -15 11 -30
6 -33 -15 -10 -38 24 -45 67 -4 24 -10 48 -13 53 -14 22 -39 105 -33 111 3 3
7 0 9 -5 2 -6 9 -11 16 -11z m-6951 -47 c-5 -11 -8 -12 -13 -2 -5 7 -6 19 -3
26 5 11 8 12 13 2 5 -7 6 -19 3 -26z m127 22 c0 -8 -7 -15 -16 -15 -14 0 -14
3 -4 15 7 8 14 15 16 15 2 0 4 -7 4 -15z m104 -84 c41 -45 -2 -18 -49 31 -48
49 -48 50 -10 21 22 -17 49 -40 59 -52z m-265 47 c0 -16 -2 -18 -6 -8 -3 8
-11 18 -17 22 -7 5 -4 8 7 8 11 0 17 -7 16 -22z m541 12 c0 -5 -2 -10 -4 -10
-3 0 -8 5 -11 10 -3 6 -1 10 4 10 6 0 11 -4 11 -10z m9068 -70 c-5 -36 -10
-82 -12 -102 -1 -20 -7 -43 -12 -50 -6 -7 -11 -24 -12 -37 0 -13 -9 -31 -18
-40 -15 -15 -16 -15 -11 0 19 54 44 176 53 252 4 32 10 55 14 50 4 -4 4 -37
-2 -73z m-2351 38 c-3 -7 -5 -2 -5 12 0 14 2 19 5 13 2 -7 2 -19 0 -25z
m-6904 -98 c14 -17 14 -20 2 -20 -8 0 -15 6 -15 14 0 8 -6 17 -12 19 -7 3 -8
6 -3 6 6 1 18 -8 28 -19z m-8828 0 c3 -6 -1 -7 -9 -4 -18 7 -21 14 -7 14 6 0
13 -4 16 -10z m8555 -20 c0 -5 -11 -9 -24 -8 -14 1 -22 6 -20 10 7 12 44 10
44 -2z m310 -20 c0 -5 -6 -10 -14 -10 -8 0 -18 5 -21 10 -3 6 3 10 14 10 12 0
21 -4 21 -10z m46 -18 c-4 -3 -14 2 -24 12 -16 18 -16 18 6 6 13 -6 21 -14 18
-18z m9359 -50 c-5 -5 -25 43 -25 61 1 7 7 -3 16 -22 8 -19 12 -36 9 -39z
m-9548 52 c-3 -3 -12 -4 -19 -1 -8 3 -5 6 6 6 11 1 17 -2 13 -5z m6803 -3 c0
-6 -4 -13 -10 -16 -5 -3 -10 1 -10 9 0 9 5 16 10 16 6 0 10 -4 10 -9z m3115
-31 c-3 -5 -12 -10 -18 -10 -7 0 -6 4 3 10 19 12 23 12 15 0z m-11585 -20
c-11 -7 -7 -8 15 -5 52 10 275 -109 275 -146 0 -15 -7 -19 -39 -19 -123 0
-331 87 -331 139 0 17 42 38 80 40 13 1 13 0 0 -9z m8482 -30 c3 -16 1 -30 -4
-30 -4 0 -8 14 -8 30 0 17 2 30 4 30 2 0 6 -13 8 -30z m2808 16 c0 -3 -4 -8
-10 -11 -5 -3 -10 -1 -10 4 0 6 5 11 10 11 6 0 10 -2 10 -4z m270 -40 c0 -3
-4 -8 -10 -11 -5 -3 -10 -1 -10 4 0 6 5 11 10 11 6 0 10 -2 10 -4z m-333 -28
c-3 -8 -6 -5 -6 6 -1 11 2 17 5 13 3 -3 4 -12 1 -19z m-17964 -79 c5 -4 -3 -4
-17 -2 -16 3 -32 17 -41 36 l-16 31 33 -29 c18 -17 37 -33 41 -36z m17694 31
c-1 -11 -5 -20 -9 -20 -10 0 -10 4 -2 24 8 22 13 20 11 -4z m-26 -73 c-10 -9
-11 -8 -5 6 3 10 9 15 12 12 3 -3 0 -11 -7 -18z m-17581 -31 c-7 -7 -14 -6
-21 1 -9 9 -7 12 9 10 14 -1 18 -5 12 -11z m1545 -167 c21 -33 24 -43 14 -50
-12 -7 -12 -10 0 -21 10 -10 12 -10 7 0 -4 6 -3 12 2 12 6 0 12 -7 16 -15 3
-8 1 -15 -4 -15 -6 0 -10 -9 -10 -20 0 -11 5 -20 11 -20 7 0 8 -11 4 -30 -6
-26 -4 -30 14 -30 12 0 21 -4 21 -10 0 -5 -14 -10 -31 -10 -17 0 -28 4 -24 10
3 6 1 10 -4 10 -6 0 -11 -5 -11 -12 0 -24 -13 3 -14 29 -1 18 -7 29 -19 31
-18 4 -20 -17 -2 -30 7 -5 6 -8 0 -8 -6 0 -10 -15 -9 -32 1 -18 2 -46 3 -61 1
-16 5 -26 11 -22 6 3 10 2 10 -4 0 -5 -4 -13 -10 -16 -15 -10 -12 -35 5 -35 8
0 15 7 15 16 0 11 6 15 18 12 11 -3 19 0 19 7 0 7 -7 12 -15 11 -9 -1 -19 12
-23 28 -5 16 -14 33 -21 37 -9 6 -7 9 8 9 12 0 29 -10 38 -22 9 -13 15 -18 12
-13 -7 17 22 48 38 42 9 -4 18 -1 22 5 4 5 21 -21 39 -58 22 -46 30 -73 24
-81 -7 -7 -6 -14 1 -18 5 -3 10 0 10 7 0 9 3 9 10 -2 5 -8 7 -24 4 -35 -4 -14
-3 -16 4 -7 7 11 14 6 31 -21 22 -36 28 -62 11 -52 -6 3 -7 -1 -3 -10 4 -13 8
-14 14 -4 5 9 16 -3 36 -35 15 -27 41 -65 56 -85 16 -20 33 -44 39 -54 8 -17
7 -17 -12 -7 -12 6 -26 9 -33 6 -7 -2 -4 -5 6 -5 22 -1 22 -17 0 -30 -15 -8
-15 -11 -3 -28 13 -16 13 -17 -1 -6 -9 7 -19 9 -24 5 -4 -4 -3 3 4 15 14 28
14 34 -1 31 -7 -2 -16 -12 -20 -23 -5 -16 -6 -14 -7 9 -1 29 -2 29 -16 10 -13
-16 -15 -16 -13 -2 2 9 -1 17 -7 17 -5 0 -13 10 -17 23 -6 23 -6 23 -7 -2 -1
-21 -3 -22 -11 -9 -5 9 -7 26 -5 39 4 22 4 22 -14 4 -14 -15 -16 -23 -7 -38 8
-14 8 -20 -2 -23 -6 -3 -10 -9 -6 -14 7 -12 -5 -49 -17 -49 -6 0 -6 7 0 19 10
19 6 31 -12 31 -5 0 -7 -9 -4 -20 6 -22 -8 -28 -16 -7 -2 6 -4 -1 -4 -18 0
-16 2 -24 4 -17 3 6 9 12 14 12 17 0 9 -26 -15 -49 -19 -18 -24 -19 -29 -7 -3
8 -3 17 1 19 4 2 2 3 -4 1 -6 -1 -17 3 -23 9 -8 8 -11 7 -11 -6 0 -9 -4 -17
-8 -17 -5 0 -9 14 -9 31 0 19 -6 35 -17 41 -9 5 -14 14 -10 19 3 6 -1 24 -9
42 -21 45 -31 113 -18 122 6 3 11 11 11 18 0 6 -7 2 -15 -9 -13 -18 -14 -17
-15 16 0 19 -5 51 -11 70 -14 48 -22 377 -9 385 5 3 10 21 10 40 0 30 8 65 15
65 1 0 15 -19 30 -41z m16539 -115 c3 -8 2 -12 -4 -9 -6 3 -10 10 -10 16 0 14
7 11 14 -7z m-16461 -44 c3 -11 2 -20 -3 -20 -4 0 -10 9 -13 20 -3 11 -2 20 3
20 4 0 10 -9 13 -20z m1517 10 c0 -5 -2 -10 -4 -10 -3 0 -8 5 -11 10 -3 6 -1
10 4 10 6 0 11 -4 11 -10z m14308 -36 c-3 -14 -5 -12 -10 9 -3 19 -2 25 4 19
6 -6 8 -18 6 -28z m-14288 -4 c0 -5 -2 -10 -4 -10 -3 0 -8 5 -11 10 -3 6 -1
10 4 10 6 0 11 -4 11 -10z m335 -59 l40 -45 -40 31 c-22 17 -51 43 -65 58
l-25 27 25 -12 c14 -7 43 -33 65 -59z m14673 29 c13 -16 20 -30 17 -30 -10 0
-35 28 -35 38 0 6 -6 13 -12 15 -7 3 -8 6 -2 6 5 1 20 -12 32 -29z m-16588
-10 c0 -5 -2 -10 -4 -10 -3 0 -8 5 -11 10 -3 6 -1 10 4 10 6 0 11 -4 11 -10z
m1660 -85 c11 -13 10 -14 -4 -9 -9 3 -16 10 -16 15 0 13 6 11 20 -6z m345 -25
c-3 -5 -11 -10 -16 -10 -6 0 -7 5 -4 10 3 6 11 10 16 10 6 0 7 -4 4 -10z
m13744 -172 c0 -13 -3 -17 -6 -10 -2 6 -10 9 -16 5 -7 -4 -6 1 2 10 18 22 21
21 20 -5z m-590 -30 c-13 -13 -32 -34 -42 -48 l-18 -25 12 25 c12 27 61 80 68
74 2 -2 -7 -14 -20 -26z m-14989 -158 c0 -5 -4 -10 -10 -10 -5 0 -10 5 -10 10
0 6 5 10 10 10 6 0 10 -4 10 -10z m14850 6 c0 -2 -8 -10 -17 -17 -16 -13 -17
-12 -4 4 13 16 21 21 21 13z m-14836 -41 c-19 -14 -34 -11 -34 6 0 5 9 9 20 9
11 0 20 6 21 13 0 9 2 9 6 -1 3 -7 -3 -19 -13 -27z m159 5 c4 0 4 7 1 15 -12
30 12 13 46 -33 19 -26 74 -87 121 -137 189 -199 213 -232 80 -113 -35 32 -68
55 -74 51 -6 -4 -7 -1 -2 7 5 8 -9 27 -40 56 -47 44 -63 54 -49 32 4 -7 3 -8
-5 -4 -9 6 -9 11 1 23 10 13 8 19 -15 39 -16 13 -33 24 -40 24 -8 0 -8 -3 -2
-8 6 -4 11 -13 13 -20 2 -10 -2 -10 -18 -2 -11 6 -18 15 -15 21 4 5 0 9 -7 10
-10 0 -10 2 0 6 6 2 12 9 12 14 0 4 -6 6 -13 3 -18 -6 -41 21 -31 37 5 9 10 8
19 -4 7 -10 15 -17 18 -17z m14541 -93 c-26 -23 -58 -47 -71 -54 -24 -12 -24
-11 4 20 34 40 95 86 106 80 4 -3 -13 -23 -39 -46z m717 26 c-4 -15 -13 -29
-20 -31 -9 -3 -8 4 3 27 20 38 27 40 17 4z m-15493 -10 c-2 -11 2 -17 10 -15
8 1 11 -2 7 -8 -4 -6 -13 -9 -21 -6 -8 3 -14 -1 -14 -10 0 -11 -6 -14 -16 -10
-10 4 -14 2 -11 -6 2 -7 10 -12 17 -10 8 2 11 -4 7 -18 -3 -11 -1 -20 4 -20 5
0 9 9 9 20 0 11 4 20 10 20 6 0 6 -9 0 -26 -14 -35 -12 -64 3 -64 7 0 13 -8
13 -18 0 -10 -6 -19 -13 -19 -7 0 -13 8 -13 17 0 10 -7 23 -15 30 -8 7 -15 19
-15 27 0 7 -6 16 -14 19 -8 3 -12 13 -9 25 4 13 0 19 -11 19 -13 0 -15 4 -7
19 6 10 7 22 3 26 -4 4 4 2 16 -5 21 -10 26 -9 39 9 17 26 25 27 21 4z m14195
-48 c-3 -9 -8 -14 -10 -11 -3 3 -2 9 2 15 9 16 15 13 8 -4z m1267 5 c0 -5 -5
-10 -11 -10 -5 0 -7 5 -4 10 3 6 8 10 11 10 2 0 4 -4 4 -10z m-30 -43 c0 -7
-9 -18 -20 -25 -20 -12 -21 -12 -4 13 18 28 24 31 24 12z m-15073 -33 c-4 -4
8 -14 25 -24 62 -33 60 -42 -27 -130 -44 -44 -85 -80 -91 -80 -6 0 -18 8 -27
18 -16 17 -13 22 43 77 48 48 57 61 45 68 -23 13 -70 -1 -95 -28 -29 -31 -31
-96 -5 -125 37 -41 112 -42 149 -2 8 10 17 35 19 56 4 37 40 86 53 73 3 -3 8
-25 11 -49 6 -63 -29 -126 -87 -155 -24 -13 -56 -23 -70 -23 -36 0 -110 40
-133 72 -11 14 -22 49 -25 76 -5 56 10 91 58 137 25 24 43 31 93 36 34 3 64 7
66 7 2 1 1 -1 -2 -4z m13748 -42 c2 -12 -1 -21 -7 -19 -6 1 -15 -13 -20 -30
-5 -18 -13 -33 -18 -33 -14 0 -12 18 4 48 8 15 17 36 20 46 7 22 15 17 21 -12z
m415 -46 c0 -3 -15 -15 -32 -27 l-33 -23 24 27 c22 24 41 35 41 23z m-70 -52
c0 -11 -34 -33 -49 -34 -9 0 -6 7 9 20 23 20 40 26 40 14z m-13809 -61 c13
-16 12 -17 -3 -4 -10 7 -18 15 -18 17 0 8 8 3 21 -13z m-566 -6 c11 -7 21 -18
23 -25 1 -8 -2 -11 -8 -7 -5 3 -10 0 -10 -7 0 -7 -9 -2 -20 12 -31 40 -24 51
15 27z m615 -32 c13 -14 21 -25 18 -25 -2 0 -15 11 -28 25 -13 14 -21 25 -18
25 2 0 15 -11 28 -25z m13660 21 c0 -3 -4 -8 -10 -11 -5 -3 -10 -1 -10 4 0 6
5 11 10 11 6 0 10 -2 10 -4z m-50 -25 c0 -5 -7 -11 -14 -14 -10 -4 -13 -1 -9
9 6 15 23 19 23 5z m-40 -21 c0 -5 -7 -10 -16 -10 -8 0 -12 5 -9 10 3 6 10 10
16 10 5 0 9 -4 9 -10z m-35 -31 c-8 -12 -35 -12 -35 0 0 11 22 20 33 14 4 -2
5 -9 2 -14z m-13409 -46 c-7 -7 -26 7 -26 19 0 6 6 6 15 -2 9 -7 13 -15 11
-17z m-421 -280 c60 -62 107 -113 104 -113 -2 0 -65 61 -139 137 -74 75 -121
125 -105 112 17 -13 79 -75 140 -136z m-468 106 c44 -21 123 -102 123 -125 0
-28 -26 -12 -106 66 -45 44 -77 80 -71 80 6 0 30 -9 54 -21z m-117 -4 c-7 -9
-20 -13 -27 -10 -8 3 -13 0 -11 -6 2 -6 -24 -38 -59 -71 -78 -75 -93 -113 -65
-166 13 -26 29 -41 55 -49 45 -15 79 -5 125 40 l32 31 0 -31 c0 -63 -59 -104
-143 -98 -55 3 -98 32 -121 79 -53 112 23 226 194 289 27 10 33 7 20 -8z m120
-221 c13 -40 6 -97 -17 -132 -14 -22 -16 -23 -33 -7 -17 15 -17 20 -4 51 21
50 9 81 -64 156 -65 68 -65 68 -46 89 l19 21 67 -71 c37 -39 72 -87 78 -107z
m15568 32 c-2 -1 -12 -8 -22 -16 -18 -14 -19 -14 -7 8 7 12 17 20 22 16 6 -3
9 -7 7 -8z m-15210 -91 c-3 -3 -9 2 -12 12 -6 14 -5 15 5 6 7 -7 10 -15 7 -18z
m322 -18 c0 -6 -9 -2 -20 8 -11 10 -20 23 -20 28 0 6 9 2 20 -8 11 -10 20 -23
20 -28z m-280 -34 c24 -25 28 -33 13 -25 -27 15 -53 41 -53 53 0 14 3 12 40
-28z m315 9 c-3 -3 -11 0 -18 7 -9 10 -8 11 6 5 10 -3 15 -9 12 -12z m88 -71
c-2 -3 -18 10 -36 29 l-32 34 36 -30 c20 -16 34 -31 32 -33z m3163 -78 c60
-39 82 -147 43 -213 -32 -54 -58 -70 -114 -70 -57 0 -88 17 -110 60 -30 59
-16 132 38 189 51 53 97 64 143 34z m-3011 -23 c10 -11 16 -20 13 -20 -3 0
-13 9 -23 20 -10 11 -16 20 -13 20 3 0 13 -9 23 -20z m-247 -136 c2 -1 -5 -5
-15 -8 -9 -4 -14 -4 -10 0 4 4 1 14 -6 23 -11 14 -10 15 8 1 11 -8 21 -15 23
-16z m265 -227 c67 -56 136 -114 153 -127 216 -172 429 -378 559 -540 134
-167 267 -393 384 -658 75 -168 90 -226 117 -452 41 -342 48 -393 89 -645 32
-194 46 -267 83 -450 17 -82 34 -171 37 -197 l7 -47 -38 -6 c-22 -4 -97 -18
-169 -32 -181 -35 -264 -30 -365 18 -41 20 -113 65 -160 99 -142 105 -923 898
-1105 1123 -186 229 -244 426 -231 777 7 177 12 216 57 412 71 308 208 587
373 754 39 41 75 74 79 74 5 0 63 -46 130 -103z m4303 -603 c20 -30 21 -96 3
-151 -23 -71 -105 -183 -134 -183 -29 0 -55 50 -55 108 0 130 66 252 136 252
25 0 38 -6 50 -26z m343 -295 c28 -27 31 -37 31 -90 0 -75 -23 -188 -56 -276
-164 -436 -550 -713 -964 -690 -176 10 -330 62 -471 157 -74 51 -221 195 -268
264 -101 146 -70 309 65 345 67 18 113 -4 244 -114 114 -96 202 -134 368 -159
150 -23 287 5 439 90 86 48 225 186 273 271 84 151 108 181 157 207 32 17 65
25 100 26 44 0 56 -4 82 -31z m-1361 -52 c3 -28 -1 -38 -19 -48 -19 -10 -25
-9 -36 7 -18 25 -16 41 8 65 28 28 43 20 47 -24z m696 -83 c9 -23 -17 -77 -52
-106 -89 -75 -277 -95 -402 -44 -70 28 -150 93 -150 121 0 11 6 15 18 11 9 -2
70 -12 134 -21 135 -20 182 -16 313 25 106 33 131 35 139 14z m1157 -5659
c226 -140 772 -389 1154 -527 528 -190 808 -268 965 -268 95 0 253 47 447 134
170 76 733 364 1048 536 175 96 370 204 430 239 38 23 73 41 78 41 4 0 5 -30
2 -67 -10 -113 -34 -353 -45 -443 -9 -75 -32 -286 -60 -560 -5 -47 -18 -177
-30 -290 -11 -113 -29 -289 -41 -391 -11 -103 -19 -200 -17 -215 3 -27 6 -25
34 31 17 33 61 138 99 233 37 94 71 172 75 172 5 0 12 -5 16 -11 6 -10 130
-71 199 -98 11 -5 38 -16 59 -25 l39 -17 -79 -52 c-79 -51 -286 -180 -536
-334 -430 -264 -1072 -602 -1457 -767 -188 -80 -198 -81 -417 -26 -353 90
-416 115 -1039 407 -301 142 -722 358 -1025 528 -47 26 -204 112 -350 192
-328 180 -317 173 -298 184 9 5 69 27 134 50 65 23 169 63 232 90 63 27 118
46 122 44 7 -4 28 -59 140 -365 21 -58 41 -116 44 -130 7 -29 23 -57 29 -50 3
3 1 34 -3 70 -4 36 -13 115 -19 175 -15 139 -33 281 -70 570 -71 536 -131
1054 -131 1122 0 7 41 -19 92 -58 50 -38 131 -94 179 -124z m6524 -1319 c177
-32 455 -160 455 -209 0 -7 -11 -25 -24 -42 l-24 -30 -35 17 c-39 19 -379 118
-472 138 -33 7 -63 16 -67 19 -9 8 24 81 46 104 21 21 21 21 121 3z"/>
<path d="M15195 21902 c15 -16 122 -74 194 -106 141 -63 377 -132 581 -171
331 -63 868 -60 1235 7 183 33 507 121 545 149 12 8 11 9 -5 5 -230 -59 -702
-116 -956 -116 -219 0 -526 22 -789 57 -272 35 -669 121 -775 167 -22 10 -35
13 -30 8z"/>
<path d="M5994 19359 c-568 -570 -941 -932 -1159 -1124 -87 -77 -172 -153
-189 -169 l-31 -28 30 21 c17 12 57 40 90 63 33 23 83 60 111 82 29 23 81 63
115 91 223 173 503 427 784 709 265 266 393 407 563 620 62 77 126 158 143
179 16 20 28 37 26 37 -2 0 -219 -216 -483 -481z"/>
<path d="M14787 15583 c-10 -9 -9 -23 2 -23 5 0 11 7 15 15 5 15 -5 20 -17 8z"/>
<path d="M14815 15570 c-3 -5 -2 -10 4 -10 5 0 13 5 16 10 3 6 2 10 -4 10 -5
0 -13 -4 -16 -10z"/>
<path d="M14821 15551 c-11 -7 -9 -12 11 -25 13 -8 33 -17 43 -19 11 -1 25 -6
32 -10 7 -4 10 -1 9 9 -1 8 -9 20 -17 25 -8 5 -9 9 -4 9 6 0 3 5 -5 10 -19 12
-51 12 -69 1z"/>
<path d="M11035 13840 c-2 -3 5 -7 16 -7 10 -1 19 2 19 6 0 9 -29 10 -35 1z"/>
<path d="M11110 13819 c0 -5 5 -7 10 -4 6 3 10 8 10 11 0 2 -4 4 -10 4 -5 0
-10 -5 -10 -11z"/>
<path d="M10887 13625 c-4 -8 -2 -17 4 -20 5 -4 8 -1 7 7 -2 7 3 12 10 10 8
-1 11 2 7 8 -9 14 -22 12 -28 -5z"/>
<path d="M10325 13560 c3 -5 11 -10 16 -10 6 0 7 5 4 10 -3 6 -11 10 -16 10
-6 0 -7 -4 -4 -10z"/>
<path d="M10360 13560 c0 -5 5 -10 11 -10 5 0 7 5 4 10 -3 6 -8 10 -11 10 -2
0 -4 -4 -4 -10z"/>
<path d="M10786 13555 c-20 -15 -20 -15 0 -15 12 0 21 7 21 15 0 8 -1 15 -1
15 -1 0 -10 -7 -20 -15z"/>
<path d="M19729 12663 c-15 -19 -19 -27 -19 -42 0 -5 -10 -11 -21 -13 -15 -2
-23 -11 -25 -30 -1 -16 -1 -28 1 -28 2 0 19 20 38 45 19 24 37 42 41 40 3 -3
4 -2 1 1 -2 4 0 15 6 25 12 24 -2 25 -22 2z"/>
<path d="M19626 12545 c20 -30 24 -31 17 -6 -3 11 -11 22 -19 25 -11 4 -11 0
2 -19z"/>
<path d="M19587 12524 c-10 -14 -23 -21 -29 -18 -7 4 -8 2 -4 -4 4 -7 14 -12
23 -12 9 0 14 3 10 6 -3 4 3 14 15 24 12 9 17 19 12 22 -5 3 -17 -5 -27 -18z"/>
<path d="M18820 12475 c0 -5 5 -17 10 -25 5 -8 10 -10 10 -5 0 6 -5 17 -10 25
-5 8 -10 11 -10 5z"/>
<path d="M19295 12461 c-3 -5 -2 -12 3 -15 5 -3 9 1 9 9 0 17 -3 19 -12 6z"/>
<path d="M18826 12423 c-11 -11 -6 -23 9 -23 8 0 15 4 15 9 0 13 -16 22 -24
14z"/>
<path d="M19299 12428 c-6 -20 -6 -39 0 -42 4 -3 7 6 7 20 0 20 -4 32 -7 22z"/>
<path d="M19236 12408 c3 -4 14 -8 25 -8 10 0 19 4 19 8 0 4 -11 8 -24 8 -14
0 -22 -4 -20 -8z"/>
<path d="M18835 12381 c-3 -5 -2 -12 3 -15 5 -3 9 1 9 9 0 17 -3 19 -12 6z"/>
<path d="M19046 12351 c-3 -4 6 -6 19 -3 14 2 25 6 25 8 0 8 -39 4 -44 -5z"/>
<path d="M8050 14999 c0 -6 -7 -9 -15 -5 -8 3 -15 4 -15 3 0 -1 -4 -17 -9 -35
-9 -31 -9 -33 12 -27 23 7 67 50 67 66 0 5 -9 9 -20 9 -11 0 -20 -5 -20 -11z"/>
<path d="M20754 13748 c-4 -7 -4 -10 1 -6 4 4 15 2 24 -5 14 -11 14 -10 2 6
-16 20 -18 21 -27 5z"/>
<path d="M20823 13745 c0 -8 4 -12 9 -9 5 3 6 10 3 15 -9 13 -12 11 -12 -6z"/>
<path d="M20740 13696 c0 -2 8 -10 18 -17 15 -13 16 -12 3 4 -13 16 -21 21
-21 13z"/>
<path d="M20599 13668 c-5 -18 -6 -38 -1 -34 7 8 12 36 6 36 -2 0 -4 -1 -5 -2z"/>
<path d="M20729 13623 c-13 -16 -12 -17 4 -4 16 13 21 21 13 21 -2 0 -10 -8
-17 -17z"/>
<path d="M20593 13603 c1 -17 4 -19 14 -11 15 12 18 22 4 14 -5 -4 -11 0 -14
6 -3 7 -4 3 -4 -9z"/>
<path d="M21680 14440 c-9 -6 -10 -10 -3 -10 6 0 15 5 18 10 8 12 4 12 -15 0z"/>
<path d="M15145 12629 c-374 -24 -672 -111 -899 -264 -83 -56 -224 -190 -293
-280 -62 -80 -199 -303 -191 -310 2 -2 30 22 63 54 33 31 107 93 165 137 363
278 718 456 1115 559 179 46 328 70 570 92 l90 8 -100 6 c-132 9 -371 8 -520
-2z"/>
<path d="M9030 12403 c-202 -11 -390 -27 -379 -33 8 -4 76 -12 151 -19 237
-21 517 -86 718 -166 302 -120 573 -288 764 -474 48 -47 83 -75 76 -61 -29 57
-182 280 -239 350 -193 233 -436 356 -767 389 -121 12 -255 17 -324 14z"/>
<path d="M15295 11964 c-200 -36 -371 -116 -536 -248 -318 -255 -476 -559
-543 -1043 -4 -24 -4 -43 -2 -43 3 0 19 26 36 59 46 85 102 138 169 157 153
45 348 -51 427 -211 36 -75 45 -195 20 -272 -49 -147 -215 -263 -377 -263
-111 0 -212 70 -256 176 -22 54 -37 57 -29 7 3 -21 8 -76 11 -123 27 -371 149
-747 328 -1009 66 -97 263 -295 347 -349 36 -22 76 -50 90 -62 l25 -21 -45 5
c-143 16 -596 80 -650 92 -58 13 69 -38 187 -75 366 -114 617 -153 1128 -177
128 -6 428 14 555 37 214 39 375 81 490 126 70 28 200 91 200 97 0 2 -30 -4
-67 -14 -182 -47 -875 -131 -898 -108 -3 3 19 16 50 28 203 82 453 338 582
595 268 532 300 1088 98 1680 -74 215 -246 486 -407 640 -149 144 -272 219
-453 278 -168 55 -326 68 -480 41z m-382 -775 c32 -36 37 -48 37 -91 0 -166
-178 -235 -251 -98 -25 46 -24 84 5 146 18 40 33 55 67 73 59 29 94 22 142
-30z m1194 -1071 c46 -43 22 -166 -53 -264 -47 -61 -90 -68 -112 -18 -32 68
-2 193 62 259 48 50 69 55 103 23z m376 -264 c36 -36 44 -97 24 -198 -53 -263
-223 -513 -462 -676 -92 -62 -132 -82 -240 -118 -246 -81 -495 -61 -740 60
-230 114 -409 306 -446 478 -9 44 -8 55 11 95 33 68 79 95 161 95 74 0 67 4
221 -119 169 -134 333 -190 528 -178 170 11 338 89 472 220 58 57 89 99 186
251 53 85 105 115 198 116 53 0 65 -4 87 -26z m-1395 -15 c2 -15 -6 -36 -17
-50 -16 -20 -23 -22 -38 -13 -26 16 -28 49 -3 74 27 27 54 22 58 -11z m663
-99 c11 -6 19 -21 19 -36 0 -43 -38 -84 -108 -117 -58 -27 -76 -31 -161 -31
-69 -1 -112 5 -151 18 -82 28 -161 86 -166 122 -3 17 2 17 73 -1 34 -9 99 -15
163 -14 91 0 118 5 205 34 55 18 101 33 103 34 2 1 12 -4 23 -9z"/>
<path d="M11976 8137 c-107 -212 -104 -261 28 -424 66 -81 86 -102 86 -86 0 4
-7 60 -16 123 -9 63 -19 207 -23 320 l-6 205 -69 -138z"/>
<path d="M16730 8200 c-18 -12 -2 -12 25 0 13 6 15 9 5 9 -8 0 -22 -4 -30 -9z"/>
<path d="M15044 7981 c-87 -36 -184 -87 -184 -96 0 -5 13 1 200 85 104 47 110
50 89 50 -8 0 -55 -18 -105 -39z"/>
<path d="M15935 7956 c-214 -53 -430 -151 -588 -264 -75 -55 -118 -92 -105
-92 7 0 188 85 298 140 142 70 339 160 435 197 49 19 92 37 94 39 10 10 -51 1
-134 -20z"/>
<path d="M8318 7933 c7 -3 16 -2 19 1 4 3 -2 6 -13 5 -11 0 -14 -3 -6 -6z"/>
<path d="M16610 7853 c-73 -12 -238 -71 -330 -119 -136 -70 -320 -184 -297
-184 17 0 331 121 527 203 58 24 137 54 175 67 39 12 74 26 80 31 9 9 -106 10
-155 2z"/>
<path d="M9075 7809 c-126 -22 -180 -33 -315 -66 -80 -19 -183 -45 -230 -59
-220 -64 -429 -128 -426 -131 6 -6 196 37 561 127 198 50 410 101 470 114 109
24 109 24 50 24 -33 0 -82 -4 -110 -9z"/>
<path d="M16807 7680 c-85 -27 -363 -157 -355 -165 16 -16 424 154 443 185 3
5 5 10 3 9 -2 0 -43 -13 -91 -29z"/>
<path d="M8535 7530 c-87 -5 -79 -6 70 -7 94 0 184 3 200 7 36 9 -121 9 -270
0z"/>
<path d="M8570 7413 c-98 -5 -393 -33 -500 -47 -92 -13 -93 -14 -35 -15 101
-2 570 40 645 59 l35 8 -40 -1 c-22 0 -69 -2 -105 -4z"/>
<path d="M14182 7083 c-7 -3 -28 -35 -46 -71 -131 -259 -512 -496 -976 -606
-372 -89 -842 -133 -1290 -122 -342 9 -626 47 -861 117 -139 41 -213 79 -293
150 -37 32 -70 59 -74 59 -20 0 -32 -29 -32 -80 0 -109 57 -151 280 -208 441
-114 1089 -156 1705 -111 412 30 797 101 1070 198 228 82 436 197 546 303 69
66 104 119 120 178 11 40 10 51 -9 92 -13 30 -36 58 -63 77 -42 31 -52 34 -77
24z"/>
<path d="M12600 5824 c-160 -30 -477 -135 -465 -155 3 -5 38 -18 77 -30 111
-34 261 -19 457 47 60 20 153 73 158 91 10 31 -143 63 -227 47z"/>
<path d="M18423 14005 c-3 -9 -3 -18 -1 -21 3 -3 8 4 11 16 6 23 -1 27 -10 5z"/>
<path d="M4293 12815 c0 -8 5 -15 10 -15 5 0 4 -7 -3 -15 -10 -12 -10 -15 2
-15 23 0 28 10 16 36 -13 27 -25 32 -25 9z"/>
<path d="M4436 12625 c4 -8 8 -15 10 -15 2 0 4 7 4 15 0 8 -4 15 -10 15 -5 0
-7 -7 -4 -15z"/>
<path d="M4460 12579 c0 -5 5 -7 10 -4 6 3 10 8 10 11 0 2 -4 4 -10 4 -5 0
-10 -5 -10 -11z"/>
<path d="M4340 12535 c0 -8 4 -15 10 -15 5 0 7 7 4 15 -4 8 -8 15 -10 15 -2 0
-4 -7 -4 -15z"/>
<path d="M4330 12500 c23 -20 30 -24 30 -16 0 9 -32 36 -42 36 -6 0 -1 -9 12
-20z"/>
<path d="M4376 12492 c-2 -4 -1 -14 4 -22 7 -11 9 -9 7 8 -1 24 -3 26 -11 14z"/>
<path d="M4401 12464 c0 -11 3 -14 6 -6 3 7 2 16 -1 19 -3 4 -6 -2 -5 -13z"/>
<path d="M4370 12440 c-9 -6 -10 -10 -3 -10 6 0 15 5 18 10 8 12 4 12 -15 0z"/>
<path d="M4376 12411 c-3 -4 4 -7 14 -6 27 2 33 10 10 12 -11 1 -22 -2 -24 -6z"/>
<path d="M4426 12358 c3 -5 10 -6 15 -3 13 9 11 12 -6 12 -8 0 -12 -4 -9 -9z"/>
<path d="M4590 12368 c0 -3 7 -19 15 -34 8 -16 15 -22 15 -14 -1 8 -7 24 -15
34 -8 11 -15 17 -15 14z"/>
<path d="M4431 12324 c0 -11 3 -14 6 -6 3 7 2 16 -1 19 -3 4 -6 -2 -5 -13z"/>
<path d="M4455 12321 c-3 -5 -1 -12 5 -16 12 -7 14 -36 3 -34 -5 1 -15 1 -23
0 -12 -1 -12 -3 2 -12 12 -7 23 -6 38 3 22 14 23 22 10 53 -8 18 -9 18 -9 2
-1 -10 -6 -15 -11 -12 -6 4 -8 11 -5 16 4 5 4 9 1 9 -3 0 -7 -4 -11 -9z"/>
<path d="M4525 12321 c-3 -5 -1 -12 5 -16 5 -3 10 1 10 9 0 18 -6 21 -15 7z"/>
<path d="M4630 12280 c0 -5 5 -10 11 -10 5 0 7 5 4 10 -3 6 -8 10 -11 10 -2 0
-4 -4 -4 -10z"/>
<path d="M4474 12235 c7 -18 -5 -20 -23 -2 -11 10 -13 9 -7 -6 3 -10 6 -20 6
-23 0 -2 11 2 25 8 29 13 32 23 9 32 -12 4 -15 2 -10 -9z"/>
<path d="M4394 12182 c11 -12 19 -13 27 -5 7 7 3 12 -16 15 -25 5 -25 4 -11
-10z"/>
<path d="M5385 10308 c-113 -42 -173 -156 -206 -388 -19 -130 -16 -399 4 -527
19 -114 54 -253 90 -358 l24 -70 7 90 c31 441 130 773 259 866 51 37 88 37
153 0 101 -58 154 -166 161 -331 7 -138 -9 -258 -49 -379 l-33 -99 35 28 c85
68 228 218 253 267 42 79 60 180 48 267 -6 39 -17 91 -26 116 -32 90 -163 288
-236 356 -45 42 -161 115 -229 144 -63 27 -205 37 -255 18z"/>
<path d="M6104 9135 c-17 -13 -42 -48 -54 -77 -89 -205 -54 -452 85 -603 26
-27 43 -41 39 -30 -50 139 -55 349 -17 683 7 61 -4 66 -53 27z"/>
<path d="M5765 8213 c29 -28 182 -121 270 -163 276 -133 477 -155 544 -61 26
36 26 52 1 84 -29 36 -96 56 -255 73 -261 27 -310 33 -420 48 -61 8 -119 18
-130 22 -13 5 -17 4 -10 -3z"/>
<path d="M19055 8767 c-27 -18 -113 -54 -290 -122 -496 -191 -567 -231 -533
-302 38 -81 248 -3 537 200 47 33 100 70 116 81 46 32 195 148 195 152 0 6 -4
5 -25 -9z"/>
</g>
</svg>
