<?xml version="1.0" standalone="no"?>
<!DOCTYPE svg PUBLIC "-//W3C//DTD SVG 20010904//EN"
 "http://www.w3.org/TR/2001/REC-SVG-20010904/DTD/svg10.dtd">
<svg version="1.0" xmlns="http://www.w3.org/2000/svg"
 width="1024.000000pt" height="1024.000000pt" viewBox="0 0 1024.000000 1024.000000"
 preserveAspectRatio="xMidYMid meet">

<g transform="translate(0.000000,1024.000000) scale(0.100000,-0.100000)"
fill="#000000" stroke="none">
<path d="M4050 9779 c-19 -10 -47 -19 -63 -19 -39 0 -201 -79 -272 -132 -67
-51 -166 -154 -207 -214 -14 -22 -42 -49 -62 -59 -34 -18 -37 -19 -53 -2 -21
21 -30 179 -15 269 9 58 -4 113 -31 130 -43 27 -125 -16 -204 -110 -81 -95
-112 -150 -149 -268 -37 -116 -39 -255 -6 -351 29 -81 84 -174 129 -217 21
-19 34 -38 30 -42 -4 -5 -27 -2 -50 4 -23 7 -60 18 -82 24 -23 7 -123 12 -235
12 -170 1 -199 -1 -222 -16 -15 -10 -48 -22 -75 -28 -26 -6 -104 -38 -173 -73
-113 -56 -134 -71 -221 -157 -53 -52 -114 -123 -136 -156 -22 -34 -49 -74 -62
-90 -12 -16 -48 -63 -79 -104 -31 -41 -104 -120 -162 -175 -58 -55 -113 -110
-122 -122 -25 -30 -22 -59 8 -99 34 -43 25 -55 -73 -100 -99 -46 -250 -75
-323 -63 -30 6 -100 12 -155 15 -99 6 -100 6 -125 -21 -25 -27 -25 -27 -22
-207 2 -159 10 -236 38 -363 3 -16 24 -68 45 -115 34 -73 50 -95 116 -156 l77
-71 -27 -32 c-24 -28 -27 -41 -27 -99 0 -103 26 -231 55 -272 29 -42 31 -67
10 -138 -15 -48 -18 -52 -58 -62 -23 -6 -59 -15 -79 -22 -33 -10 -41 -9 -58 7
-15 13 -30 16 -61 12 -53 -7 -89 -33 -113 -83 -32 -66 -26 -124 28 -254 27
-63 56 -126 65 -140 10 -14 31 -61 47 -104 34 -93 90 -161 179 -218 57 -37 63
-39 125 -35 76 4 299 34 350 46 19 5 50 15 68 22 31 13 35 12 48 -5 17 -24 18
-80 2 -197 -10 -79 -10 -96 6 -147 10 -31 29 -76 43 -100 38 -67 14 -103 -77
-117 -58 -9 -84 -26 -100 -65 -16 -39 -1 -117 34 -170 12 -19 35 -54 49 -77
19 -30 44 -51 85 -72 31 -16 86 -57 121 -91 l64 -63 -7 -65 c-4 -36 -16 -103
-26 -149 -24 -100 -25 -152 -5 -258 67 -360 96 -419 270 -545 26 -19 102 -88
169 -154 176 -172 174 -171 315 -169 64 1 128 -2 142 -8 32 -13 79 -123 79
-186 0 -37 -3 -42 -30 -52 -27 -9 -30 -15 -30 -50 0 -30 6 -45 27 -63 16 -13
48 -48 72 -78 25 -30 56 -64 70 -75 13 -11 56 -51 95 -88 111 -107 191 -149
269 -139 30 3 54 -4 120 -38 45 -23 102 -57 127 -75 25 -18 72 -41 105 -53
186 -62 317 -141 353 -212 14 -28 22 -58 20 -80 -3 -33 -5 -35 -45 -38 -40 -3
-46 0 -101 56 -87 88 -101 93 -202 71 -53 -11 -63 -31 -19 -37 35 -5 129 -50
129 -62 0 -16 -111 -63 -145 -62 -18 1 -52 6 -76 11 -36 9 -55 7 -104 -9 -33
-11 -94 -29 -135 -41 -166 -47 -170 -51 -170 -196 0 -103 0 -105 -41 -179 -37
-66 -41 -81 -37 -124 7 -75 -14 -104 -89 -119 -38 -7 -82 -26 -121 -51 -80
-52 -368 -190 -397 -190 -8 0 -32 -9 -52 -20 -21 -11 -44 -20 -51 -20 -14 0
-28 -6 -134 -54 -31 -14 -62 -26 -68 -26 -5 0 -18 -4 -28 -10 -9 -5 -43 -21
-74 -35 -32 -14 -82 -36 -112 -50 -30 -14 -58 -25 -63 -25 -14 0 -145 -56
-245 -104 -188 -92 -210 -115 -228 -247 -5 -41 -13 -86 -16 -101 -5 -25 -3
-28 20 -28 21 0 26 5 26 26 0 14 6 46 14 72 8 26 17 59 20 73 3 15 14 36 23
48 17 20 187 99 423 196 58 23 222 91 365 149 279 114 570 236 700 293 124 54
115 56 169 -31 120 -193 295 -416 437 -557 87 -86 176 -159 195 -159 3 0 -36
44 -88 98 -112 117 -221 260 -338 444 -95 150 -210 371 -210 405 0 24 20 73
29 73 3 0 17 -27 29 -60 22 -56 240 -374 316 -461 17 -19 46 -55 65 -80 38
-50 38 -50 -12 51 -40 79 -46 117 -22 126 37 15 224 -54 410 -151 l90 -46 -53
50 c-105 100 -287 226 -504 350 -150 85 -182 113 -198 169 -19 73 -47 215 -55
277 l-7 60 39 -36 c101 -96 730 -471 1133 -676 307 -156 705 -315 790 -315 72
0 373 145 634 304 244 149 622 423 723 524 41 41 42 41 92 33 59 -9 108 -40
117 -73 8 -34 -12 -100 -63 -201 -63 -127 -132 -214 -274 -346 -213 -198 -259
-244 -219 -222 19 11 62 35 95 53 78 44 330 201 517 323 137 89 248 153 248
143 0 -3 -35 -51 -78 -108 -135 -177 -280 -406 -331 -522 -12 -27 -19 -51 -17
-53 2 -3 28 24 58 60 29 35 140 166 246 290 l193 226 67 -25 c78 -30 300 -112
527 -195 528 -193 634 -232 764 -283 180 -71 200 -81 211 -111 6 -16 34 -36
86 -61 80 -38 154 -100 154 -128 0 -12 10 -16 45 -16 44 0 44 0 34 27 -20 53
-85 125 -148 165 -35 22 -82 57 -105 78 -40 37 -160 103 -241 133 -22 8 -65
25 -95 37 -30 12 -73 28 -95 36 -22 8 -48 19 -59 25 -10 6 -39 17 -65 24 -25
7 -84 26 -131 43 -47 16 -103 34 -125 41 -23 6 -82 36 -133 66 -78 48 -108 60
-199 79 -112 25 -157 40 -208 70 -16 10 -54 31 -82 47 -43 24 -57 39 -78 83
-14 30 -42 70 -62 90 -36 34 -173 108 -227 122 -15 3 -42 23 -61 43 -19 20
-61 56 -94 81 -35 26 -65 58 -72 75 -31 82 -44 105 -73 126 -60 46 -112 67
-206 84 -52 10 -102 24 -111 32 -9 8 -19 31 -23 52 -8 49 -34 82 -90 112 -47
24 -61 44 -51 71 5 13 221 138 238 138 3 0 48 26 99 58 51 32 100 61 109 64
10 4 61 37 114 75 53 37 120 82 148 99 82 50 224 209 274 307 91 179 123 257
134 329 16 108 31 138 68 138 55 0 136 22 187 51 57 32 316 273 391 364 27 33
79 86 116 118 43 38 78 80 103 125 34 62 37 75 41 162 5 129 4 187 -7 215 -5
12 -12 65 -15 116 l-7 94 46 55 c39 47 64 64 166 115 120 59 267 162 345 240
23 23 49 63 59 90 10 28 35 79 56 115 69 119 120 229 120 259 l0 29 -87 4
c-64 3 -99 10 -130 26 -80 42 -92 90 -43 187 16 33 30 66 30 73 0 7 18 54 40
106 22 51 43 108 46 125 10 46 67 96 173 149 100 50 202 130 221 173 6 15 41
53 77 85 53 46 73 73 100 132 19 40 32 81 28 91 -10 33 -60 69 -145 107 -155
67 -260 156 -315 265 -15 30 -46 77 -69 104 -23 28 -53 66 -66 85 -14 19 -39
48 -57 63 -18 16 -33 34 -33 39 0 19 99 3 123 -21 47 -43 92 -26 274 106 56
41 113 87 127 103 l24 29 -19 62 c-25 81 -25 143 1 264 25 118 27 149 16 315
-11 170 -42 278 -62 213 -23 -76 -43 -99 -120 -145 -100 -59 -116 -65 -202
-74 -173 -16 -367 65 -557 234 -49 44 -166 124 -255 174 -64 37 -74 53 -96
148 -16 71 -19 126 -19 330 0 202 -3 255 -17 300 -10 30 -26 93 -38 139 -17
71 -72 197 -126 291 -8 14 -29 53 -45 87 -41 82 -100 146 -131 141 -28 -4 -57
-57 -58 -108 -2 -90 -43 -189 -103 -251 -115 -119 -376 -226 -479 -198 -21 5
-60 29 -88 52 -27 23 -74 60 -105 82 -31 22 -80 58 -108 80 -71 55 -166 106
-261 139 -43 15 -91 33 -107 41 -15 8 -36 15 -46 15 -10 0 -40 9 -68 19 -68
26 -149 41 -277 52 -87 8 -134 6 -260 -10 -84 -11 -175 -29 -203 -40 -27 -11
-77 -30 -110 -42 -33 -12 -103 -40 -155 -62 -52 -22 -122 -50 -154 -63 -32
-13 -65 -33 -73 -44 -27 -39 -60 -20 -43 25 7 20 6 32 -6 50 -31 47 -95 49
-182 5 -76 -38 -114 -46 -325 -70 -97 -11 -185 -24 -195 -29 -9 -5 -41 -12
-71 -16 -30 -4 -72 -16 -95 -26 -23 -10 -53 -19 -68 -19 -25 0 -28 3 -28 35 0
52 42 127 90 160 23 16 46 37 51 47 5 10 28 27 51 39 23 12 47 26 53 33 27 27
65 92 65 112 0 65 -151 107 -230 63z m90 -63 c0 -2 -20 -16 -46 -31 -135 -79
-302 -255 -375 -396 -38 -73 -85 -206 -77 -215 3 -3 18 17 33 43 40 68 126
181 175 228 l41 40 -40 -85 c-22 -47 -47 -112 -56 -145 -19 -74 -37 -225 -33
-283 l2 -44 -132 -1 -133 -2 -11 40 c-7 22 -12 92 -12 155 -1 168 32 269 129
397 80 107 192 180 400 260 104 39 135 48 135 39z m-867 -228 c-8 -269 29
-484 112 -649 30 -59 24 -75 -27 -65 -174 33 -317 232 -318 442 0 67 33 193
67 256 27 50 147 188 163 188 5 0 6 -78 3 -172z m4459 -68 c117 -259 143 -374
135 -585 -5 -147 -26 -229 -83 -332 -44 -80 -130 -173 -187 -203 l-45 -24
-105 17 c-189 31 -452 118 -634 211 -40 20 -73 34 -73 31 0 -11 163 -125 247
-173 114 -65 223 -112 405 -172 80 -27 174 -61 209 -75 112 -48 223 -135 317
-250 l33 -40 -30 60 c-54 112 -180 252 -258 288 -13 6 -23 14 -23 18 0 15 115
31 219 31 177 0 273 -40 447 -184 191 -160 247 -196 374 -244 67 -25 89 -28
200 -28 142 -1 184 12 259 79 23 21 44 35 48 32 14 -14 -16 -264 -41 -334 -74
-216 -238 -340 -511 -388 l-80 -14 -110 43 c-60 24 -132 52 -160 62 l-50 18
78 12 c43 7 101 20 130 30 79 25 208 90 247 124 l35 30 -48 -21 c-201 -86
-536 -127 -697 -85 -103 27 -112 33 -167 114 -103 153 -255 305 -386 386 l-62
38 82 -76 c322 -301 503 -732 480 -1146 -15 -265 -101 -466 -289 -674 -78 -86
-220 -204 -226 -188 -1 5 6 45 17 88 41 164 50 355 27 555 -42 352 -149 682
-276 853 -159 216 -414 355 -1070 586 -113 40 -281 99 -375 132 -93 33 -181
64 -195 68 -14 5 -81 29 -149 54 -69 25 -126 44 -128 43 -2 -2 43 -24 99 -50
107 -48 127 -56 568 -230 449 -178 611 -254 800 -375 263 -169 441 -380 495
-587 21 -77 21 -272 2 -380 -29 -161 -121 -358 -217 -465 l-49 -55 16 50 c24
79 21 252 -6 350 -29 104 -79 208 -132 270 -44 52 -44 50 -9 -50 62 -179 47
-416 -42 -620 -56 -131 -206 -331 -240 -322 -10 3 -16 1 -12 -4 3 -5 0 -9 -7
-9 -8 0 -10 12 -5 38 18 100 18 239 1 327 -21 112 -44 168 -111 271 -87 133
-242 264 -435 368 -85 45 -329 158 -329 151 0 -2 87 -70 193 -151 180 -137
305 -251 329 -299 6 -11 -12 1 -38 26 -27 25 -71 63 -99 85 l-50 39 38 -50
c20 -27 55 -79 77 -115 48 -79 38 -86 -51 -39 -47 25 -78 53 -132 119 -174
208 -469 485 -892 835 l-60 50 70 -75 c38 -41 160 -167 270 -280 321 -328 404
-420 510 -563 151 -206 215 -409 215 -678 0 -130 -8 -145 -49 -93 -12 15 -21
23 -21 18 0 -5 -4 -4 -8 2 -17 26 -214 75 -362 89 -67 6 -223 28 -320 44 -155
26 -346 85 -485 151 -398 188 -749 645 -845 1102 -50 237 -4 518 116 705 46
73 147 171 222 218 67 41 76 50 38 35 -98 -37 -222 -124 -285 -199 -98 -117
-157 -255 -187 -439 -13 -76 -15 -143 -11 -312 9 -344 65 -636 166 -862 22
-48 50 -81 31 -36 -16 38 -49 180 -55 238 -6 57 4 111 21 117 6 2 41 -43 79
-99 37 -57 94 -137 125 -178 31 -41 74 -115 96 -165 42 -98 145 -274 202 -345
19 -25 63 -74 96 -109 34 -36 53 -59 44 -52 -10 8 -18 10 -18 7 0 -4 -9 -2
-21 4 -12 7 -18 18 -15 26 3 9 1 12 -4 9 -6 -3 -10 -13 -10 -21 0 -33 -49 -4
-178 104 -89 76 -73 42 46 -97 41 -48 43 -73 3 -51 -26 13 -31 13 -31 -4 0 -7
-13 -19 -29 -26 -36 -15 -32 -45 5 -36 14 4 24 2 24 -4 0 -5 12 -10 28 -10 21
0 24 2 12 10 -8 5 -10 10 -4 10 6 0 14 -3 18 -7 3 -4 13 -8 21 -9 13 -2 13 24
-1 47 -4 7 3 6 17 -2 13 -7 25 -12 27 -11 1 1 1 -1 1 -5 -8 -48 -42 -57 -137
-36 -42 9 -79 20 -80 25 -2 4 -7 6 -12 3 -12 -7 -173 51 -245 88 -187 96 -341
235 -425 382 -150 264 -180 610 -84 962 28 102 88 258 150 388 49 103 50 105
24 75 -55 -66 -168 -246 -224 -359 -241 -484 -348 -979 -276 -1276 26 -105
101 -270 164 -360 l44 -64 -36 14 c-71 25 -118 50 -227 121 -381 250 -636 564
-721 889 -14 53 -18 106 -18 215 0 158 20 264 83 438 17 45 28 82 27 82 -2 0
-22 -28 -44 -62 -45 -69 -92 -176 -118 -269 -14 -49 -19 -57 -27 -44 -14 26
-1 395 18 495 33 176 96 341 177 467 64 98 65 102 24 63 -165 -153 -303 -466
-323 -730 -6 -82 -7 -86 -44 -121 -48 -47 -189 -157 -259 -203 -59 -39 -91
-48 -50 -15 80 65 200 200 200 225 0 4 -24 -15 -53 -43 -380 -370 -943 -238
-1077 252 -31 110 -42 412 -16 402 156 -60 368 -45 585 42 264 106 533 296
772 545 188 195 207 225 69 105 -179 -155 -403 -287 -560 -328 -101 -26 -180
-36 -180 -22 0 6 4 11 9 11 19 0 130 102 184 167 30 38 92 122 137 188 109
157 157 213 249 287 156 126 320 179 579 186 89 2 175 1 190 -3 25 -7 21 -9
-42 -31 -109 -37 -231 -112 -318 -193 -86 -81 -103 -110 -32 -56 140 107 340
190 504 209 l45 5 -62 -57 c-98 -91 -176 -211 -217 -335 -21 -63 -35 -191 -27
-247 l7 -45 8 60 c22 180 126 368 266 482 160 130 326 201 526 224 194 22 408
-42 528 -157 42 -40 86 -99 86 -116 0 -3 -19 -9 -42 -13 -296 -45 -591 -234
-761 -487 -82 -122 -156 -291 -171 -393 -5 -32 -1 -26 18 27 125 350 369 590
711 701 120 39 193 50 302 45 131 -6 152 -17 196 -110 20 -40 58 -103 85 -139
l49 -66 -56 -24 c-194 -80 -324 -361 -319 -688 1 -64 3 -91 5 -61 19 357 131
571 354 675 30 14 60 25 68 25 7 0 47 -29 90 -64 146 -122 304 -213 481 -279
162 -60 177 -54 45 15 -219 116 -390 242 -541 401 -50 52 -102 117 -115 143
-28 60 -30 133 -4 187 45 96 181 183 350 228 94 24 281 29 385 10 95 -17 259
-67 336 -102 110 -49 84 -25 -38 34 -124 61 -245 100 -383 122 -260 43 -501
-22 -659 -176 -39 -38 -72 -69 -73 -69 -10 0 0 67 17 123 38 124 151 244 300
321 200 103 405 135 655 101 36 -5 37 -4 15 6 -109 50 -363 74 -517 49 -122
-19 -238 -68 -350 -146 -35 -24 -63 -41 -63 -38 0 15 54 107 95 164 143 194
408 385 664 480 114 42 273 78 393 90 273 27 584 -53 835 -216 151 -97 221
-146 253 -174 l35 -31 -98 4 c-109 3 -106 -7 10 -37 70 -18 272 -21 343 -5
238 53 429 221 486 427 10 34 21 59 24 55 4 -4 37 -73 72 -153z m-2997 -98
c-94 -91 -199 -163 -298 -204 -58 -25 -90 -31 -176 -36 -103 -6 -105 -6 -66
-18 22 -7 83 -13 135 -13 117 -1 233 25 331 74 39 20 67 30 63 23 -4 -7 -31
-44 -59 -83 -134 -182 -207 -356 -222 -529 -6 -71 -7 -76 -29 -76 -17 0 -34
16 -64 59 -80 119 -240 217 -420 257 l-95 21 -3 58 c-6 111 55 249 138 315 89
70 203 105 400 121 180 15 304 40 376 76 32 17 61 31 64 31 3 1 -31 -33 -75
-76z m-1357 -41 c8 -5 12 -21 10 -37 l-3 -29 -18 32 c-24 44 -20 54 11 34z
m4547 -788 c6 -81 11 -149 11 -149 -1 -1 -34 -5 -74 -9 l-72 -7 38 78 c21 44
46 116 56 162 11 45 21 80 24 77 2 -2 10 -71 17 -152z m1261 -1163 c-5 -26 -2
-32 19 -40 14 -5 25 -15 25 -22 0 -7 -35 -46 -77 -88 -85 -82 -158 -120 -235
-120 -40 0 -78 14 -78 29 0 4 26 18 58 31 85 35 161 92 226 170 32 39 61 70
64 70 2 0 2 -14 -2 -30z m-1239 -8 c47 -28 348 -172 359 -172 13 0 229 -112
273 -142 101 -68 177 -146 271 -279 138 -195 227 -278 360 -334 25 -10 49 -22
54 -26 21 -18 -87 -33 -244 -33 -135 -1 -185 4 -273 22 -59 13 -124 30 -144
38 -56 24 -51 8 7 -21 152 -77 401 -130 582 -123 l100 3 -34 -28 c-54 -45
-206 -114 -312 -141 -172 -45 -357 -32 -503 37 -74 34 -123 69 -123 88 0 53
-112 311 -229 528 -35 63 -51 105 -51 130 -1 92 -64 310 -125 430 -14 28 -23
51 -21 51 3 0 27 -13 53 -28z m-5703 -544 c6 -64 51 -241 80 -313 21 -55 20
-78 -11 -255 -34 -200 -39 -458 -9 -585 38 -166 90 -271 183 -369 27 -28 55
-60 63 -71 14 -19 14 -20 -6 -2 -13 10 -29 15 -40 11 -10 -3 -25 -8 -33 -10
-11 -3 -11 -7 -1 -19 15 -18 9 -19 -25 -3 l-25 11 32 27 c28 24 31 30 19 44
-7 9 -17 13 -22 10 -5 -3 -9 0 -9 5 0 6 -7 11 -16 11 -12 0 -15 -6 -10 -24 3
-14 1 -28 -4 -31 -6 -4 -8 -12 -5 -18 4 -7 -16 12 -43 41 -61 65 -104 145
-149 272 l-34 95 7 -60 c14 -135 94 -336 162 -407 30 -33 28 -33 -63 -9 -228
60 -446 210 -509 351 -72 161 -72 372 0 600 14 45 24 84 21 86 -9 9 -68 -117
-102 -217 l-35 -104 0 75 c0 232 130 503 354 738 92 96 192 182 212 182 6 0
14 -27 18 -62z m5932 -333 c53 -140 84 -260 100 -375 18 -139 18 -356 -1 -461
-21 -117 -89 -284 -155 -381 -54 -80 -89 -112 -76 -70 5 16 3 20 -11 17 -10
-2 -20 -4 -23 -4 -3 -1 1 -5 9 -10 12 -8 13 -12 1 -25 -11 -14 -10 -16 4 -10
18 7 22 -11 5 -21 -15 -10 -79 37 -79 59 0 15 -3 16 -15 6 -11 -9 -12 -16 -5
-25 9 -11 2 -13 -32 -13 -61 1 -70 -1 -64 -10 3 -5 -13 -8 -34 -8 -25 1 -42
-4 -45 -13 -3 -7 -12 -10 -20 -7 -8 3 -15 0 -16 -7 0 -7 -4 -3 -8 8 -7 17 -10
13 -21 -24 -9 -36 -9 -45 2 -52 10 -7 9 -9 -4 -9 -9 0 -18 -6 -21 -12 -2 -7
-7 -10 -11 -7 -4 4 5 46 19 95 46 158 58 253 52 424 -4 124 -10 175 -31 252
l-26 98 47 42 c171 157 323 489 323 710 0 109 9 110 58 12 25 -49 60 -129 78
-179z m-6938 152 c13 -15 -8 -47 -32 -47 -19 0 -22 30 -4 48 15 15 23 15 36
-1z m281 -121 c58 -30 80 -106 41 -141 -18 -16 -20 -16 -35 -1 -19 19 -17 19
-50 6 -15 -6 -32 -7 -38 -3 -7 4 -48 9 -91 10 -43 2 -85 8 -92 14 -8 6 -25 9
-38 7 -25 -5 -64 17 -52 29 4 5 60 27 124 50 124 45 185 52 231 29z m1860
-113 c22 -147 24 -173 11 -219 -12 -41 -29 -59 -31 -31 0 8 -2 8 -5 1 -3 -7
-13 -10 -22 -8 -28 6 -48 -18 -60 -71 l-11 -50 5 70 c6 83 10 117 19 170 9 55
65 225 74 225 3 0 13 -39 20 -87z m-1880 -59 c2 -2 -7 -4 -22 -4 -14 0 -29 5
-32 10 -6 10 42 4 54 -6z m4628 -95 c69 -39 164 -143 203 -223 32 -65 69 -238
57 -268 -4 -12 -17 -13 -69 -6 -34 4 -93 5 -129 2 l-66 -6 -6 93 c-9 119 -29
230 -61 343 -14 48 -26 93 -26 98 0 13 36 1 97 -33z m-4765 17 c35 -8 79 -17
99 -20 32 -6 39 -12 57 -54 25 -60 30 -93 42 -282 9 -158 31 -264 72 -343 l19
-38 -64 -30 c-221 -103 -469 -33 -608 172 -22 33 -53 89 -69 124 -34 77 -73
196 -65 203 3 3 15 -4 28 -15 50 -47 179 -121 246 -143 95 -30 185 -25 259 15
57 31 69 50 21 33 -69 -24 -249 11 -311 61 l-23 19 52 46 c60 54 113 130 145
209 13 31 26 57 30 57 4 0 35 -6 70 -14z m5818 -172 c0 -21 -3 -24 -13 -15
-10 8 -14 7 -14 -4 0 -8 4 -15 9 -15 4 0 8 -9 8 -19 0 -14 -5 -18 -20 -14 -11
3 -17 9 -14 14 3 5 -2 9 -10 9 -9 0 -16 -4 -16 -10 0 -5 -7 -10 -16 -10 -9 0
-12 -5 -8 -12 4 -7 4 -10 0 -6 -5 4 -18 -3 -30 -16 -11 -13 -32 -25 -46 -29
-24 -5 -24 -5 4 16 16 12 59 48 95 79 36 31 67 57 69 58 1 0 2 -12 2 -26z
m1320 -60 c156 -62 182 -88 195 -195 9 -69 -30 -239 -55 -239 -4 0 -6 12 -3
28 3 26 3 26 -7 4 -5 -13 -14 -21 -19 -17 -5 3 -12 1 -16 -5 -9 -15 -25 -12
-25 5 0 8 -5 15 -11 15 -5 0 -7 -4 -4 -10 8 -13 -1 -13 -26 0 -15 8 -23 7 -35
-5 -9 -8 -19 -13 -24 -10 -5 3 -12 0 -15 -6 -5 -6 -13 -3 -22 11 -20 28 -33
15 -36 -37 -1 -23 -6 -38 -10 -34 -4 4 -3 50 3 102 6 52 8 130 5 174 -8 99
-24 234 -32 259 -4 14 -1 17 8 13 8 -4 66 -27 129 -53z m552 18 c-6 -2 -33
-20 -59 -41 -59 -45 -156 -94 -179 -89 -9 1 -23 20 -30 40 -13 37 -12 38 14
44 83 19 182 45 217 57 27 10 41 11 44 4 2 -6 -1 -13 -7 -15z m-5430 -190 c37
-48 113 -121 213 -206 l30 -25 -80 25 c-61 20 -110 27 -207 31 l-128 6 0 82
c0 72 20 225 36 278 4 14 17 -1 50 -59 24 -42 63 -101 86 -132z m859 181 c13
-16 12 -17 -3 -4 -10 7 -18 15 -18 17 0 8 8 3 21 -13z m94 -74 c-3 -4 -12 -6
-20 -3 -8 4 -13 10 -10 15 3 4 12 6 20 3 8 -4 13 -10 10 -15z m2369 -60 c-3
-5 -10 -7 -15 -3 -5 3 -7 10 -3 15 3 5 10 7 15 3 5 -3 7 -10 3 -15z m-61 -29
c14 -11 35 -46 47 -78 18 -47 21 -71 17 -137 -3 -44 -10 -93 -16 -108 l-11
-28 -42 29 c-44 30 -152 80 -220 102 -21 6 -38 14 -38 18 0 8 222 221 231 222
4 0 18 -9 32 -20z m-2252 -27 c13 -16 12 -17 -3 -4 -10 7 -18 15 -18 17 0 8 8
3 21 -13z m444 -52 c39 -12 95 -25 125 -31 30 -5 96 -16 145 -24 50 -9 174
-27 278 -40 103 -14 192 -28 198 -31 6 -4 -14 -32 -49 -69 -33 -34 -76 -88
-97 -121 -35 -55 -115 -214 -115 -230 0 -3 19 9 41 29 48 40 179 107 257 130
29 8 80 18 113 22 l61 7 -5 -29 c-3 -16 -9 -49 -12 -74 -5 -41 -5 -43 9 -26 9
10 23 42 32 70 9 28 21 56 26 61 8 9 238 35 247 28 2 -1 -4 -13 -15 -25 -15
-18 -8 -15 41 12 l60 34 200 0 c194 1 203 0 287 -28 54 -17 119 -49 168 -81
43 -29 75 -45 70 -36 -12 22 -75 81 -133 124 -26 20 -49 38 -50 41 -1 3 32 28
73 56 84 59 114 83 183 147 26 24 47 39 47 33 0 -7 -27 -68 -60 -137 -33 -69
-60 -128 -60 -131 0 -3 24 18 54 47 30 28 59 51 63 51 10 0 55 -165 77 -280
22 -111 38 -285 39 -438 l2 -136 -45 -8 c-25 -4 -59 -10 -77 -13 -30 -5 -34
-2 -66 47 -72 112 -225 228 -397 299 -181 76 -436 94 -605 44 -119 -35 -192
-75 -276 -153 -73 -67 -189 -213 -189 -238 0 -20 19 -18 59 7 18 11 35 18 38
15 8 -8 -28 -55 -58 -77 -39 -27 -37 -45 1 -22 17 10 54 49 82 86 95 128 229
218 386 258 144 37 284 16 452 -68 79 -39 110 -62 185 -138 72 -72 99 -106
129 -169 80 -167 87 -373 20 -640 -14 -54 -23 -100 -21 -103 11 -10 122 208
160 314 34 95 67 267 67 353 0 38 4 71 8 74 4 2 36 8 71 12 l64 7 -5 -161 -5
-161 49 101 c27 56 51 98 54 95 11 -10 -63 -474 -131 -831 -73 -376 -181 -821
-230 -947 -73 -188 -286 -350 -805 -613 -491 -249 -904 -407 -1103 -422 -148
-12 -463 44 -727 128 -395 127 -892 368 -1151 559 -107 79 -210 179 -253 243
-67 102 -178 488 -311 1076 -19 85 -48 265 -65 400 -17 135 -35 272 -40 305
-13 76 -13 125 0 125 14 0 70 -87 102 -159 l29 -66 -6 104 c-3 57 -9 117 -12
133 -5 27 -4 29 18 26 24 -3 24 -5 30 -133 10 -206 42 -305 182 -557 32 -60
60 -108 61 -108 2 0 -8 31 -21 70 -47 140 -66 255 -66 410 0 130 2 153 26 225
57 175 177 308 352 392 130 62 286 78 376 40 34 -15 34 -15 -24 -10 -76 8
-170 -18 -245 -67 -121 -78 -201 -220 -236 -418 -5 -31 -4 -32 16 -21 29 15
105 5 136 -18 48 -36 67 -71 66 -124 -1 -101 -98 -170 -191 -136 -29 11 -30
-3 -2 -113 49 -199 186 -381 326 -436 24 -9 40 -20 37 -25 -3 -5 -88 -9 -190
-9 -119 0 -183 -4 -179 -10 3 -5 38 -20 78 -32 64 -20 93 -23 252 -23 109 0
204 5 240 13 116 25 335 105 322 118 -2 3 -33 0 -68 -6 -35 -5 -76 -10 -92
-10 -26 0 -24 3 36 63 74 73 124 163 163 292 24 81 27 105 27 245 0 137 -3
167 -26 255 -15 55 -47 140 -72 189 -25 49 -44 91 -42 92 2 2 12 -7 24 -19 92
-98 112 -117 124 -117 8 0 -7 18 -33 41 -57 48 -61 65 -13 45 19 -8 35 -13 35
-10 0 14 -148 190 -193 229 -66 58 -162 108 -262 137 -102 29 -285 31 -385 4
-154 -41 -278 -102 -389 -190 l-69 -55 -40 67 c-38 64 -189 222 -212 222 -22
0 -8 18 18 23 105 21 236 102 285 176 35 52 34 57 -4 29 -68 -50 -204 -12
-253 71 -35 61 -32 320 5 419 9 23 14 19 122 -84 61 -59 133 -124 158 -144
l46 -36 -66 -50 c-57 -43 -167 -162 -157 -171 1 -2 29 12 61 31 57 35 169 76
254 95 41 9 51 7 135 -33 165 -78 273 -105 451 -112 l120 -5 -62 21 c-65 21
-184 95 -191 119 -4 11 8 12 59 6 319 -34 514 -93 637 -193 47 -38 53 -41 47
-20 -21 65 -97 191 -169 277 -20 24 -35 46 -33 48 3 2 40 -10 82 -27 254 -101
576 -123 808 -55 83 24 147 50 147 60 0 2 -19 9 -42 16 -102 27 -285 139 -368
225 l-45 46 74 -47 c206 -133 449 -206 674 -204 107 1 142 13 67 23 -143 18
-337 105 -466 208 -41 32 -74 61 -74 64 0 9 42 0 125 -25z m2533 -28 c20 -93
22 -123 6 -123 -9 0 -14 11 -14 34 0 34 -35 90 -50 81 -5 -3 -11 -1 -14 4 -6
8 40 50 56 51 3 0 11 -21 16 -47z m-61 -30 c5 3 9 -2 10 -11 1 -13 -8 -17 -40
-17 -23 -1 -47 -3 -53 -5 -7 -3 -12 0 -12 5 -1 6 6 9 14 7 8 -2 13 1 12 7 -2
5 6 16 17 25 18 14 21 13 32 0 6 -9 16 -14 20 -11z m-108 -80 c1 -19 -26 -16
-33 3 -4 9 -1 23 6 31 10 13 13 12 19 -4 4 -10 8 -24 8 -30z m-49 -3 c0 -5 -4
-10 -10 -10 -5 0 -10 5 -10 10 0 6 5 10 10 10 6 0 10 -4 10 -10z m-40 -25 c-7
-8 -9 -15 -4 -15 5 0 1 -5 -9 -11 -14 -8 -17 -18 -13 -42 5 -26 4 -28 -3 -10
-15 33 -17 52 -6 54 6 1 16 10 23 20 7 11 16 19 19 19 3 0 0 -7 -7 -15z m265
-15 c3 -5 1 -10 -4 -10 -6 0 -11 5 -11 10 0 6 2 10 4 10 3 0 8 -4 11 -10z
m-3168 -36 c-9 -9 -27 6 -27 22 0 13 2 13 16 -1 9 -9 14 -18 11 -21z m1495 9
c45 -49 63 -103 34 -103 -29 0 -94 98 -80 121 9 15 19 11 46 -18z m1697 -27
c-1 -21 -3 -25 -6 -11 -3 11 -9 25 -14 31 -5 7 -3 11 6 11 10 0 15 -10 14 -31z
m941 -16 c0 -5 -5 -10 -11 -10 -5 0 -7 5 -4 10 3 6 8 10 11 10 2 0 4 -4 4 -10z
m-4000 -4 c0 -3 -4 -8 -10 -11 -5 -3 -10 -1 -10 4 0 6 5 11 10 11 6 0 10 -2
10 -4z m2757 -38 c-3 -8 -6 -5 -6 6 -1 11 2 17 5 13 3 -3 4 -12 1 -19z m1048
-8 c3 -5 1 -10 -4 -10 -6 0 -11 5 -11 10 0 6 2 10 4 10 3 0 8 -4 11 -10z
m-4455 -35 c61 -31 71 -45 31 -45 -41 0 -121 36 -121 55 0 22 34 19 90 -10z
m4650 -39 c0 -2 -7 -7 -16 -10 -8 -3 -12 -2 -9 4 6 10 25 14 25 6z m-6780
-156 c13 -33 38 -86 56 -117 26 -43 32 -59 23 -69 -6 -8 -18 -14 -26 -14 -8 0
-11 -5 -8 -10 4 -6 4 -19 0 -28 -4 -9 -7 -34 -5 -56 1 -28 -2 -37 -12 -33 -7
2 -12 10 -11 16 2 6 -2 11 -7 11 -5 0 -10 5 -10 10 0 6 7 10 16 10 14 0 14 2
1 15 -9 8 -13 23 -10 34 3 13 -2 21 -16 26 -22 7 -30 44 -33 145 -4 137 7 153
42 60z m6140 -205 c0 -14 -4 -25 -10 -25 -5 0 -7 7 -4 15 4 8 1 15 -6 15 -6 0
-8 5 -5 10 11 18 25 10 25 -15z m-6035 5 c3 -6 0 -17 -9 -25 -11 -11 -15 -12
-19 -2 -9 27 14 50 28 27z m25 -42 c0 -18 -2 -20 -9 -8 -6 8 -7 18 -5 22 9 14
14 9 14 -14z m25 -17 c3 -5 1 -12 -5 -16 -5 -3 -10 1 -10 9 0 18 6 21 15 7z
m5925 -25 c0 -3 -8 -3 -17 -1 -10 2 -22 4 -26 4 -5 1 -5 6 -2 11 6 9 45 -4 45
-14z m-79 -33 c13 -16 12 -17 -3 -4 -10 7 -18 15 -18 17 0 8 8 3 21 -13z
m-5773 -28 c10 -10 12 -15 5 -11 -7 4 -11 -5 -10 -28 0 -19 -5 -41 -11 -49
-18 -22 -61 -30 -92 -17 -37 15 -40 70 -6 105 29 29 87 29 114 0z m-229 -297
l-2 -23 -4 22 c-5 26 -60 76 -77 70 -6 -2 -17 -15 -24 -30 -17 -35 -2 -64 35
-69 24 -4 25 -5 10 -12 -28 -13 -72 24 -72 60 0 21 9 34 35 52 l35 23 32 -35
c19 -21 32 -45 32 -58z m1657 -123 c13 -51 -24 -93 -72 -81 -47 12 -41 97 8
115 30 11 56 -3 64 -34z m4594 -132 c78 -215 81 -427 8 -565 -60 -114 -342
-440 -466 -539 -89 -72 -135 -88 -180 -65 -17 9 -36 25 -42 36 -6 11 -17 20
-25 20 -17 0 -18 10 -5 65 5 22 23 153 39 290 17 138 33 264 35 282 4 30 82
153 97 153 3 0 14 -21 24 -47 15 -39 70 -133 78 -133 1 0 2 39 3 88 1 138 32
210 106 248 26 14 32 14 53 0 28 -19 51 -83 64 -184 6 -42 14 -99 17 -127 l7
-50 8 35 c36 160 29 312 -18 409 -18 38 -23 56 -15 59 7 2 45 28 85 57 39 29
77 54 84 54 6 1 25 -38 43 -86z m-5808 -20 c207 -170 288 -266 379 -448 63
-127 63 -129 99 -390 12 -82 32 -206 46 -274 13 -69 21 -128 17 -132 -5 -4
-47 -13 -94 -20 -85 -12 -87 -12 -140 14 -70 35 -175 131 -370 340 -170 182
-209 241 -230 345 -24 125 7 312 76 457 40 84 105 175 126 175 5 0 46 -30 91
-67z m1726 -241 c6 -58 -48 -135 -70 -100 -18 29 -4 90 27 122 24 23 39 15 43
-22z m146 -160 c-2 -122 -110 -274 -239 -337 -52 -26 -70 -29 -150 -29 -59 0
-105 6 -134 18 -59 22 -145 87 -181 138 -46 63 -39 139 15 152 29 8 55 -4 109
-50 139 -119 360 -64 449 111 28 55 70 79 112 64 17 -6 20 -15 19 -67z m-564
38 c0 -19 -11 -26 -23 -14 -8 8 3 34 14 34 5 0 9 -9 9 -20z m285 -40 c10 -16
-31 -48 -77 -60 -46 -13 -99 -3 -145 27 -39 26 -26 31 56 26 48 -4 85 -1 97 5
24 14 61 15 69 2z m2403 -2257 c2 -16 -5 -24 -33 -33 -20 -6 -42 -9 -50 -6
-20 7 -19 60 0 80 14 14 19 13 48 -3 18 -10 33 -27 35 -38z m-1828 -107 c205
-105 541 -232 687 -260 95 -18 141 -11 254 38 71 31 338 169 573 297 l79 42
-6 -54 c-60 -557 -77 -727 -75 -744 2 -12 16 13 37 65 19 47 37 89 41 93 4 4
35 -5 70 -21 l64 -28 -129 -81 c-72 -44 -170 -104 -220 -133 -121 -72 -505
-266 -551 -279 -105 -29 -486 130 -1047 438 -103 57 -186 105 -185 106 2 2 47
21 101 43 110 45 101 48 132 -48 10 -30 27 -73 37 -95 l18 -40 -5 50 c-13 125
-27 247 -55 460 -16 127 -30 242 -30 257 l0 28 53 -40 c28 -22 99 -65 157 -94z
m2665 -517 c81 -33 98 -47 85 -68 -7 -12 -23 -9 -92 12 -45 15 -96 29 -113 33
-43 10 -46 13 -35 35 16 28 69 24 155 -12z"/>
<path d="M6292 8935 c203 -108 607 -126 901 -40 32 9 57 18 55 20 -2 1 -39 -4
-83 -11 -44 -8 -159 -17 -255 -20 -147 -5 -201 -3 -335 15 -88 12 -185 28
-215 35 -112 28 -119 28 -68 1z"/>
<path d="M2365 7842 c-148 -148 -308 -303 -354 -345 -46 -42 -82 -77 -79 -77
12 0 160 119 268 215 116 103 318 316 397 418 24 31 43 57 41 57 -2 0 -124
-121 -273 -268z"/>
<path d="M7975 5161 c-19 -8 -19 -8 2 -19 19 -11 22 -10 20 8 -1 11 -1 20 -2
19 0 0 -9 -4 -20 -8z"/>
<path d="M6135 5169 c-102 -13 -230 -57 -299 -103 -62 -42 -133 -121 -176
-197 l-24 -44 43 35 c201 163 404 260 611 291 155 22 161 27 35 27 -66 -1
-151 -4 -190 -9z"/>
<path d="M3575 5071 c-22 -4 -3 -9 71 -18 205 -25 407 -113 542 -237 23 -21
44 -37 47 -35 8 9 -90 142 -135 182 -60 54 -121 84 -207 102 -68 15 -261 18
-318 6z"/>
<path d="M6225 4891 c-80 -23 -129 -50 -194 -106 -114 -98 -178 -219 -206
-390 l-7 -40 31 42 c35 48 78 62 135 43 71 -23 126 -111 110 -177 -29 -123
-201 -167 -259 -65 -15 26 -16 24 -11 -48 13 -181 89 -364 196 -470 36 -36 79
-75 95 -88 l30 -22 -30 5 c-78 14 -235 31 -228 25 14 -13 103 -38 218 -62 94
-19 140 -23 315 -23 192 0 211 2 303 27 81 23 215 79 152 64 -23 -6 -213 -32
-297 -41 -32 -4 -58 -4 -58 -1 0 3 18 15 41 27 200 102 337 428 300 715 -41
314 -200 527 -438 588 -76 20 -122 19 -198 -3z m-109 -316 c14 -21 14 -30 5
-54 -27 -63 -101 -55 -101 11 0 63 64 92 96 43z m489 -445 c9 -29 -30 -110
-53 -110 -29 0 -34 38 -12 87 21 47 54 59 65 23z m149 -96 c22 -21 20 -47 -8
-126 -42 -120 -126 -211 -242 -265 -51 -24 -72 -28 -149 -27 -110 0 -174 22
-260 92 -95 76 -129 158 -85 202 31 31 72 25 122 -16 70 -60 132 -84 213 -84
114 1 202 52 271 160 22 32 48 64 59 69 30 15 62 13 79 -5z m-574 -8 c0 -16
-18 -31 -27 -22 -8 8 5 36 17 36 5 0 10 -6 10 -14z m280 -49 c0 -8 -11 -24
-25 -37 -36 -34 -137 -34 -183 -1 -41 28 -34 40 17 31 40 -7 126 1 138 13 12
12 53 7 53 -6z"/>
<path d="M4900 3329 c-33 -70 -31 -107 9 -158 18 -23 35 -41 36 -39 7 6 -8
248 -15 248 -4 0 -17 -23 -30 -51z"/>
<path d="M6140 3260 c-8 -5 -10 -10 -5 -10 6 0 17 5 25 10 8 5 11 10 5 10 -5
0 -17 -5 -25 -10z"/>
<path d="M6495 3250 c-33 -10 -82 -28 -110 -40 -54 -25 -139 -79 -132 -86 2
-2 64 24 138 59 74 34 148 67 164 73 48 19 6 14 -60 -6z"/>
<path d="M6745 3202 c-60 -21 -194 -94 -180 -99 6 -1 78 24 160 57 128 51 144
60 110 59 -22 0 -62 -7 -90 -17z"/>
<path d="M3675 3193 c-154 -34 -315 -82 -280 -83 6 0 89 20 185 44 96 25 162
44 145 44 -16 0 -39 -2 -50 -5z"/>
<path d="M6815 3115 c-76 -38 -56 -38 31 1 49 22 66 34 46 34 -4 0 -39 -16
-77 -35z"/>
<path d="M3523 3083 c15 -2 39 -2 55 0 15 2 2 4 -28 4 -30 0 -43 -2 -27 -4z"/>
<path d="M3430 3030 l-55 -7 50 -1 c28 0 68 3 90 7 l40 9 -35 -1 c-19 0 -60
-3 -90 -7z"/>
<path d="M3333 3013 c9 -2 23 -2 30 0 6 3 -1 5 -18 5 -16 0 -22 -2 -12 -5z"/>
<path d="M5050 2895 c-199 -31 -360 -81 -457 -144 -109 -70 -132 -134 -94
-259 59 -196 296 -374 492 -371 44 0 44 0 -25 20 -91 26 -163 61 -235 114 -60
44 -60 45 -49 77 19 55 124 151 216 197 119 60 191 74 342 68 171 -7 303 -52
375 -127 33 -34 28 -48 -54 -134 -69 -73 -177 -145 -262 -175 -98 -35 -110
-41 -64 -35 65 9 166 43 225 77 85 47 192 161 234 248 40 84 58 182 47 251
-16 96 -73 147 -206 184 -84 23 -358 28 -485 9z m478 -41 c35 -11 64 -23 64
-29 1 -31 -304 -94 -559 -116 -173 -14 -374 -9 -398 11 -15 12 -13 15 17 32
57 30 239 85 338 102 52 9 106 18 120 20 14 2 99 3 190 1 125 -2 180 -7 228
-21z"/>
<path d="M1807 5064 c3 -7 9 -14 14 -14 14 0 10 17 -5 23 -10 4 -13 1 -9 -9z"/>
<path d="M1934 4865 c-10 -8 -14 -14 -9 -14 6 0 19 6 29 14 11 8 15 15 10 15
-6 0 -19 -7 -30 -15z"/>
<path d="M1982 4840 c-7 -12 -22 -24 -34 -29 -18 -6 -19 -9 -5 -14 21 -8 60
24 56 46 -4 16 -5 15 -17 -3z"/>
<path d="M7636 3795 c4 -16 10 -61 13 -100 l7 -70 12 43 c15 50 8 98 -19 132
l-21 25 8 -30z"/>
<path d="M7640 3525 c-161 -66 -195 -89 -163 -112 20 -15 39 -11 108 24 56 29
188 118 206 139 6 8 10 14 8 13 -2 -1 -74 -29 -159 -64z"/>
<path d="M2192 4217 c-34 -16 -61 -76 -73 -163 -12 -90 -6 -164 23 -289 l22
-90 21 132 c24 144 36 181 72 231 40 54 101 40 134 -31 23 -52 24 -135 3 -206
-8 -29 -14 -54 -12 -56 6 -6 80 67 104 102 18 27 24 49 24 91 0 159 -201 336
-318 279z"/>
<path d="M2483 3723 c-14 -20 -18 -47 -18 -108 0 -73 3 -86 28 -124 16 -24 30
-41 32 -39 2 1 -1 26 -6 53 -5 28 -7 94 -3 148 7 104 0 120 -33 70z"/>
<path d="M2383 3353 c11 -18 95 -63 154 -84 95 -32 163 -23 163 23 0 26 -26
35 -130 47 -52 6 -117 14 -144 17 -34 5 -47 4 -43 -3z"/>
<path d="M2730 2639 c0 -5 5 -7 10 -4 6 3 10 8 10 11 0 2 -4 4 -10 4 -5 0 -10
-5 -10 -11z"/>
<path d="M9685 790 c-4 -6 -10 -8 -14 -5 -5 2 -24 -15 -42 -38 -19 -24 -71
-77 -116 -117 -46 -41 -83 -78 -83 -82 0 -13 39 -47 94 -82 39 -24 57 -44 80
-92 39 -78 53 -94 81 -94 24 0 45 20 68 65 26 53 96 123 150 152 71 38 74 64
13 92 -59 26 -152 114 -166 157 -14 42 -51 67 -65 44z m29 -68 c22 -43 44 -67
112 -122 10 -9 22 -16 27 -18 4 -1 18 -4 32 -8 14 -3 25 -9 25 -13 0 -3 -25
-17 -56 -30 -63 -27 -123 -90 -151 -156 -10 -25 -20 -45 -23 -45 -3 0 -16 25
-29 56 -27 63 -90 123 -156 151 -25 10 -45 20 -45 23 0 3 24 15 53 28 44 19
117 73 117 86 0 12 53 96 61 96 5 0 20 -22 33 -48z"/>
</g>
</svg>
